<svg id="Layer_1" data-name="Layer 1" xmlns="http://www.w3.org/2000/svg" xmlns:xlink="http://www.w3.org/1999/xlink" viewBox="0 0 1718.16 1690.71"><defs><style>.cls-1{fill:none;}.cls-1,.cls-3{stroke:#ea5049;stroke-miterlimit:10;}.cls-2{clip-path:url(#clip-path);}.cls-3{fill:#ff4e44;}</style><clipPath id="clip-path" transform="translate(-6337.99 -6349.76)"><rect class="cls-1" x="6338.49" y="6350.26" width="1717.16" height="1689.59"/></clipPath></defs><g class="cls-2"><path class="cls-3" d="M7914.3,7405.42a186.28,186.28,0,0,1-31.88,18.37c-31.95,14.36-64.24,18.44-96,12.14-30.11-6-60.88-24.4-92.37-44.37-35.11-22.26-68.21-30.28-98.38-23.83-39.39,8.42-74.8,29.71-108.26,65.07-33.31,35.2-60.17,77.72-88.62,122.74q-4.56,7.23-9.15,14.46l-2.3,3.62c-30.82,48.56-62.68,98.77-99.85,144.8-60.23,74.61-134,160.38-224.78,230.86a589.34,589.34,0,0,1-80,52.65,484.88,484.88,0,0,1-90.1,37.92l-.87-2.32c58-17.61,115.07-48,169.48-90.24,90.57-70.35,164.29-156,224.45-230.53,37.09-45.95,68.93-96.1,99.71-144.61l2.3-3.62q4.59-7.23,9.15-14.46c28.5-45.11,55.42-87.71,88.86-123,16.05-17,33-31,50.25-41.65a186.83,186.83,0,0,1,59.05-24c30.76-6.58,64.45,1.55,100.12,24.17,31.28,19.84,61.82,38.13,91.52,44,31.26,6.2,63.11,2.17,94.66-12,29.14-13.1,55.55-34.53,78.49-63.71,37.87-48.17,65.86-111.88,83.2-189.36,18.76-83.8,11.61-166.85-20.65-240.16l2.09-.79a368,368,0,0,1,30.53,127,413.81,413.81,0,0,1-9.71,114.78c-8.24,36.83-19.13,71.16-32.37,102-14.37,33.54-31.61,63.21-51.23,88.17-14.47,18.41-30.31,33.76-47.36,45.92" transform="translate(-6337.99 -6349.76)"/><path class="cls-3" d="M7908.25,7387a171.9,171.9,0,0,1-34.25,19.1c-35.78,14.74-75.14,12.87-113.83-5.41-15.38-7.26-30.5-17.85-45.13-28.09-21.92-15.33-44.58-31.19-67.95-35.62-32.32-6.12-62.7,6.27-85.57,17.74-29.91,15-57.46,36.24-81.88,63.08-35,38.42-63.58,84.53-93.87,133.35-11.43,18.42-23.24,37.46-35.36,55.93-38.37,58.47-84.58,117.37-137.37,175-41.29,45.11-91,97.26-146.73,142-60.63,48.71-120.52,82.64-183.08,103.73l-.93-2.3c139.52-47,243-151.23,329-245.21,52.71-57.59,98.86-116.4,137.17-174.78,12.1-18.45,23.91-37.48,35.33-55.88,30.34-48.91,59-95.1,94.09-133.66,24.58-27,52.33-48.38,82.46-63.51,23.16-11.62,54-24.16,86.93-17.92,23.89,4.53,46.78,20.55,68.92,36,14.54,10.18,29.57,20.7,44.74,27.87,38.09,18,76.82,19.84,112,5.33,18.08-7.45,35.38-18.56,51.42-33,37.79-34.05,63.4-83,81.48-121.9,25-53.77,39.08-105,43-156.64A346.56,346.56,0,0,0,8044,7003c-5.48-29.56-16.72-59-26.65-84.94l2.14-.66c10,26.06,21.27,55.61,26.79,85.4a349.36,349.36,0,0,1,4.86,90c-3.93,51.91-18.06,103.41-43.19,157.43-18.17,39-43.9,88.25-82,122.55a199.81,199.81,0,0,1-17.74,14.28" transform="translate(-6337.99 -6349.76)"/><path class="cls-3" d="M7904.75,7366.79a148.7,148.7,0,0,1-37.41,19.66c-16.38,5.7-34.08,7.24-52.62,4.59-19.38-2.78-38.8-10.05-57.73-21.61-11.75-7.17-23.21-15.68-34.29-23.91-26.05-19.35-50.65-37.62-78.74-40-32.89-2.77-62.08,12.53-89.16,28.44a339.46,339.46,0,0,0-83.57,69.57c-33.24,38-60.88,82.71-90.13,130-12.21,19.74-24.84,40.17-37.86,59.95-38.45,58.44-83.83,115.45-138.74,174.28-44.22,47.38-92.73,97.34-147.86,141.76-60.9,49.08-120.71,83.84-182.84,106.27l-1-2.29c137.61-49.66,242.45-153.8,329.92-247.51,54.83-58.75,100.14-115.67,138.53-174,13-19.75,25.62-40.16,37.83-59.9,29.3-47.37,57-92.11,90.33-130.27a341.37,341.37,0,0,1,84.06-70c27.36-16.07,56.88-31.53,90.39-28.71,28.78,2.42,53.67,20.9,80,40.47,11,8.19,22.44,16.67,34.09,23.78,36.64,22.38,75.14,28.34,108.4,16.77,17.67-6.15,34.82-16.43,51-30.55,37.85-33.08,63.88-80.18,84.34-121.89,25.77-52.53,40-102.84,43.42-153.8a325.28,325.28,0,0,0-5.78-86.66c-5.75-28.24-16.38-56.62-27-83.08l2.12-.71c10.69,26.58,21.38,55.1,27.16,83.55a327,327,0,0,1,5.83,87.33c-3.46,51.27-17.74,101.86-43.64,154.65-20.55,41.89-46.7,89.21-84.83,122.53q-7,6.11-14.22,11.26" transform="translate(-6337.99 -6349.76)"/><path class="cls-3" d="M7903.22,7345.29c-13.31,9.49-26.79,16-40.93,19.87-15.86,4.32-33.37,3.93-52-1.14-18.29-5-36.86-14.2-55.2-27.45-7.65-5.52-15.22-11.38-22.55-17-30.67-23.72-59.64-46.12-92.21-44-35,2.33-66.35,21.35-93,39a403.21,403.21,0,0,0-85.16,75.66c-28.21,33.35-51.92,71.55-77,112-8.53,13.74-17.35,28-26.3,41.84-49.27,76.49-104.14,146.82-163.1,209-44.88,47.36-94,97.3-148.84,141.73-61.13,49.49-120.85,85.14-182.59,109l-1-2.27c136.14-52.58,242.09-156.73,330.71-250.22,58.86-62.11,113.66-132.33,162.86-208.72,8.94-13.87,17.75-28.07,26.28-41.81,25.14-40.51,48.89-78.77,77.19-112.24a405.56,405.56,0,0,1,85.58-76c26.83-17.8,58.43-37,94-39.34,33.45-2.22,62.79,20.47,93.85,44.49,7.31,5.65,14.87,11.5,22.48,17,36.85,26.61,74.23,36.62,105.24,28.19,17.53-4.77,34.05-13.76,50.52-27.48,38.45-32.05,65.29-79,86.49-120.74,26.06-51.32,40.1-100.71,42.9-151s-8.38-104.09-34.16-164.83l2.11-.75c25.93,61.11,37.17,115.41,34.36,166s-16.93,100.31-43.14,151.91c-21.28,41.9-48.26,89.09-87,121.37q-5.16,4.3-10.33,8" transform="translate(-6337.99 -6349.76)"/><path class="cls-3" d="M7904,7322.32c-14.78,10.54-29.68,17.14-45.38,20.13-36.76,7-77.17-17.78-104.59-39.8-4-3.24-8.15-6.62-12.13-9.88-13.7-11.25-27.88-22.88-42.4-31.9-20.73-12.87-42.25-17.25-64-13-37.88,7.39-70.57,28.92-97.55,49-34.55,25.74-62.61,52.15-85.76,80.75-26.2,32.36-48.66,68.57-72.44,106.91-9.36,15.1-19.05,30.71-28.92,45.95a1392.64,1392.64,0,0,1-164.11,207.43c-45.58,47.47-95.27,97.52-149.74,142-61.28,50-120.88,86.59-182.2,111.91l-1.06-2.25c134.51-55.55,237.41-155.64,331.27-253.4A1391.63,1391.63,0,0,0,7348.92,7529c9.85-15.22,19.53-30.82,28.89-45.91,23.81-38.4,46.31-74.67,72.58-107.12,23.27-28.74,51.44-55.26,86.13-81.1,27.16-20.22,60.08-41.9,98.37-49.37,22.29-4.35,44.38.15,65.65,13.36,14.67,9.11,28.92,20.8,42.69,32.11,4,3.25,8.08,6.62,12.1,9.86,27,21.68,66.75,46.1,102.65,39.27,17.32-3.3,33.68-11.1,50-23.85,39.66-31,66.72-77.34,87.95-118.62,26-50.57,39.61-99.08,41.56-148.29,1.89-47.55-9.71-99.76-35.47-159.61l2.1-.78c25.92,60.23,37.59,112.81,35.69,160.75-2,49.56-15.65,98.38-41.81,149.24-21.33,41.48-48.53,88.09-88.5,119.29q-2.74,2.15-5.49,4.11" transform="translate(-6337.99 -6349.76)"/><path class="cls-3" d="M7906.33,7298.68c-16.46,11.74-32.86,18.24-50.13,19.86-15.36,1.45-32.27-3-51.7-13.61-14.83-8.1-31-19.71-50.92-36.56-19.52-16.51-37.21-31-56.17-40.52-21-10.6-44-12.41-68.41-5.39-40.08,11.53-74.41,36.4-102.7,59.21-37.05,29.87-63.53,56.23-85.86,85.47-22.83,29.88-43,62.38-64.35,96.79-11,17.72-22.36,36-34.07,53.87-46.75,71.18-102.12,140-164.58,204.41-95,98-198.9,198.67-332.15,257.51l-1.1-2.24c132.92-58.69,236.66-159.18,331.52-257.07,62.38-64.36,117.67-133,164.35-204.11,11.69-17.8,23-36.11,34-53.82,21.38-34.46,41.57-67,64.46-97,22.44-29.37,49-55.84,86.2-85.81,28.45-22.94,63-47.95,103.4-59.58,25-7.17,48.53-5.3,70.07,5.57,19.21,9.7,37,24.25,56.68,40.87,29.25,24.74,67.15,52.74,100.83,49.57,17-1.6,33.16-8,49.44-19.71,40.47-29,67.58-74.8,88.76-115.75,25.6-49.48,38.51-97.12,39.48-145.64.91-45.12-11.08-95.53-36.64-154.12l2.1-.78c12.14,27.83,21.39,54.44,27.49,79.09,6.69,27,9.84,52.61,9.37,76.12-1,48.89-14,96.86-39.73,146.65-13.71,26.5-26,46.95-38.63,64.34-16.08,22.11-32.68,39.16-50.74,52.12l-.31.22" transform="translate(-6337.99 -6349.76)"/><path class="cls-3" d="M7910.6,7274.19q-2.88,2.07-5.87,4c-16.45,10.64-32.79,15.71-50,15.51-31.62-.36-65.32-28.69-95.05-53.68l-6.55-5.49c-15.21-12.72-35.52-28.37-57.64-36.51-30.4-11.18-58.15-3.15-76.39,3.86-34.63,13.32-68.84,34.92-107.64,68-36.94,31.47-62.94,59-84.29,89.12-19.31,27.28-36.64,56.35-55,87.12-18.94,31.79-38.53,64.65-60.47,95.29-42.23,58.94-94.34,113.64-144.1,164.62-43.74,44.8-95.08,96.51-151,143.19-61.39,51.22-120.57,90-180.92,118.47l-1.14-2.21c130.84-61.79,231.41-158.84,331.38-261.26,49.71-50.92,101.76-105.56,143.9-164.38,21.9-30.57,41.46-63.4,60.38-95.14,18.37-30.81,35.71-59.92,55.07-87.26,21.45-30.3,47.55-57.9,84.62-89.49,39-33.21,73.37-54.92,108.22-68.32,18.56-7.13,46.83-15.29,77.95-3.85,22.5,8.28,43,24.1,58.42,37q3.26,2.72,6.55,5.5c29.41,24.71,62.73,52.72,93.49,53.08,16.74.19,32.71-4.78,48.82-15.19,41.48-26.81,69.33-74.11,89-112.32,25.12-48.89,37.15-95.67,36.77-143-.33-42.71-12.64-91.26-37.62-148.42l2.09-.79c25.13,57.5,37.51,106.39,37.85,149.45.38,47.72-11.73,94.84-37,144.06-18.81,36.61-45.15,81.54-83.8,109.1" transform="translate(-6337.99 -6349.76)"/><path class="cls-3" d="M7915.67,7249.8a140,140,0,0,1-12.06,7.7c-16.28,9.24-32.46,12.74-49.48,10.67-26.78-3.24-53.9-26.16-80.13-48.31-7.51-6.35-14.6-12.35-21.68-17.89-21.27-16.64-42.13-27.07-62-31-30.72-6.07-59.79,4.37-84.18,15.38-38.45,17.36-76.48,42.71-113,75.35-34.43,30.76-59.93,59.71-80.23,91.08-15.1,23.34-29.48,48.74-43.38,73.31-20.19,35.67-41.07,72.56-65.67,106.23-39.8,54.45-88,101.29-139,150.87l-7.31,7.11q-9.33,9.07-18.74,18.27c-45.58,44.49-92.72,90.5-144,133.31-58.11,48.48-113.29,85.68-168.7,113.71l-1.19-2.19c123.58-62.53,219.49-156.14,312.24-246.67q9.42-9.19,18.74-18.27l7.31-7.11c50.93-49.52,99.05-96.3,138.75-150.62,24.53-33.57,45.38-70.4,65.54-106,13.92-24.59,28.31-50,43.44-73.41,20.4-31.53,46-60.6,80.58-91.49,36.69-32.77,74.89-58.24,113.52-75.68,24.69-11.14,54.16-21.7,85.49-15.52,20.27,4,41.5,14.6,63.08,31.5,7.13,5.57,14.24,11.58,21.77,17.94,25.94,21.92,52.75,44.57,78.8,47.73,16.55,2,32.31-1.4,48.2-10.42,42.1-23.91,69.48-70.56,88.63-108.53,24.16-47.91,35.11-93.8,33.48-140.29-1.4-40.14-13.58-85.43-38.33-142.55l2.1-.77c24.88,57.43,37.13,103,38.55,143.5,1.64,46.9-9.39,93.15-33.72,141.4-17.39,34.5-41.56,76.12-77.38,101.68" transform="translate(-6337.99 -6349.76)"/><path class="cls-3" d="M7920.77,7226a119.82,119.82,0,0,1-17.68,10.52,74.52,74.52,0,0,1-49,5.75c-23.1-4.94-46.52-24.64-69.17-43.69-11.91-10-23.16-19.48-34.41-27-22.42-15-45.48-22.1-70.52-21.76-33.65.45-64.71,13.54-90.65,26.28-86.54,42.49-149.22,98.82-191.64,172.21-11.13,19.26-21.87,39.68-32.26,59.43-20.88,39.69-42.47,80.74-69.62,117.43-39.24,53-87.86,97.19-139.34,143.94q-4.5,4.08-9,8.19c-17.32,15.74-35.09,32.31-52.28,48.33-84.1,78.4-171.06,159.46-278.76,217.89l-1.25-2.16c107.48-58.31,194.35-139.29,278.36-217.6,17.19-16,35-32.6,52.29-48.35l9-8.19c51.4-46.68,100-90.77,139.08-143.65,27.05-36.56,48.61-77.54,69.45-117.16,10.39-19.77,21.15-40.21,32.3-59.5,42.62-73.75,105.58-130.34,192.49-173,26.14-12.84,57.46-26,91.54-26.49,25.52-.34,49,6.91,71.9,22.19,11.37,7.59,23.2,17.55,34.65,27.18,22.4,18.84,45.56,38.33,68.05,43.13a72.43,72.43,0,0,0,47.65-5.59c42.52-20.54,69.26-66.68,87.81-104.59,23-46.93,32.68-91.88,29.68-137.41-3.14-47.72-22.32-98.05-38.69-136.58l2.11-.76c16.44,38.72,35.73,89.33,38.89,137.44,3,46-6.75,91.29-29.9,138.59-16,32.68-38.05,71.45-71.06,95" transform="translate(-6337.99 -6349.76)"/><path class="cls-3" d="M7925.55,7203.11a102.42,102.42,0,0,1-22.57,12.27,70.37,70.37,0,0,1-48.71.92c-17.65-5.87-34.77-19.64-51.33-33-19.5-15.69-37.16-29.46-55.82-39.16-28.1-14.6-56.25-12.78-77.63-9.56-38.33,5.76-73.23,21.5-102.33,36.14-88.46,44.5-147.36,100-185.34,174.56-7.9,15.5-15.6,31.67-23.06,47.3-20.64,43.33-42,88.13-71.12,127.23-39.49,53-92.07,97.51-142.91,140.54l-7.37,6.23c-26.28,22.26-51.93,45.21-79.09,69.49-77,68.87-156.64,140.08-251.6,195.34l-1.3-2.14c94.79-55.16,174.35-126.3,251.28-195.1,27.17-24.29,52.83-47.24,79.13-69.52l7.37-6.24c50.76-42.95,103.25-87.36,142.6-140.2,29-38.94,50.31-83.65,70.91-126.88,7.46-15.65,15.17-31.83,23.08-47.36a357.2,357.2,0,0,1,81.46-105.78c29.07-26,63.34-48.82,104.77-69.66,29.24-14.71,64.33-30.53,102.94-36.34,21.72-3.26,50.33-5.1,79.06,9.82,18.87,9.81,36.64,23.67,56.26,39.45,16.37,13.17,33.31,26.79,50.52,32.52a68.31,68.31,0,0,0,47.22-.91c42.48-16.38,68.57-62.4,86.55-100.66,22.67-48.24,30.66-91.16,25.14-135.07-5.85-46.56-23.57-93.81-38.35-129.77l2.11-.74c14.85,36.12,32.65,83.59,38.54,130.46a218.24,218.24,0,0,1-3.48,73.72c-4.37,20.15-11.52,40.64-21.86,62.64-14.73,31.36-34.89,67.9-65.07,89.42" transform="translate(-6337.99 -6349.76)"/><path class="cls-3" d="M7929.36,7181.1a89.35,89.35,0,0,1-26.24,13c-15.24,4.56-31.57,3.38-48.56-3.53-17.5-7.11-34.69-20.23-51.32-32.91-19.83-15.13-40.33-30.77-61.65-36.56-30.46-8.29-60.87-2.69-86.6,3.87-36.8,9.39-74.2,23.66-114.33,43.63-50.65,25.2-87.76,51.4-116.77,82.43-22.67,24.26-41.78,54.52-58.41,92.51-5,11.46-10,23.23-14.78,34.6-19.88,47.17-40.44,95.93-71.36,138-39,53.06-92.91,95.35-145,136.24l-7,5.51c-52.46,41.22-107.81,86.43-164.49,134.34-48.81,41.27-104.13,88-165.85,126.82l-1.36-2.1c61.6-38.71,116.87-85.43,165.63-126.65,56.7-47.93,112.06-93.15,164.55-134.39l7-5.51c52-40.81,105.76-83,144.63-135.85,30.77-41.83,51.28-90.48,71.12-137.53,4.8-11.39,9.76-23.16,14.79-34.63,16.73-38.22,36-68.66,58.79-93.09,29.18-31.22,66.47-57.55,117.34-82.86,40.26-20,77.79-34.35,114.73-43.77,26-6.63,56.76-12.28,87.73-3.86,21.79,5.92,42.5,21.72,62.53,37,16.49,12.58,33.54,25.59,50.72,32.57,16.49,6.7,32.32,7.86,47.06,3.44,42.75-12.83,67.84-58.54,84.92-96.93,19.9-44.74,26.5-89.76,19.62-133.82-6.34-40.59-21.5-82.4-36.94-121.54l2.13-.69c15.5,39.28,30.71,81.26,37.09,122.1a225.42,225.42,0,0,1-.56,72.89,262.48,262.48,0,0,1-19.22,62.26c-13.45,30.24-31.85,65-59.93,85" transform="translate(-6337.99 -6349.76)"/><path class="cls-3" d="M7932,7160a78,78,0,0,1-28.63,12.93c-14.83,3.29-31.21.81-48.69-7.39-12.64-5.92-25.31-15-37.57-23.76-5.88-4.2-12-8.54-17.93-12.48-24.14-15.88-44.62-23.62-66.39-25.12-40.05-2.74-77.76,9.59-114.24,21.52l-2.92,1c-38.58,12.6-72.92,26.32-105,41.92-50,24.36-84,49.15-110.26,80.39-20.57,24.51-37.44,55.24-51.57,93.95-4,10.95-7.81,22.37-11.49,33.41-5.47,16.36-11.11,33.27-17.6,49.46a406.53,406.53,0,0,1-48.7,87.84c-39.34,54.06-95.63,95.09-150.06,134.76l-4,2.95c-67.12,48.95-118.44,88.33-166.39,127.69-8.36,6.87-16.91,13.93-25.17,20.76-43.68,36.13-88.85,73.49-137.82,106.81l-1.42-2.06c48.9-33.27,94-70.6,137.68-106.69,8.26-6.84,16.81-13.9,25.17-20.77,48-39.39,99.33-78.79,166.48-127.76l4.05-3c54.3-39.59,110.46-80.52,149.62-134.32a404.74,404.74,0,0,0,48.44-87.39c6.47-16.12,12.1-33,17.56-49.34,3.69-11.05,7.51-22.49,11.51-33.46,14.22-39,31.2-69.89,51.93-94.58,26.41-31.47,60.61-56.42,110.91-80.9,32.15-15.64,66.57-29.39,105.23-42l2.93-.95c36.66-12,74.58-24.39,115-21.62,22.21,1.52,43.06,9.4,67.58,25.53,6,4,12.12,8.32,18,12.54,12.16,8.7,24.74,17.69,37.16,23.51,17,8,32.88,10.39,47.22,7.21,43.43-9.65,68.15-58,83-93.56,9.2-22.08,14.88-43.22,17.35-64.63,2.28-19.72,1.16-42-3.34-66.29-6.95-37.54-20.62-75.62-35.21-114.57l2.15-.65c14.63,39.07,28.35,77.27,35.34,115,4.54,24.52,5.67,47.07,3.36,67-2.49,21.63-8.22,43-17.51,65.24-10.65,25.56-21,44.35-32.59,59.12A113.52,113.52,0,0,1,7932,7160" transform="translate(-6337.99 -6349.76)"/><path class="cls-3" d="M7933.64,7138.74a74.86,74.86,0,0,1-30.21,13c-14,2.56-31-1-49.25-10.42-10.39-5.33-20.79-12-30.84-18.51-9.36-6-19-12.27-28.71-17.4-28-14.88-53.64-14.6-75-12.36-43.46,4.55-85.74,18.52-126.64,32l-2.5.82c-34.11,11.27-74.17,25.26-112.69,43.61-46.47,22.14-78.91,47.12-102.1,78.62-18.15,24.66-32.51,55.71-43.9,94.93-2.6,9-5.11,18.28-7.54,27.27-4.92,18.26-10,37.14-16.37,55.08a351.24,351.24,0,0,1-45.28,86.54c-39.37,55.23-98,94.89-154.76,133.25l-1.49,1c-54.45,36.81-112.3,76.47-168.44,120.89-18,14.28-36.43,29.33-54.22,43.89-33.9,27.75-69,56.45-105.73,83.26l-1.46-2c36.72-26.78,71.75-55.46,105.64-83.19,17.79-14.57,36.19-29.63,54.24-43.91,56.2-44.47,114.08-84.15,168.56-121l1.49-1c56.58-38.26,115.09-77.82,154.25-132.75a349.37,349.37,0,0,0,45-86c6.32-17.86,11.4-36.69,16.32-54.91,2.42-9,4.93-18.3,7.55-27.31,11.45-39.47,25.92-70.74,44.22-95.6,23.4-31.78,56.08-57,102.84-79.24,38.62-18.4,78.76-32.42,112.94-43.7l2.49-.83c41-13.54,83.4-27.54,127.08-32.12,21.7-2.27,47.74-2.55,76.34,12.64,9.77,5.18,19.5,11.45,28.91,17.51,10,6.45,20.34,13.11,30.61,18.39,17.8,9.13,34.32,12.65,47.78,10.18,44.36-8.15,67.35-55.66,80.77-90.68,14-36.61,17.87-75.13,11.38-114.48-5.8-35.22-18.75-71.81-31.27-107.2q-2.41-6.8-4.79-13.57l2.17-.6q2.37,6.77,4.78,13.57c12.57,35.5,25.56,72.2,31.4,107.65,6.55,39.79,2.69,78.73-11.5,115.72-10.19,26.58-25.83,60.25-52.09,79" transform="translate(-6337.99 -6349.76)"/><path class="cls-3" d="M7934.34,7118.37a68.39,68.39,0,0,1-31.11,12.4c-13.47,1.79-29.91-2.26-50.26-12.4-6.8-3.39-13.86-7.34-20.68-11.16-15-8.39-30.52-17.07-45.49-21.18-29.94-8.22-59.09-3.93-86.13,1.92-45.29,9.8-89.21,23.63-135.71,38.27l-2.95.92c-37.47,11.8-79.94,25.17-118.89,43.59-42,19.87-72.34,45.28-92.73,77.68-15.48,24.58-27.17,55.82-35.74,95.48-1.57,7.28-3.08,14.77-4.55,22-4,19.84-8.17,40.35-14.08,59.73a305.54,305.54,0,0,1-41.81,85.26c-39.35,56.56-99.86,94.52-158.38,131.23l-4.87,3.05c-54.79,34.36-111.45,69.9-165.78,111.07-28,21.19-54.93,43.34-83.51,66.8-23.71,19.47-48.24,39.61-73.25,59l-1.52-2c25-19.41,49.51-39.54,73.22-59,28.58-23.47,55.59-45.64,83.57-66.85,54.4-41.23,111.09-76.78,165.91-111.17l4.87-3c58.36-36.61,118.69-74.46,157.81-130.68a303.18,303.18,0,0,0,41.52-84.66c5.88-19.28,10-39.73,14-59.52,1.47-7.25,3-14.75,4.56-22,8.62-39.92,20.4-71.38,36-96.18a186.94,186.94,0,0,1,41.84-46.68c14.74-11.87,31.66-22.25,51.74-31.74,39.07-18.48,81.61-31.87,119.14-43.69l2.95-.93c46.55-14.65,90.51-28.49,135.89-38.31,27.31-5.91,56.78-10.23,87.2-1.88,15.26,4.19,30.91,12.94,46,21.41,6.8,3.8,13.83,7.74,20.58,11.1,19.9,9.91,35.9,13.89,48.91,12.16,33.75-4.5,59.37-33.41,78.31-88.38,12-34.81,13.23-76.64,3.57-120.95-5.91-27.14-15.25-55.34-24.27-82.62-2.3-6.93-4.67-14.1-6.93-21.09l2.19-.53c2.26,7,4.63,14.14,6.92,21.07,9.05,27.34,18.41,55.62,24.35,82.9,9.76,44.75,8.5,87-3.64,122.25-13,37.64-29.1,63.25-48.85,77.34" transform="translate(-6337.99 -6349.76)"/><path class="cls-3" d="M7933.4,7098.47a63.33,63.33,0,0,1-30.86,11.66c-17,1.73-36.62-6.12-51.84-13.15-4.39-2-8.86-4.19-13.18-6.28-16.8-8.12-34.17-16.52-51-19.06-34.58-5.24-67.32,3.92-99,12.78q-5.11,1.44-10.16,2.83c-37.09,10.16-73.85,20.83-112.78,32.13l-33.66,9.75-9,2.6c-38.39,11.05-78.08,22.47-114.44,40-37.84,18.26-64.89,43.71-82.71,77.8-12.94,24.74-21.64,55.14-27.4,95.68-.81,5.73-1.6,11.61-2.35,17.3-2.83,21.2-5.76,43.12-11,63.76-7.55,29.63-20.07,57.08-38.26,83.92-39.25,57.89-103.66,95.41-160.49,128.53L7065.93,7650c-50.92,29.56-103.59,60.13-153.62,96.25-38.37,27.7-74.84,58.22-113.45,90.52-13.06,10.92-26.56,22.22-40,33.3l-1.56-1.95c13.47-11.08,27-22.37,40-33.29,38.64-32.33,75.14-62.86,113.56-90.6,50.12-36.19,102.82-66.78,153.79-96.36l19.32-11.23c56.64-33,120.85-70.41,159.83-127.92,18.06-26.63,30.47-53.86,38-83.24,5.22-20.51,8.14-42.36,11-63.5.76-5.69,1.54-11.57,2.36-17.32,5.79-40.79,14.57-71.42,27.62-96.39a170.73,170.73,0,0,1,36.2-47.09,197.28,197.28,0,0,1,47.41-31.6c36.52-17.63,76.3-29.08,114.77-40.15l9-2.59,33.66-9.76c38.93-11.29,75.7-22,112.8-32.14,3.37-.92,6.75-1.87,10.15-2.82,31.88-8.92,64.85-18.14,99.89-12.84,17.19,2.61,34.73,11.09,51.7,19.29,4.31,2.08,8.77,4.23,13.14,6.26,14.94,6.9,34.2,14.61,50.62,12.94,44.42-4.52,65-52.5,74.53-92a223.58,223.58,0,0,0,1.89-98.3c-5.51-27.36-14.13-55.71-22.47-83.12-2.71-8.92-5.52-18.15-8.16-27.14l2.21-.46c2.64,9,5.44,18.2,8.15,27.11,8.36,27.47,17,55.88,22.53,83.38a225.76,225.76,0,0,1-1.9,99.35c-7.13,29.67-20.51,64.08-45.44,81.87" transform="translate(-6337.99 -6349.76)"/><path class="cls-3" d="M7929.64,7079.3a57.79,57.79,0,0,1-28.48,10.64c-17.07,1.63-37.57-6.21-54-12.52-4.06-1.55-8.23-3.33-12.25-5.05-7.4-3.15-15.05-6.42-22.42-8.46-15.63-4.31-30.49-3.85-40.3-3.13-35.13,2.58-69.24,12.9-102.24,22.89-6.37,1.92-13,3.92-19.46,5.83-52.88,15.52-106.81,29.67-152.6,41.46l-11.58,3c-38.81,9.9-78.93,20.14-114.51,38.4-32.82,16.85-57.93,44.16-72.61,79-10.37,24.57-16.27,54-19.14,95.59-.3,4.43-.59,9-.87,13.33-1.42,22.28-2.89,45.31-7.3,67-5.91,29-17.25,56-34.68,82.57-16.92,25.8-40.66,49.42-72.59,72.19l-.18.13c-27.31,19.46-56.84,35.84-89.82,53.72-9.86,5.34-20,10.77-29.78,16-48.33,25.9-98.3,52.67-145.47,85-49.64,34-95.73,74.06-144.53,116.47l-5.57,4.84-1.6-1.91,5.57-4.84c48.84-42.45,95-82.54,144.71-116.61,47.26-32.37,97.28-59.17,145.65-85.09,9.8-5.25,19.92-10.68,29.77-16,57.94-31.41,123.6-67,161.88-125.38,17.28-26.35,28.52-53.11,34.37-81.81,4.38-21.49,5.84-44.44,7.25-66.64.28-4.38.57-8.91.88-13.35,2.88-41.8,8.84-71.5,19.31-96.32,14.87-35.27,40.31-62.93,73.54-80,35.79-18.37,76-28.64,114.93-38.57q5.82-1.47,11.59-3c45.77-11.79,99.68-25.93,152.52-41.45,6.5-1.9,13.08-3.9,19.46-5.82,33.1-10,67.32-20.37,102.68-23,10-.73,25.1-1.2,41.08,3.21,7.53,2.08,15.26,5.38,22.73,8.57,4,1.71,8.14,3.48,12.16,5,16.24,6.22,36.46,13.95,53,12.37,34-3.24,57.1-34,70.57-94.06,6.15-27.37,5.8-56.11-1.05-87.87-5.05-23.38-11.69-47.37-18.11-70.57-3.28-11.84-6.67-24.08-9.78-36l2.23-.38c3.11,11.92,6.5,24.15,9.77,36,6.44,23.23,13.09,47.26,18.15,70.71,6.93,32.13,7.27,61.22,1.06,88.94-6,26.74-13.62,47.17-23.3,62.48q-9,14.31-20.6,22.55" transform="translate(-6337.99 -6349.76)"/><path class="cls-3" d="M7921.81,7057.77a49.43,49.43,0,0,1-22.68,9.08c-14.92,1.92-32.56-3.72-49.62-9.18-2.61-.83-5.32-1.7-8-2.52-31.74-9.85-61.2-5-86.33.27-31.52,6.64-61.85,15.94-93.95,25.78-13.31,4.08-27.08,8.3-40.8,12.26-48.45,14-97.66,25.29-157,38.58-4.84,1.09-9.83,2.18-14.66,3.24-38.94,8.51-79.21,17.32-112,37.22-29.93,18.15-51.71,46.11-63,80.85-10,30.76-11.29,65.45-11.24,95.33,0,3.59,0,7.2,0,10.82.12,22.83.25,46.44-3.13,68.66-4.32,28.42-14.51,55-31.15,81.14s-40.58,49.73-73.26,72.08c-29.9,20.46-64,37.76-91.44,51.67-13,6.6-26.49,13.26-39.51,19.7-45.88,22.69-93.33,46.16-137.93,75-48.86,31.63-94,70.24-146.65,118.48l-1.64-1.88c52.76-48.3,97.94-87,146.91-118.68,44.7-28.94,92.2-52.43,138.14-75.15,13-6.44,26.47-13.09,39.49-19.69,59.27-30.06,126.45-64.12,163.91-123,16.48-25.91,26.57-52.18,30.84-80.29,3.35-22,3.23-45.55,3.1-68.29,0-3.61,0-7.22,0-10.82-.05-30.07,1.26-65,11.35-96.06,11.45-35.22,33.54-63.57,63.88-82,33.08-20.07,73.52-28.91,112.62-37.46,4.82-1.06,9.81-2.15,14.65-3.23,59.26-13.29,108.44-24.56,156.84-38.55,13.7-4,27.46-8.18,40.76-12.26,32.15-9.86,62.52-19.16,94.14-25.83,25.39-5.35,55.18-10.22,87.46-.2,2.64.82,5.35,1.69,8,2.53,16.82,5.37,34.21,10.93,48.64,9.08,16.5-2.12,30.66-12.85,43.28-32.78a175,175,0,0,0,23.35-57.78c8.49-40.27-4.81-91.06-17.67-140.19-3.73-14.26-7.59-29-10.75-43l2.25-.3c3.15,13.92,7,28.64,10.73,42.89,12.94,49.41,26.31,100.5,17.71,141.33a177.16,177.16,0,0,1-23.64,58.49c-6.84,10.81-14.15,19-22,24.62" transform="translate(-6337.99 -6349.76)"/><path class="cls-3" d="M7921.25,7030.26a66.76,66.76,0,0,1-25.35,11.11c-12.15,2.56-26.22.59-39.83-1.3-7.54-1.06-15.35-2.14-22.71-2.44-32.81-1.34-63.23,6.48-96.74,16.06-20.64,5.91-41.78,12.46-62.21,18.8-27.95,8.67-56.86,17.63-86.3,25.52-48.48,13-98.41,23.08-151.26,33.75l-12.47,2.52c-4.25.86-8.62,1.72-12.85,2.55-38,7.48-77.25,15.22-108.16,36.53-27.19,18.72-45.92,47.1-54.21,82-7.2,30.32-6.16,63.56-4,95q.31,4.52.65,9.05c1.69,23.1,3.42,47,1.15,69.59-2.81,27.95-11.88,54-27.72,79.64-16.34,26.43-40.47,49.94-73.79,71.87-30.39,20-65.12,36.49-93,49.74-15.21,7.22-31,14.43-46.3,21.4-44.32,20.2-90.15,41.1-133.11,67.33-44,26.89-88.17,62.51-143.11,115.47l-1.68-1.85c55.06-53.07,99.3-88.76,143.46-115.73,43.06-26.3,88.95-47.22,133.32-67.45,15.28-7,31.07-14.17,46.27-21.38,57.57-27.32,129.2-61.33,166-120.85,15.66-25.36,24.63-51.1,27.41-78.7,2.25-22.39.52-46.17-1.16-69.16-.22-3-.44-6.05-.65-9.06-2.22-31.61-3.26-65.08,4-95.7,8.42-35.47,27.45-64.26,55-83.28,31.26-21.55,70.74-29.33,108.92-36.85,4.22-.83,8.59-1.69,12.84-2.55l12.47-2.52c52.82-10.66,102.71-20.73,151.14-33.71,29.4-7.89,58.28-16.84,86.22-25.51,20.44-6.34,41.58-12.89,62.25-18.8,33.69-9.63,64.28-17.5,97.41-16.15,7.48.3,15.34,1.4,22.94,2.46,13.42,1.87,27.29,3.81,39.08,1.33,32.2-6.76,54.67-36,63.27-82.27,4.22-22.73-.29-49.18-5.26-72-2.11-9.67-4.29-19.47-6.4-28.95-5.37-24.17-10.93-49.15-15.52-73.41l2.27-.21c4.59,24.22,10.14,49.19,15.51,73.33,2.11,9.48,4.29,19.29,6.39,29,5,23.11,9.59,49.87,5.29,73-6.31,33.95-20,58.9-39.51,72.81" transform="translate(-6337.99 -6349.76)"/><path class="cls-3" d="M7152.37,7567.11q-4.74,3.38-9.78,6.7c-33.66,22.15-70.35,39.46-101.81,53.47-17,7.56-34.66,15-51.77,22.2-43.06,18.12-87.58,36.84-129.27,60.82-45.29,26.06-89.61,61.78-139.48,112.41l-1.71-1.81c50-50.76,94.46-86.59,139.91-112.73,41.79-24.05,86.37-42.8,129.48-60.93,17.1-7.2,34.79-14.63,51.74-22.19,31.38-14,68-31.24,101.52-53.32,30.25-19.9,52-41.3,66.59-65.42,15-24.78,22.88-50,24.21-77.05,1.08-22.24-2.13-45.7-5.23-68.39q-.63-4.52-1.23-9c-4.21-31.52-7.44-64.88-2.5-95.31,5.86-36.12,22.22-65.52,47.31-85,32.19-25.05,74.2-32.69,114.83-40.09l.59-.11c16.28-3,32.75-5.81,48.68-8.56,41.42-7.17,80.55-13.93,118.87-22.95,57.08-13.42,111.66-31.21,159.82-46.9l3-1c34.1-11.12,69.36-22.61,105.43-28.07,9.79-1.48,20.21-1.93,30.29-2.37,12.94-.56,26.33-1.13,38.16-3.92,32.32-7.62,54.41-34.78,60.63-74.52,3.14-20.06-1.1-43.55-6.11-67.86-6.66-32.35-13.54-67-18.72-101.39l2.29-.11c5.17,34.31,12,68.94,18.7,101.25,5.06,24.55,9.33,48.28,6.13,68.75-4.49,28.72-17.14,51-35.87,64.39a74.45,74.45,0,0,1-26.3,11.84c-12,2.83-25.52,3.41-38.56,4-10,.43-20.39.88-30.06,2.34-35.9,5.43-71.08,16.9-105.1,28l-3,1c-48.19,15.71-102.82,33.51-160,47-38.38,9-77.54,15.79-119,23-15.92,2.76-32.38,5.6-48.66,8.57l-.59.1c-40.38,7.36-82.14,15-114,39.7-24.67,19.19-40.76,48.13-46.53,83.7-4.89,30.12-1.68,63.26,2.51,94.59.4,3,.81,6,1.22,9,3.12,22.81,6.35,46.39,5.25,68.85-1.34,27.47-9.36,53-24.52,78.11-13.09,21.69-31.94,41.19-57.42,59.36" transform="translate(-6337.99 -6349.76)"/><path class="cls-3" d="M7143.46,7565.27q-8.9,6.33-18.87,12.41c-31,18.86-65.55,33.41-96.07,46.25-18.61,7.82-38.09,15.4-56.93,22.72-41.74,16.22-84.91,33-125.27,54.9-45.69,24.78-90.09,60.57-135.73,109.43l-1.75-1.77c45.79-49,90.35-84.94,136.23-109.83,40.48-21.95,83.7-38.75,125.5-55,18.83-7.32,38.3-14.89,56.88-22.7,60.08-25.27,134.85-56.73,170.27-116.71,14.33-24.27,21.29-48.92,21.28-75.37,0-21.84-4.46-44.68-8.77-66.77-.64-3.32-1.29-6.63-1.92-9.94-7.91-41.43-9.86-75.47-6-104.07,2.21-16.26,6.41-30.92,12.48-43.56a106.63,106.63,0,0,1,26.43-34.8c29.75-25.7,70.59-34.62,106.54-41,26-4.59,52.47-8.34,78.06-12,32.16-4.56,62.54-8.87,92.56-14.74a1286.16,1286.16,0,0,0,150.87-39.32c17.87-5.83,35.64-12.14,52.81-18.25,29.23-10.38,56.83-20.19,85.56-28.08,12-3.29,24.53-5.85,36.65-8.33,12.94-2.65,26.33-5.38,38.71-9,33.59-9.72,54.61-33.89,59.18-68.08,2.48-18.6-1.69-40.51-5.72-61.69l-.76-4c-6.86-36.26-11.9-69.28-15.4-100.94h2.31c3.49,31.59,8.51,64.54,15.36,100.74l.76,4c4.07,21.38,8.28,43.49,5.74,62.49-2.43,18.26-9.41,33.73-20.71,46-10.31,11.15-23.74,19.18-39.91,23.85-12.47,3.61-25.89,6.35-38.87,9-12.09,2.47-24.59,5-36.52,8.3-28.66,7.87-56.23,17.67-85.42,28-17.19,6.11-35,12.43-52.86,18.26a1284.39,1284.39,0,0,1-151.11,39.39c-30.08,5.88-61.9,10.39-92.67,14.76-25.57,3.62-52,7.37-78,12-35.68,6.29-76.21,15.13-105.58,40.5-38.5,33.26-49.06,92.23-32.26,180.3.63,3.3,1.28,6.61,1.92,9.93,4.34,22.21,8.81,45.18,8.82,67.26,0,26.87-7,51.9-21.59,76.52-12.8,21.68-31.31,41.07-56.27,58.88" transform="translate(-6337.99 -6349.76)"/><path class="cls-3" d="M7135.44,7560.89q-10.45,7.45-22.51,14.51c-31.11,18.22-66.34,32.26-97.42,44.64-19.85,7.91-40.72,15.43-60.9,22.69-40.61,14.63-82.6,29.75-121.87,49.86-46.18,23.66-89.3,58.55-131.83,106.66l-1.79-1.74c42.7-48.29,86-83.33,132.42-107.1,39.38-20.17,81.43-35.32,122.1-50,20.17-7.26,41-14.77,60.84-22.67,64.49-25.7,137.6-54.83,172.47-114.63,13.83-23.71,20-47.84,18.76-73.75-1-21.21-6.37-43.18-11.57-64.43-1-3.89-1.94-7.91-2.88-11.85-21.31-89.46-13.49-150.18,23.89-185.64,26.92-25.54,65.83-35.41,100.33-41.7,31.75-5.78,64.43-9.37,96-12.84,23.81-2.62,48.42-5.32,71.84-8.91a1087.45,1087.45,0,0,0,159.86-36.59c33-10.33,64.94-22.34,95.83-34,17.35-6.52,35.28-13.26,52.85-19.49,14.39-5.1,29.13-9.83,43.39-14.4,12.89-4.14,26.22-8.42,38.94-12.86,36.24-12.67,55.55-33.77,59-64.49,1.91-16.79-1.51-36.44-4.82-55.44-.55-3.15-1.12-6.4-1.65-9.57-5.64-33.8-9.66-67.76-11.94-100.93l2.32.1c2.27,33.09,6.28,67,11.9,100.68.53,3.15,1.1,6.41,1.65,9.55,3.34,19.18,6.79,39,4.85,56.15-2.45,21.53-12.39,38.45-30.19,51.14q-12.49,8.92-30.21,15.1c-12.74,4.45-26.09,8.74-39,12.88-14.25,4.57-29,9.29-43.33,14.38-17.55,6.22-35.48,13-52.81,19.48-30.92,11.62-62.89,23.64-95.94,34a1090.38,1090.38,0,0,1-160.17,36.67c-23.46,3.59-48.1,6.29-71.92,8.91-31.57,3.47-64.22,7.06-95.89,12.82-34.21,6.24-72.76,16-99.31,41.18-36.77,34.89-44.4,94.9-23.3,183.46.93,3.93,1.92,7.95,2.87,11.84,5.23,21.37,10.64,43.47,11.64,64.92,1.23,26.38-5,50.91-19.05,75-12.13,20.8-29.76,39.37-53.53,56.33" transform="translate(-6337.99 -6349.76)"/><path class="cls-3" d="M7126.3,7555.83a287.71,287.71,0,0,1-26,16.41c-31.44,17.74-67.11,31.26-98.59,43.19l-.15.06c-20.77,7.88-42.68,15.21-63.86,22.3-39.57,13.24-80.5,26.94-118.73,45.52-46.23,22.47-88,56.55-127.79,104.19l-1.82-1.69c39.94-47.85,82-82.1,128.45-104.7,38.34-18.64,79.33-32.36,119-45.62,21.17-7.09,43-14.41,63.79-22.27l.15-.06c65.51-24.83,139.76-53,174.55-112.36,13.53-23.1,19-46.76,16.77-72.32-1.79-20.42-7.75-41.42-13.52-61.73-1.35-4.76-2.75-9.69-4.06-14.5-24.32-89.12-18.22-153.19,18.11-190.43,23.68-24.27,60-33.7,92.26-40.64,35.52-7.64,73.29-10.51,109.81-13.28,18-1.37,36.54-2.78,54.28-4.74,60.71-6.69,117.11-17.47,167.62-32,53.38-15.39,103.21-35.49,151.4-54.93l6.64-2.68c14.08-5.68,28.3-11.36,42.05-16.85,15.6-6.24,31.74-12.69,47.3-19,29.12-11.78,56.53-27.64,59.95-63.69,1.51-15.83-1.35-34.17-4.12-51.9-.7-4.48-1.42-9.11-2.05-13.58a872.64,872.64,0,0,1-8.32-101.23l2.32.2a869.85,869.85,0,0,0,8.29,100.94c.63,4.45,1.35,9.07,2.05,13.55,2.79,17.88,5.67,36.38,4.14,52.52-1.64,17.33-8.74,31.38-21.7,42.93-11.81,10.53-26.6,17.29-39.51,22.51-15.58,6.3-31.71,12.75-47.32,19-13.74,5.49-28,11.17-42,16.85l-6.64,2.68c-48.24,19.46-98.11,39.58-151.59,55-50.63,14.59-107.15,25.4-168,32.11-17.77,2-36.37,3.37-54.35,4.74-36.45,2.77-74.14,5.63-109.52,13.25-31.94,6.87-68,16.2-91.25,40.08-35.76,36.64-41.68,100-17.61,188.2,1.31,4.81,2.71,9.73,4.06,14.48,5.8,20.43,11.79,41.55,13.61,62.22,2.29,26.07-3.3,50.17-17.07,73.68-11.6,19.8-28.41,37.5-51,53.62" transform="translate(-6337.99 -6349.76)"/><path class="cls-3" d="M7120,7544.7c-8.68,6.19-17.58,11.74-26.16,16.81-29.14,17.25-63.2,32.7-107.21,48.63-21.33,7.72-43.87,14.76-65.67,21.58-38.63,12.07-78.57,24.55-115.85,41.86-46,21.35-86.41,54.76-123.58,102.15l-1.86-1.64a398.71,398.71,0,0,1,57.07-59.65,304.9,304.9,0,0,1,67.23-43.08c37.4-17.36,77.41-29.86,116.1-42,21.78-6.8,44.3-13.84,65.59-21.55,43.88-15.88,77.84-31.28,106.87-48.46,25.31-15,53.41-34,70-61.69,13.45-22.41,18.51-45.64,15.47-71-2.35-19.6-8.55-39.66-14.54-59.06-1.8-5.8-3.65-11.8-5.36-17.65-11.84-40.6-17.14-77.24-15.77-108.9,1.6-36.79,12.3-66.1,31.79-87.1,20.71-22.32,50.33-30.64,84.08-38.51,39-9.09,80.43-11.24,120.47-13.32,12.31-.64,25-1.3,37.35-2.15,66.21-4.59,123.07-13.1,173.83-26,62.09-15.82,118.89-38.7,166.27-59,22.88-9.8,45.52-20.09,67.42-30,9.52-4.33,19.38-8.81,29-13.13,26.2-11.77,58.81-26.43,61.59-65.05,1.1-15.35-1.22-32.78-3.48-49.63-.76-5.72-1.56-11.65-2.19-17.33a762.18,762.18,0,0,1-4.45-101.67l2.32.32a758.68,758.68,0,0,0,4.44,101.33c.63,5.66,1.41,11.57,2.18,17.28,2.27,17,4.61,34.54,3.49,50.14-1.26,17.55-8.58,31.83-22.38,43.66-12.3,10.55-27.89,17.55-40.41,23.18-9.61,4.32-19.47,8.8-29,13.13-21.9,10-44.56,20.25-67.45,30.06-47.45,20.33-104.34,43.25-166.57,59.11-50.88,13-107.86,21.5-174.21,26.09-12.34.85-25.07,1.51-37.38,2.15-40,2.08-81.26,4.23-120.1,13.27-33.42,7.79-62.73,16-83.06,37.92-45.33,48.85-33.48,132.34-15.56,193.78,1.7,5.84,3.55,11.82,5.34,17.62,6,19.51,12.26,39.68,14.64,59.51,3.11,25.94-2,49.65-15.76,72.5-11.18,18.62-27.43,33.35-44.56,45.57" transform="translate(-6337.99 -6349.76)"/><path class="cls-3" d="M7108.66,7537.45a357.64,357.64,0,0,1-30.27,19.08c-29.87,17.11-64.18,32.14-107.94,47.31-21.42,7.42-44.09,14.08-66,20.51-37.84,11.11-77,22.6-113.41,38.93-45.43,20.35-84.42,53.27-119.19,100.65l-1.9-1.59c16.84-22.95,35.14-42.94,54.39-59.42a272,272,0,0,1,65.59-41.87c36.57-16.38,75.76-27.89,113.66-39,21.9-6.43,44.55-13.08,65.92-20.49,43.65-15.12,77.84-30.11,107.61-47.15,25.81-14.78,54.49-33.53,71.47-60.56,13.64-21.71,18.53-44.63,15-70.05-2.64-18.8-8.74-38-14.64-56.58-2.22-7-4.52-14.26-6.58-21.32-11.77-40.34-17.07-78.84-15.34-111.34,2-37.75,13.17-67.88,33.16-89.56s48.48-31,76.11-37.63c42.15-10.13,87.15-11.32,130.67-12.48,6.07-.16,12.35-.32,18.49-.51,71.72-2.19,128.34-8.22,178.19-18.95,54.43-11.73,109.45-30.11,173.15-57.85,28.38-12.36,56-26,82.63-39.09,6.84-3.38,13.92-6.86,20.85-10.25l2.33-1.14c26.29-12.81,59-28.76,61.4-67,.94-15-.92-31.92-2.71-48.25-.75-6.92-1.54-14.07-2.09-20.9a687,687,0,0,1-.49-102.26l2.31.44a684.71,684.71,0,0,0,.49,101.89c.55,6.79,1.33,13.92,2.09,20.82,1.8,16.44,3.66,33.44,2.71,48.68-1.5,24-14.38,39.41-30.25,50.73-10.27,7.32-21.78,12.93-32.29,18.05l-2.33,1.14c-6.93,3.39-14,6.87-20.84,10.24-26.7,13.16-54.3,26.76-82.72,39.14-63.83,27.79-119,46.21-173.54,58-50,10.76-106.71,16.8-178.56,19-6.15.19-12.43.35-18.5.51-43.41,1.15-88.3,2.34-130.24,12.42-27.32,6.57-55.33,15.61-75.1,37.05-49.78,54-32.25,147.64-17.37,198.67,2.05,7,4.35,14.27,6.57,21.26,5.93,18.68,12.06,38,14.73,57,3.65,26-1.35,49.43-15.28,71.6-10.64,16.94-25.76,30.65-41.9,42.16" transform="translate(-6337.99 -6349.76)"/><path class="cls-3" d="M7094.83,7529.54a356.71,356.71,0,0,1-33.88,21c-30,16.67-65.3,31.68-108,45.89-21,7-43.24,13.16-64.75,19.13-37.22,10.34-75.71,21-111.4,36.7-44.57,19.57-82.06,52.22-114.6,99.81l-1.94-1.53c15.77-23.06,33.14-43.05,51.63-59.39a245.45,245.45,0,0,1,63.81-41.13c35.83-15.73,74.39-26.43,111.67-36.79,21.49-6,43.71-12.13,64.66-19.1,42.62-14.17,77.85-29.14,107.7-45.75,26-14.44,55-32.79,72.93-59.34,14.31-21.11,19.51-43.84,15.88-69.49-2.58-18.24-8.3-36.92-13.83-55-2.51-8.21-5.11-16.7-7.35-25-11-40.63-15.22-80.07-12.13-114.05,3.45-37.82,15.5-68.54,35.84-91.3,18.64-20.87,45-30,68.35-36.14,43.52-11.48,88.49-12.16,138.54-11.85,55.18.35,119.78-.71,180.44-11.12,57.69-9.91,116.05-27.69,178.41-54.38,37.77-16.16,73.56-34.93,108.18-53.07l2.21-1.16,4.75-2.48c27.75-14.41,59.21-30.74,61.43-70.15.83-14.9-.53-31.22-1.84-47-.69-8.27-1.41-16.81-1.79-25a619.45,619.45,0,0,1,3.67-102.84l2.3.56a616.81,616.81,0,0,0-3.65,102.44c.38,8.12,1.09,16.65,1.78,24.89,1.32,15.87,2.69,32.28,1.84,47.35-1,18.15-8.16,33.16-21.84,45.91-11.86,11.06-27.18,19-40.69,26l-4.74,2.47-2.21,1.16c-34.65,18.17-70.48,36.95-108.32,53.14-62.51,26.75-121,44.58-178.87,54.52-60.82,10.44-125.54,11.5-180.82,11.15-49.89-.31-94.72.36-138,11.78-23.05,6.08-49.08,15.06-67.37,35.54-38.22,42.78-46.7,116.84-23.27,203.2,2.24,8.23,4.83,16.7,7.34,24.89,5.56,18.17,11.31,37,13.91,55.4,3.71,26.25-1.59,49.51-16.22,71.1-10.5,15.48-24.64,28.2-39.74,39" transform="translate(-6337.99 -6349.76)"/><path class="cls-3" d="M7071.26,7528.78a275.79,275.79,0,0,1-35.28,21.13c-32.39,16.47-68.4,28.28-99.62,38.07-20.21,6.34-41.64,11.86-62.36,17.2-37.43,9.65-76.12,19.63-111.7,35.2-43.48,19-79.4,51.67-109.83,99.78l-2-1.47c14.71-23.26,31.12-43.34,48.79-59.67a223.08,223.08,0,0,1,61.93-40.88c35.72-15.64,74.5-25.63,112-35.3,20.7-5.33,42.1-10.85,62.27-17.17,70.05-22,141.46-48,177.58-102.4,13.88-20.92,19.26-44,16.47-70.44-1.93-18.2-6.46-36.95-10.84-55.08-2.28-9.47-4.65-19.25-6.59-28.77-8.5-41.64-10.08-80.48-4.71-115.45,5.71-37.21,19.09-68.08,39.76-91.75,14-16.05,32.74-26.67,60.71-34.44,36.2-10.05,77.56-13.91,126.44-11.8,62.13,2.69,122.67,4.51,180.37-2.67,60.28-7.5,119.75-23.49,181.81-48.9,43.4-17.76,83.5-39.18,117-57.79l5.37-3c28.72-15.79,61.27-33.68,63.38-75.3.74-14.65-.16-30.39-1-45.61-.57-10-1.16-20.33-1.27-30.2-.42-36.46,2.53-71.19,8.75-103.24l2.28.72c-6.2,31.89-9.13,66.46-8.72,102.75.11,9.82.7,20.13,1.27,30.1.87,15.28,1.77,31.09,1,45.87-2.17,42.84-35.25,61-64.44,77.07l-5.36,2.95c-33.55,18.64-73.72,40.09-117.21,57.9-62.23,25.47-121.88,41.51-182.34,49-57.86,7.2-118.5,5.38-180.73,2.69-48.65-2.1-89.79,1.73-125.78,11.72-27.56,7.66-46,18.09-59.73,33.83-40,45.77-52.25,118.65-34.58,205.24,1.93,9.47,4.29,19.23,6.57,28.67,4.4,18.22,9,37.05,10.89,55.42,2.86,27.05-2.64,50.59-16.82,71.95-10.75,16.21-25.21,30.77-43.75,44" transform="translate(-6337.99 -6349.76)"/><path class="cls-3" d="M7052.82,7521.62c-37.84,27-86.92,43.44-132.46,57.06-20.14,6-41.62,11-62.4,15.81-37.13,8.61-75.53,17.51-110.24,33-42.19,18.84-76.51,51.78-104.92,100.68l-2-1.41c13.67-23.53,29.12-43.81,45.91-60.27a205,205,0,0,1,59.92-41.23c34.89-15.59,73.38-24.51,110.61-33.14,20.75-4.81,42.2-9.78,62.28-15.78,65.57-19.61,138.5-45.08,174.08-99.49,13.63-20.83,19.42-44.47,17.7-72.27-1.09-17.56-4.11-35.74-7-53.31-1.95-11.7-4-23.79-5.36-35.47-5.56-46.66-3.47-88.44,6.21-124.17,9.06-33.41,23.48-62.24,41.69-83.38,13.89-16.11,32.48-27.4,56.85-34.52,37.74-11,79.6-11.58,111.86-10.83,16.54.38,33.52,1.88,49.94,3.33,12.13,1.07,24.67,2.18,36.81,2.81a727.65,727.65,0,0,0,90.91-.64c61.54-4.54,121.42-18.18,183.06-41.7,39.34-15,79.61-34.61,123.1-59.92l4.84-2.8c20.15-11.66,41-23.71,54.54-42.33,7.07-9.72,11-22.71,11.93-39.71.88-15.69.33-32.52-.2-48.8-.43-13.45-.89-27.36-.52-40.43.82-29.1,5.33-59,14.19-94.18l2.24.84c-8.81,35-13.3,64.75-14.11,93.68-.37,13,.08,26.86.52,40.27.53,16.34,1.08,33.22.19,49-1,17.45-5,30.83-12.34,40.89-13.8,19-34.82,31.13-55.15,42.88l-4.83,2.8c-43.59,25.36-83.95,45-123.4,60.06-61.82,23.59-121.89,37.27-183.65,41.84a732,732,0,0,1-91.18.64c-12.18-.63-24.74-1.74-36.9-2.82-16.38-1.44-33.32-2.94-49.79-3.32-32.1-.75-73.75-.21-111.21,10.74-24,7-42.27,18.1-55.9,33.92-18,20.9-32.28,49.44-41.25,82.54-9.61,35.44-11.68,76.91-6.15,123.26,1.39,11.61,3.4,23.68,5.34,35.34,2.94,17.65,6,35.89,7.07,53.59,1.75,28.31-4.15,52.4-18,73.65-11.11,17-25.8,31.18-42.73,43.25" transform="translate(-6337.99 -6349.76)"/><path class="cls-3" d="M7035.92,7512.17a247.88,247.88,0,0,1-28,17.11c-28,14.8-60.86,27.28-103.37,39.25-19.84,5.59-41.22,9.86-61.88,14-37.18,7.42-75.63,15.1-109.65,31-40.82,19.06-74.44,53.59-99.91,102.65l-2.07-1.32c12.42-23.91,26.81-44.55,42.79-61.34a192.36,192.36,0,0,1,58-42.21c34.24-16,72.81-23.68,110.11-31.13,20.63-4.11,42-8.37,61.73-13.94,42.37-11.93,75.09-24.36,103-39.1,31.15-16.47,53.28-35.24,67.64-57.4,23.76-36.66,19.9-84.67,16.16-131.11-1-12.63-2.07-25.68-2.55-38.32-1.77-46.23,3.58-87.8,15.91-123.55,11.68-33.88,27-61.83,45.43-83.06,13.7-15.75,31.92-27.25,54.15-34.17,31.73-9.88,67.66-10.32,98.63-9.44,25.67.73,51.84,3.4,77.15,6,31.72,3.24,64.52,6.6,95.4,5.91,60.42-1.35,121.54-12.59,181.66-33.41A682.21,682.21,0,0,0,7784.76,6968l3.72-2.23c21.59-13,43.91-26.38,58.1-47,7-10.17,10.77-23.82,11.9-43,.87-14.68.78-30.13.7-45.07-.09-16.41-.19-33.39,1-49.2,2.16-28.73,8-57.32,19-92.7l2.21,1c-10.91,35.21-16.73,63.64-18.87,92.19-1.17,15.71-1.08,32.64-1,49,.08,15,.17,30.47-.7,45.23-1.16,19.6-5.07,33.62-12.29,44.11-14.43,21-36.94,34.51-58.71,47.59l-3.72,2.23a684.07,684.07,0,0,1-128.85,60.71,625.72,625.72,0,0,1-87.09,23.4,578.15,578.15,0,0,1-95.2,10.13c-31,.69-63.89-2.67-95.68-5.92-25.27-2.59-51.4-5.26-77-6-30.8-.87-66.51-.44-97.95,9.34-21.87,6.81-39.78,18.11-53.24,33.58-18.29,21-33.44,48.74-45,82.36-12.23,35.48-17.54,76.77-15.79,122.7.48,12.59,1.53,25.62,2.55,38.21,3.77,46.83,7.67,95.26-16.5,132.54-9.8,15.11-23.14,28.66-40.4,41" transform="translate(-6337.99 -6349.76)"/><path class="cls-3" d="M7800.51,6952.59c-8.58,6.11-17.61,11.71-26.52,17.24l-2.7,1.67c-40.36,25.05-85.21,45.18-133.33,59.83-58.62,17.84-118.17,25.68-177,23.28-25.62-1-52.52-4.68-78.54-8.2-28-3.78-56.9-7.68-85-8.55-38-1.17-65.59,1.58-89.36,8.91-20.87,6.44-38.4,17.53-52.1,33-18.35,20.67-34.83,48.6-49,83-14.94,36.31-23.43,76.66-25.24,119.92-.6,14.34-.48,29.44-.37,44,.38,48.38.76,98.4-23.75,136.35-14.53,22.49-36.54,41.59-65.42,56.76-27.43,14.41-60.19,26.39-103.09,37.71-19.71,5.2-40.7,9.35-61,13.37-36.6,7.25-74.44,14.75-108.58,28.85-39.43,16.29-70.85,50.4-96.05,104.28l-2.11-1.24c25.43-54.36,57.19-88.8,97.11-105.29,34.31-14.18,72.26-21.7,109-29,20.26-4,41.22-8.17,60.86-13.35,42.75-11.28,75.37-23.21,102.67-37.55,28.57-15,50.33-33.87,64.67-56.07,24.16-37.4,23.78-87.07,23.4-135.11-.11-14.63-.23-29.75.37-44.16,1.82-43.53,10.37-84.14,25.41-120.7,14.24-34.63,30.85-62.75,49.35-83.6,13.94-15.7,31.77-27,53-33.54,24-7.4,51.77-10.17,90.05-9,28.26.87,57.25,4.79,85.28,8.58,26,3.5,52.81,7.13,78.32,8.17,58.57,2.39,117.88-5.41,176.28-23.19,47.95-14.6,92.65-34.65,132.86-59.61l2.69-1.68c22.95-14.22,46.68-28.93,61.16-51.68,8.77-13.79,11-31.46,12-46.94.9-13.54.92-27.72.94-41.43,0-19.18.07-39,2.53-57.08,3.94-28.94,11.79-58,24.7-91.35l2.16,1.1c-12.84,33.22-20.64,62.09-24.56,90.84-2.44,17.91-2.48,37.66-2.51,56.76,0,13.75-.05,28-.95,41.59-1.05,15.76-3.33,33.79-12.37,48s-21.57,25.3-35.26,35.07" transform="translate(-6337.99 -6349.76)"/><path class="cls-3" d="M7780.37,6956.76c-8,5.73-16.24,10.95-24,15.88-39.27,24.94-85.21,44.26-136.56,57.41-56.76,14.54-114.12,18.67-170.49,12.26-18-2-36.56-4.89-54.5-7.65-32.69-5-66.5-10.22-99.45-11-23.83-.56-54.75-.15-82.5,8.06a109.9,109.9,0,0,0-50.24,31.45c-18.92,20.54-35.76,47.32-53,84.28a395.84,395.84,0,0,0-34,116.31c-2.22,16.95-3.41,35.1-4.56,52.66-3.21,48.82-6.53,99.31-31.51,137.25-15.49,23.55-37.13,42.6-64.29,56.62-26.65,13.75-58.82,25-101.24,35.29-18.52,4.51-38.22,8.07-57.27,11.52-37.22,6.73-75.71,13.69-110,28.23-39.49,16.73-69.89,51.57-92.92,106.49l-2.14-1.16c23.25-55.44,54-90.63,94-107.58,34.53-14.63,73.13-21.61,110.46-28.36,19-3.44,38.69-7,57.15-11.48,42.26-10.29,74.29-21.45,100.79-35.13,26.86-13.87,48.24-32.69,63.54-55.94,24.66-37.46,28-87.65,31.15-136.18,1.16-17.59,2.36-35.78,4.58-52.81a398,398,0,0,1,34.19-117c17.33-37.15,34.29-64.1,53.35-84.8a111.84,111.84,0,0,1,51.14-32c28-8.3,59.17-8.71,83.16-8.15,33.09.78,67,6,99.74,11,17.92,2.75,36.45,5.6,54.4,7.64,56.11,6.37,113.21,2.26,169.71-12.21,51.15-13.1,96.9-32.33,136-57.17,36.54-23.21,78-49.52,76.07-107.46-1.43-44.07.49-75.89,6.25-103.15,6.2-29.41,16.48-58.91,31.41-90.2l2.1,1.25c-14.86,31.13-25.08,60.48-31.25,89.71-5.71,27.07-7.62,58.7-6.19,102.57.86,26.4-7,48.72-24.14,68.22-8.42,9.61-18.51,17.88-28.89,25.28" transform="translate(-6337.99 -6349.76)"/><path class="cls-3" d="M7764.7,6957.56c-7.44,5.31-15.05,10.21-22.36,14.93l-.86.55c-38.4,24.77-84.92,42.77-138.26,53.52-52.55,10.6-107.31,11-162.74,1.25-52-9.15-98.8-16.84-145-18.08-45.49-1.22-92.09,2.32-124.71,36.21-24.8,25.76-43.52,59.42-57.05,85.87-19.6,38.31-33.29,75.7-41.84,114.33-4.27,19.29-7.25,40.15-10.12,60.32-6.86,48.11-13.95,97.85-39.15,136.19a165.46,165.46,0,0,1-65.1,57.86c-25.59,12.8-56.7,23-97.91,32.12-17.27,3.83-35.61,6.81-53.34,9.7-37.92,6.17-77.14,12.55-111.69,27.7-39.86,17.49-69.42,53.31-90.36,109.52l-2.17-1.08c9.83-26.4,21.85-48.74,35.71-66.42,15.73-20,34.48-34.93,55.72-44.25,34.79-15.26,74.14-21.66,112.19-27.85,17.7-2.88,36-5.86,53.22-9.67,41.05-9.09,72-19.24,97.44-32a163.56,163.56,0,0,0,64.33-57.17c24.94-37.94,32-87.43,38.81-135.3,2.88-20.21,5.86-41.11,10.15-60.49,8.6-38.81,22.35-76.38,42-114.85,13.59-26.58,32.41-60.41,57.39-86.37,14.87-15.44,33.52-25.71,57-31.39,18.74-4.54,40.09-6.21,69.22-5.43,46.41,1.25,93.3,9,145.39,18.12,55.15,9.71,109.63,9.3,161.92-1.24,53.1-10.7,99.38-28.62,137.56-53.24l.87-.56c24.11-15.54,51.43-33.17,65.2-60.46,7.72-15.31,7.4-34,6.06-50.34-2.94-35.89,1-71.9,12.18-110.08,8.76-30,21.51-59.22,39-89.25l2,1.4c-17.38,29.88-30.07,58.92-38.78,88.78-11.05,37.9-15,73.62-12.09,109.21,1.36,16.63,1.68,35.77-6.29,51.57-9.8,19.44-26.23,34-43.55,46.33" transform="translate(-6337.99 -6349.76)"/><path class="cls-3" d="M7747.6,6958.19c-6.65,4.74-13.44,9.16-20,13.42l-.8.52c-37.41,24.36-84.06,40.65-138.66,48.41-52.95,7.54-107.58.35-154-7.67s-91.94-15.36-137.05-17c-40.15-1.44-85.49,1.29-117.3,32.42-25.05,24.51-44.14,56.56-61.05,87.54-21.16,38.79-37.1,76-48.73,113.82-6.42,20.85-11.47,43.56-16.36,65.53-10.49,47.17-21.33,95.94-46.75,134.59-17.65,26.84-40,46.93-66.4,59.73-24.89,12.06-54.09,21-94.65,29-15.9,3.15-32.62,5.62-48.79,8-38.59,5.7-78.48,11.59-114.18,27.24-39.61,17.36-69.33,55.52-88.33,113.41l-2.21-1c19.2-58.47,49.29-97,89.44-114.64,35.95-15.76,76-21.67,114.71-27.39,16.14-2.39,32.84-4.85,48.68-8,40.39-8,69.43-16.89,94.17-28.88,26.08-12.63,48.15-32.49,65.6-59,25.2-38.32,36-86.9,46.45-133.87,4.9-22,10-44.77,16.4-65.71,11.68-37.94,27.67-75.3,48.91-114.22,17-31.12,36.17-63.32,61.4-88,32.35-31.66,78.22-34.44,118.82-33,45.24,1.62,90.78,9,137.35,17,46.28,8,100.69,15.15,153.34,7.66,54.3-7.73,100.68-23.91,137.84-48.11l.8-.52c24.07-15.66,51.35-33.42,63-61.76,4.9-11.91,3.28-26.86,1.57-42.68-.25-2.29-.51-4.67-.74-7-4.4-44.24,8.06-83.07,20.09-116a388,388,0,0,1,47.84-91.25l1.92,1.56a386.06,386.06,0,0,0-47.58,90.76c-11.94,32.68-24.31,71.22-20,114.95.23,2.32.48,4.69.73,7,1.75,16.14,3.4,31.39-1.72,43.83-8.69,21.14-25.74,36.41-43.78,49.28" transform="translate(-6337.99 -6349.76)"/><path class="cls-3" d="M7726.35,6960.24c-5.54,4-11.31,7.75-17.16,11.51-36,23.11-83.63,37.33-137.79,41.12-48.1,3.36-99.49-5.58-153.9-15-38.76-6.74-78.83-13.71-117.69-15.85-19.61-1.07-40.41-1.58-59.71,1.93-17.84,3.25-34.91,12.22-50.75,26.67-56.86,51.86-93.77,136-119.58,203.56-8.12,21.27-15.19,44.35-22,66.68-14.25,46.53-29,94.64-55,134-18.89,28.6-40,48.39-64.44,60.48s-54,20.74-95.28,27.87c-14.36,2.48-29.35,4.45-43.85,6.36-40,5.26-81.33,10.7-118.16,27.47-39.91,18.17-68.89,57.78-86.14,117.73l-2.23-.91c8-27.74,18.72-51.57,31.92-70.82,15.23-22.22,33.85-38.44,55.33-48.22,37.11-16.89,78.61-22.36,118.75-27.64,14.47-1.9,29.44-3.87,43.76-6.34,41.11-7.1,70.33-15.64,94.72-27.69,24.15-11.94,45-31.5,63.66-59.8,25.84-39.13,40.52-87.09,54.72-133.47,6.84-22.36,13.92-45.49,22.07-66.82,17.52-45.86,33.7-81.65,50.93-112.65,21.67-39,44.3-69,69.18-91.71,16.13-14.7,33.53-23.84,51.75-27.15,19.52-3.55,40.47-3,60.21-2,39,2.14,79.14,9.12,118,15.87,54.27,9.44,105.53,18.36,153.36,15,53.81-3.76,101.12-17.87,136.82-40.79,25.52-16.39,49.31-33.42,60.11-61.49,3.54-9.2,1.46-22.09-.54-34.55-.91-5.64-1.76-11-2.14-16-3.61-48.23,12.6-90.71,28.92-125.9,14.69-31.67,33.8-61.21,58.4-90.29l1.82,1.7c-24.49,28.94-43.5,58.32-58.11,89.82-16.2,34.93-32.28,77.07-28.72,124.75.37,4.93,1.22,10.2,2.11,15.78,2.06,12.79,4.19,26,.42,35.79-8.51,22.15-24.84,37.49-43.73,51" transform="translate(-6337.99 -6349.76)"/><path class="cls-3" d="M7706,6960.36c-5.93,4.22-12,8.07-18,11.69-34.27,20.89-80.54,31.48-133.82,30.63-33.48-.53-70-7.13-105.4-13.5-9.21-1.66-18.72-3.38-28-5-37.3-6.34-77.37-12.71-117.63-16.35-19.44-1.75-36.86-3-53.3-.61s-33.11,10.85-50.87,25.79c-57.72,48.57-95.14,132.39-128.15,206.34-9,20.1-17.45,41.64-25.66,62.47-18.33,46.54-37.29,94.67-64.64,135.73-21.15,31.74-42.39,52-66.86,63.82-30.35,14.65-65.24,21.07-92.25,25-10.7,1.57-21.74,3-32.41,4.34-43.82,5.59-89.12,11.37-129.44,30.06-40.8,18.91-69.16,59.76-84.29,121.41l-2.25-.83c15.29-62.31,44-103.62,85.41-122.8,40.6-18.82,86.07-24.62,130-30.23,10.66-1.36,21.69-2.77,32.37-4.33,26.86-3.94,61.56-10.33,91.66-24.85,24.13-11.65,45.12-31.71,66.06-63.14,27.23-40.87,46.15-88.89,64.44-135.33,8.22-20.85,16.71-42.41,25.7-62.56,33.1-74.15,70.62-158.2,128.7-207.06,18.05-15.19,35-23.77,51.87-26.24,16.67-2.44,34.24-1.17,53.82.6,40.33,3.64,80.45,10,117.8,16.36,9.33,1.59,18.85,3.31,28.06,5,35.27,6.36,71.75,12.93,105,13.46,52.88.84,98.77-9.64,132.71-30.33,22.61-13.78,47.46-30.87,56.12-59.46,2.68-8.84.55-21.12-1.5-33-1.29-7.42-2.5-14.43-2.65-20.75-.56-24.41,3.56-48.61,12.6-74,7.9-22.18,18.59-42.46,29-61.07a410.33,410.33,0,0,1,66.88-89.64l1.71,1.82a407.61,407.61,0,0,0-66.55,89.19c-20.61,37-42.5,80.88-41.28,133.88.14,6.13,1.34,13.05,2.61,20.37,2.1,12.17,4.27,24.74,1.44,34.12-6.58,21.69-22.11,36.85-39,48.93" transform="translate(-6337.99 -6349.76)"/><path class="cls-3" d="M7685.26,6959a152.62,152.62,0,0,1-20.17,12c-17.45,8.75-37.57,14.68-59.79,17.63-21.06,2.8-44.1,2.93-68.47.4-44.36-4.6-89.25-12.3-136.77-20.45-30.53-5.24-62.11-10.66-93.34-15.14l-2.84-.4c-15-2.17-30.57-4.41-44.87-2.85-19.38,2.11-35.73,13.89-50.82,25.77-32.21,25.37-55.7,61.82-76.28,97.42-22.69,39.24-43.47,80.38-59,111.84-6.62,13.39-13.3,27.27-19.76,40.68-24.65,51.21-50.15,104.15-82.62,151.95-17.74,26.09-38.19,52.24-67.53,66.7-26.8,13.22-58.48,19-91.29,24.17-10,1.58-20.36,3.06-30.37,4.5-45,6.43-91.46,13.09-132.64,32.05-41.35,19-68.48,59.81-82.94,124.63l-2.26-.78c6.82-30.6,16.11-55.2,28.39-75.22,14.31-23.31,33-40.42,55.68-50.85,41.45-19.08,88.1-25.76,133.21-32.22,10-1.43,20.34-2.91,30.34-4.5,32.65-5.16,64.16-10.89,90.71-24,28.92-14.26,49.17-40.17,66.75-66,32.39-47.67,57.85-100.54,82.47-151.68,6.46-13.42,13.15-27.3,19.78-40.7,15.58-31.49,36.37-72.67,59.09-112,20.69-35.78,44.31-72.41,76.79-98,15.31-12.06,31.92-24,51.85-26.19,14.57-1.59,30.26.67,45.42,2.86l2.84.41c31.26,4.48,62.86,9.9,93.41,15.14,47.48,8.15,92.33,15.84,136.62,20.44,49.6,5.14,93.55-1,127.09-17.83,29.86-15,46.55-33.18,51-55.68,1.92-9.74.24-21.89-1.39-33.64-1.21-8.77-2.47-17.84-2.22-25.91,1.72-56.84,26.15-99.13,53.21-141,22.87-35.38,48.85-65.63,77.22-89.91l1.58,1.93c-28.22,24.15-54.07,54.26-76.83,89.47-26.89,41.61-51.16,83.61-52.87,139.86-.24,7.86,1,16.83,2.21,25.49,1.65,11.95,3.37,24.31,1.36,34.45-3.46,17.44-14,32.35-31.92,45.16" transform="translate(-6337.99 -6349.76)"/><path class="cls-3" d="M7662.07,6955.1a103.05,103.05,0,0,1-20.81,11.25c-37.32,15.29-81,12.9-122.55,8-63-7.36-133.21-19.39-208.63-35.73l-4.37-1c-13.55-3-26.35-5.8-38.72-4.94-19.86,1.39-36.28,14.5-50.77,26.07l-.3.24c-53.32,42.56-88.12,110.61-121.78,176.43-6.06,11.84-12.32,24.09-18.61,36l-.48.9c-33.27,63.2-67.68,128.55-112.28,186.77-18.92,24.71-40.37,52.72-70.74,68-27.14,13.62-59.78,20.44-88.25,25.77-13.89,2.61-28.4,4.86-42.43,7-41.69,6.47-84.8,13.16-123.2,30.33-43.1,19.26-70.72,62.08-82.09,127.27l-2.28-.67c11.49-65.93,39.51-109.28,83.26-128.83,38.65-17.28,81.9-24,123.73-30.48,14-2.17,28.5-4.42,42.36-7,28.33-5.3,60.8-12.09,87.71-25.59,30-15,51.26-42.85,70.06-67.39,44.48-58.09,78.85-123.36,112.09-186.48l.48-.9c6.28-11.94,12.54-24.18,18.6-36,16.9-33.05,34.38-67.23,53.93-97.71,21.92-34.19,44.29-60.15,68.38-79.38l.3-.24c14.72-11.75,31.41-25.07,51.91-26.5,12.69-.88,26.24,2.1,39.35,5l4.37.95c75.34,16.33,145.46,28.34,208.4,35.7,41.31,4.83,84.61,7.22,121.5-7.89,27.27-11.17,42.47-28.12,45.16-50.37,1.25-10.35,0-22-1.22-33.36-1.1-10.31-2.24-21-1.51-30.71,2.1-27.94,9.92-54.72,23.9-81.86,12.53-24.34,28.22-45.69,42.07-64.52,27.63-37.59,56.33-67,87.75-90l1.47,2c-31.25,22.84-59.82,52.14-87.32,89.56-28.53,38.8-60.85,82.78-65.56,145.24-.71,9.51.42,20.06,1.51,30.26,1.22,11.45,2.49,23.29,1.21,33.91a55.17,55.17,0,0,1-16.54,33.23,74.23,74.23,0,0,1-9.06,7.59" transform="translate(-6337.99 -6349.76)"/><path class="cls-3" d="M7637.18,6947.74a73.94,73.94,0,0,1-20.39,9.9c-35.47,11.3-78.81,7.14-116.64,2.35-60-7.6-123.83-16.67-187.25-36.58l-3-1c-12.72-4-24.75-7.82-36.53-7.42-19.42.65-35.45,13.81-49.61,25.42l-2.15,1.77c-52.66,43.06-85.7,106.43-120.67,173.52-7.27,13.92-14.77,28.32-22.42,42.42-31.49,58.08-70.53,125.58-121.33,185.87l-1.32,1.56c-16.94,20.11-34.36,40.79-55.71,56a138.64,138.64,0,0,1-15.21,9.47c-27.64,14.75-59.9,22.55-87.8,28.23-17,3.47-34.94,6.19-52.28,8.82-39.45,6-80.25,12.18-116.81,27.7-44.69,19-72.18,62.51-81.7,129.41l-2.29-.61c9.63-67.69,37.53-111.78,82.91-131,36.8-15.63,77.73-21.84,117.31-27.84,17.32-2.63,35.22-5.35,52.17-8.8,27.77-5.66,59.84-13.41,87.25-28,28.29-15.09,49.67-40.47,70.35-65l1.31-1.56c50.68-60.15,89.66-127.54,121.1-185.52,7.64-14.08,15.14-28.48,22.4-42.4,35.07-67.28,68.2-130.82,121.18-174.15l2.16-1.76c14.39-11.82,30.71-25.21,50.83-25.88,12.17-.41,24.38,3.45,37.3,7.53l3.05,1c63.23,19.85,127,28.91,186.83,36.49,37.61,4.76,80.66,8.91,115.72-2.27,17.15-5.46,38-17.8,39.65-45.55.59-9.67-.37-20.2-1.29-30.37-1.08-11.8-2.19-24-.92-35,3.6-31.14,16.9-56.52,30.22-79.86a512.28,512.28,0,0,1,49.19-70.88c31.92-39,64.08-68.32,98.32-89.74l1.35,2.1c-34.05,21.3-66.06,50.52-97.83,89.32a509.07,509.07,0,0,0-49,70.59c-13.21,23.14-26.4,48.3-29.94,79-1.25,10.79-.15,22.86.91,34.52.94,10.27,1.91,20.9,1.3,30.76-1.1,18.06-9.9,29.85-20.67,37.54" transform="translate(-6337.99 -6349.76)"/><path class="cls-3" d="M7610.5,6937.36c-5.29,3.77-11.86,6.72-19.9,9-32.1,8.93-69.93,4.94-109.13-.34l-4.24-.57c-50.58-6.79-107.91-14.49-162.36-37.66l-.11-.05c-13.2-5.62-25.67-10.93-37.9-10.5-19.73.68-36,14.5-50.33,26.69l-1.95,1.65c-30.94,26.23-56.92,58.46-79.42,98.54-12,21.45-23.73,44.18-35,66.15-9.27,18-18.84,36.61-28.74,54.8-42.13,77.42-82.88,136.79-128.23,186.82l-2.36,2.6c-21.1,23.3-42.92,47.39-70.43,62.8-23,12.88-51.29,22.54-89,30.41-19.53,4.07-40.34,6.88-60.47,9.6-38.09,5.15-77.48,10.48-112.74,24.6-46.42,18.58-73.86,62.68-81.56,131.08l-2.3-.54c3.61-32.11,11.75-59.34,24.18-80.94,14.07-24.47,33.8-41.92,58.64-51.86,35.5-14.22,75-19.56,113.23-24.72,20.1-2.72,40.87-5.53,60.33-9.59,37.49-7.82,65.58-17.41,88.41-30.19,27.23-15.25,48.94-39.22,69.93-62.4l2.36-2.6c45.24-49.91,85.9-109.15,127.95-186.43,9.88-18.16,19.46-36.76,28.71-54.75,11.32-22,23-44.73,35.09-66.22,22.62-40.29,48.74-72.7,79.87-99.09L7225,6922c14.59-12.4,31.13-26.46,51.57-27.17,12.74-.44,25.45,5,38.91,10.69l.11.05c54.15,23,111.3,30.72,161.73,37.5l4.25.57c38.95,5.24,76.55,9.21,108.26.39,23.35-6.5,34.69-19.67,34.66-40.25,0-7.68-.47-15.64-.91-23.33-.84-14.64-1.7-29.77.51-43.22,5.42-33,22.11-58.58,36.83-81.19a573.35,573.35,0,0,1,56.27-72.46c36.52-40.31,72.07-69.44,108.69-89.06l1.24,2.17c-36.42,19.51-71.8,48.5-108.16,88.64a571,571,0,0,0-56.07,72.21c-14.61,22.43-31.17,47.85-36.51,80.34-2.17,13.19-1.32,28.19-.49,42.69.45,7.73.9,15.73.91,23.47,0,11.85-3.66,21.56-10.94,28.87a41.66,41.66,0,0,1-5.31,4.49" transform="translate(-6337.99 -6349.76)"/><path class="cls-3" d="M7580,6926.74a49.7,49.7,0,0,1-17,7.44c-29.64,7.33-64.21,3.38-100-1.7-46-6.53-98.19-13.93-147.29-40.8-14.38-7.87-25.64-12.68-37.27-12.32-20.69.64-37.55,15.41-52.42,28.44l-1.54,1.34c-30.93,27.06-56.35,59.5-77.73,99.2-10.86,20.19-21.4,41.52-31.59,62.15-10,20.26-20.35,41.21-31.23,61.57-41.14,76.95-84.82,139.14-133.55,190.14l-.77.81c-18,18.85-36.51,38.22-57.81,53.41a181.68,181.68,0,0,1-15.87,10.16c-23.94,13.58-53.24,23.77-89.57,31.15-21.6,4.39-44.79,6.94-67.22,9.41-37.33,4.1-75.92,8.34-110.67,21.12-47.4,17.42-75.59,63.21-81.54,132.41l-2.31-.48c2.82-32.8,10.55-60.56,23-82.51,14.08-24.87,34.23-42.27,59.89-51.7,35-12.86,73.72-17.12,111.17-21.24,22.38-2.46,45.53-5,67-9.38,36.11-7.33,65.22-17.45,89-30.92,28-15.88,51-39.95,73.22-63.22l.78-.81c48.6-50.86,92.17-112.91,133.22-189.69,10.87-20.33,21.21-41.26,31.2-61.5,10.2-20.65,20.74-42,31.63-62.23,21.49-39.91,47.06-72.55,78.17-99.76l1.54-1.35c15.13-13.25,32.27-28.27,53.71-28.93,13.47-.41,26.93,6.3,38.49,12.62,48.7,26.65,100.63,34,146.46,40.53,35.56,5,69.9,9,99.16,1.74,20-4.95,30.2-17.4,30.36-37,0-5.67-.07-11.59-.18-17.31-.32-17.07-.66-34.72,3-49.73,8-32.83,26.45-58.09,42.69-80.37a650.68,650.68,0,0,1,63.89-74.51c41.62-42,79.34-69.87,118.69-87.85l1.13,2.23c-39.14,17.87-76.67,45.65-118.11,87.44A650.38,650.38,0,0,0,7640,6749c-16.12,22.13-34.4,47.2-42.34,79.62-3.61,14.72-3.27,32.21-2.95,49.12.11,5.74.22,11.67.18,17.38-.12,14.07-5.11,24.65-14.87,31.62" transform="translate(-6337.99 -6349.76)"/><path class="cls-3" d="M7548.29,6915.79a38.52,38.52,0,0,1-13.48,5.89c-26.89,6.53-57.83,2.72-89.82-2.12-24.45-3.7-52.84-8.49-80.4-18.49-15.08-5.47-31.25-13.9-49.45-25.79-14.94-9.76-27.08-14.05-38.2-13.48-23,1.17-41.46,17.89-56.28,31.32-25.91,23.5-49.12,54.3-69,91.57-12.23,23-23.89,47.59-35.17,71.4-9.84,20.79-20,42.28-30.76,63.12-40.95,79.4-85.88,143.33-137.37,195.44-24.44,24.74-48.73,48.25-77.06,64.06-24.61,13.72-54.73,24-89.55,30.57-23.29,4.39-48.42,6.36-72.72,8.26-37.1,2.91-75.47,5.92-110.19,17.46-62,20.61-78.61,83.93-81.6,133.42L6515,7568c3-50.15,19.89-114.33,83-135.3,35-11.62,73.45-14.64,110.68-17.56,24.25-1.9,49.32-3.86,72.5-8.23,34.6-6.53,64.52-16.74,88.93-30.35,28.11-15.68,52.28-39.09,76.62-63.72,51.34-52,96.15-115.73,137-194.94,10.73-20.81,20.9-42.29,30.73-63.06,11.29-23.83,22.95-48.47,35.21-71.48,20-37.48,43.32-68.48,69.4-92.13,15.06-13.65,33.79-30.63,57.54-31.84,11.64-.59,24.23,3.83,39.64,13.89,18,11.78,34,20.13,48.92,25.53,27.35,9.92,55.61,14.68,79.95,18.37,31.76,4.81,62.46,8.59,89,2.15,16.92-4.1,25.36-15.72,25.81-35.53.52-23.06,1.59-47.27,8.24-67.62,10.55-32.26,31.1-57.56,49.23-79.88a730.85,730.85,0,0,1,70.2-74.65c21.56-20,41.35-36.17,60.52-49.47,22.8-15.82,44.91-27.77,67.6-36.56l1,2.27c-41.72,16.15-81,42.56-127.5,85.64a728.78,728.78,0,0,0-70,74.43c-18,22.19-38.44,47.33-48.86,79.21-6.56,20.06-7.61,44.07-8.13,66.95-.34,14.79-4.9,25.26-13.89,31.67" transform="translate(-6337.99 -6349.76)"/><path class="cls-3" d="M6891,7357.8a227.35,227.35,0,0,1-21.68,13.77c-25.91,14.37-56.85,24.62-91.95,30.46-24.69,4.11-51.41,5.24-77.25,6.33-37.28,1.57-75.82,3.19-110.88,13.58-64,19-79.72,83.48-81.62,134.24l-2.31-.35c1.27-34.11,8.2-62.82,20.59-85.34,14.11-25.65,35.13-42.76,62.49-50.87,35.3-10.47,74-12.1,111.38-13.67,25.77-1.09,52.43-2.21,77-6.3,34.87-5.8,65.59-16,91.3-30.23,29.8-16.53,55.39-40.9,77-62.45,53.37-53.12,99-119.13,139.37-201.8,11.48-23.47,22.11-47.79,32.39-71.31,9.62-22,19.56-44.72,29.94-66.14,19.28-39.77,40.22-69.9,64-92.09,15.88-14.81,35.5-30.37,60.67-33.43,12.65-1.53,27.8,3.62,42.67,14.53l4,2.94c12.41,9.14,25.24,18.59,38.35,25,23.8,11.61,49.3,16.51,71.33,20.18,26.58,4.44,54.52,8.25,78.29,2.08,13.88-3.6,21-15,21.77-34.88,1-24.6,6.08-48.6,14.82-69.41,13.27-31.61,34.72-55.59,55.45-78.78a808.76,808.76,0,0,1,75.77-74.13c34.26-29.41,80.78-65.49,136.8-83.56l.9,2.31c-55.68,18-102,53.89-136.11,83.18a805.89,805.89,0,0,0-75.58,73.94c-20.62,23.07-42,46.92-55.09,78.21-8.63,20.56-13.7,44.28-14.64,68.6-.61,15.68-5,26.38-13.46,32.39a29.65,29.65,0,0,1-9.84,4.47c-24.17,6.28-52.38,2.44-79.2-2-22.2-3.7-47.9-8.64-72-20.4-13.33-6.51-26.25-16-38.76-25.24l-4-2.95c-14.34-10.52-28.89-15.51-40.95-14-24.6,3-43.9,18.3-59.53,32.89-23.61,22-44.4,52-63.56,91.5-10.37,21.38-20.3,44.09-29.91,66.06-10.29,23.54-20.93,47.88-32.43,71.39-40.51,82.88-86.23,149.07-139.76,202.36-16.31,16.24-34.86,34.07-55.79,49" transform="translate(-6337.99 -6349.76)"/><path class="cls-3" d="M6892,7350.62a239.63,239.63,0,0,1-25.54,16c-26.87,14.45-58.35,24.25-93.56,29.1-25.78,3.55-53.69,3.64-80.68,3.72-37.83.11-76.94.23-112.65,9.6-51.7,13.57-80.67,61.48-81.55,134.92l-2.32-.3c.42-34.64,6.93-63.79,19.34-86.64,14.14-26,35.58-42.93,63.73-50.32,36-9.44,75.23-9.55,113.19-9.67,26.92-.08,54.75-.16,80.39-3.7,35-4.82,66.21-14.53,92.87-28.88,30.67-16.49,56.8-40.58,78.31-62,55-54.72,101-123.4,140.38-210,12.71-27.92,24-57,35-85.13,7.11-18.23,14.45-37.08,22-55.08,15.93-38.09,35.15-67.9,58.76-91.15,16.27-16,32.3-26.82,47.65-32.11,22.28-7.67,43.41-4,62.81,10.95,4.74,3.65,9.52,7.62,14.13,11.46,9,7.44,18.22,15.14,27.69,20.87,19.35,11.72,40.06,16.89,59.55,20.73,21.91,4.33,47.1,7.93,67.71,1.91,14.64-4.28,17.47-20.29,19-35,2.45-24,9.73-48.13,21.64-71.75,14.43-28.61,34.51-55.57,61.41-82.44,23.7-23.66,49.43-44.17,74.32-64l5.87-4.69c39-31.15,86.71-65.07,144.51-80.42l.8,2.34c-57.44,15.25-104.91,49-143.77,80.05l-5.88,4.69c-48.34,38.53-103.13,82.21-135.18,145.77-11.78,23.38-19,47.26-21.41,71-1.3,12.73-3.58,26.43-13.34,33.39a23.24,23.24,0,0,1-7.08,3.38c-21.05,6.16-46.56,2.51-68.75-1.86-19.71-3.89-40.66-9.13-60.36-21.05-9.64-5.83-19-13.6-28-21.11-4.6-3.82-9.35-7.77-14.06-11.39-32.05-24.68-68.23-17.58-107.52,21.11-23.41,23.06-42.48,52.65-58.3,90.48-7.52,18-14.86,36.81-22,55-11,28.15-22.32,57.26-35.06,85.24-18.45,40.53-38.86,78-60.66,111.3-24.37,37.25-51.33,70.65-80.13,99.27-15.39,15.3-33.14,32-53.23,46.31" transform="translate(-6337.99 -6349.76)"/><path class="cls-3" d="M6892.83,7345a238.32,238.32,0,0,1-30.41,18.45c-27.2,13.81-59,22.77-94.41,26.62-26.88,2.92-56,1.82-84.08.75-38.32-1.45-78-2.95-114.31,5.33-71.56,16.29-81.61,91.94-81.23,135.59l-2.32-.25c-.3-35.21,5.76-64.78,18-87.87,14.08-26.48,35.87-43.25,64.78-49.83,36.63-8.34,76.4-6.83,114.86-5.38,28.05,1.07,57.05,2.17,83.77-.74,35.19-3.82,66.72-12.71,93.71-26.4a238.38,238.38,0,0,0,38.4-24.46,438.44,438.44,0,0,0,42-37.73c56-56.5,103.11-130.23,140-219.16,10.61-25.55,19.5-52.55,28.1-78.67,6.94-21.07,14.11-42.87,22-63.2,14.3-36.87,33.34-67.7,56.59-91.62,11.19-11.51,28.94-26.74,50-33.92,23.29-8,45.33-4.37,65.5,10.62,7.11,5.29,14,11.66,20.57,17.83,6.3,5.87,12.82,11.94,19.56,17.07,14.33,10.9,30.91,18.41,52.19,23.63,24.14,5.91,43,6.55,57.8,1.94,11.55-3.6,13.82-16.58,16-29.12.36-2.1.75-4.27,1.16-6.36,5.11-25.53,14.55-50.05,28.85-75,37.32-65,96.91-109.57,149.48-148.88l.64-.47c41.07-30.71,91.14-63.82,151.08-76.57l.7,2.36c-59.56,12.67-109.4,45.64-150.3,76.21l-.63.48c-52.42,39.19-111.83,83.61-148.94,148.27-14.19,24.72-23.54,49-28.6,74.32-.42,2.06-.8,4.21-1.16,6.3-2.31,13.17-4.71,26.79-17.42,30.76-15.14,4.72-34.43,4.09-59-1.92-21.63-5.3-38.51-13-53.13-24.08-6.85-5.22-13.42-11.33-19.77-17.25-6.56-6.11-13.35-12.44-20.33-17.63-45.48-33.81-90.05,0-112.58,23.19-23.06,23.73-41.95,54.32-56.15,90.93-7.86,20.27-15,42-22,63.09-8.61,26.15-17.51,53.2-28.15,78.83-37,89.17-84.29,163.13-140.47,219.82a443.78,443.78,0,0,1-42.16,37.9q-4.11,3.19-8.32,6.2" transform="translate(-6337.99 -6349.76)"/><path class="cls-3" d="M6895,7339.15a219.07,219.07,0,0,1-35.86,20.72c-27.82,12.75-61.17,20.48-99.12,23-30.09,2-63.36,1.63-101.69-1.05l-1-.07c-32.71-2.29-66.54-4.66-97.93,1.5-73.14,14.35-81.91,91.57-80.63,136.32l-2.31-.19c-1-35.23,4.75-66,16.65-89.05,14-27,36-43.65,65.62-49.45,31.67-6.21,65.65-3.83,98.5-1.53l1,.07c38.23,2.67,71.4,3,101.4,1,37.69-2.47,70.79-10.14,98.38-22.79a216.85,216.85,0,0,0,37.51-22c13.45-9.83,26.89-21.9,43.56-39.14,57.49-59.46,104-136.55,138.32-229.15,9.09-24.53,16.61-50.33,23.88-75.27,6.38-21.89,13-44.52,20.5-65.72,14-39.39,32-70.47,55.15-95,25.36-26.91,66.2-52.94,116.73-24.1,11.64,6.64,21.85,16.52,31.71,26.07,3.36,3.25,6.84,6.62,10.31,9.79a125.56,125.56,0,0,0,46.27,27.29c19.09,6.16,36,7,48.93,2.39,10-3.55,12.52-15.44,15-26.94.72-3.35,1.46-6.81,2.38-9.94a318.33,318.33,0,0,1,35.58-78.86c18.21-29.31,41.05-52.54,69.74-78.41a926.62,926.62,0,0,1,86.71-68.92c42.48-29.92,94.26-61.87,156.33-72l.6,2.38c-61.65,10.06-113.2,41.87-155.49,71.66a922.57,922.57,0,0,0-86.52,68.77c-28.57,25.76-51.29,48.87-69.38,78a316.75,316.75,0,0,0-35.35,78.33c-.89,3.06-1.59,6.33-2.33,9.79-2.21,10.28-4.49,20.87-12,26.2a17.37,17.37,0,0,1-4.35,2.25c-13.36,4.76-30.77,3.94-50.34-2.37a128.21,128.21,0,0,1-47.24-27.86c-3.5-3.2-7-6.58-10.37-9.85-9.74-9.43-19.82-19.18-31.16-25.66-49.25-28.1-89.21-2.57-114.06,23.8-22.93,24.34-40.83,55.19-54.7,94.3-7.5,21.13-14.09,43.74-20.46,65.6-7.29,25-14.82,50.81-23.93,75.42-16.26,43.89-35.6,84.93-57.49,122-24,40.61-51.34,76.9-81.29,107.87-16.75,17.33-30.26,29.47-43.81,39.37-.66.49-1.33,1-2,1.44" transform="translate(-6337.99 -6349.76)"/><path class="cls-3" d="M6896.79,7333.38c-1,.72-2,1.42-3,2.11a208.57,208.57,0,0,1-40.9,21.56c-28.57,11.25-61.86,17-101.75,17.53-28.4.38-58.27-1.56-87.15-3.45l-14.85-.95q-5.94-.37-11.91-.79c-29.49-2-60-4-88.42.76-54.39,9.14-83.41,59.15-79.64,137.2l-2.31-.15c-1.73-35.71,3.5-66.89,15.12-90.19,13.76-27.6,36-44.16,66.22-49.24,28.67-4.82,59.3-2.76,88.92-.78l11.9.78,14.86,1c28.84,1.88,58.66,3.82,87,3.44,39.63-.54,72.67-6.22,101-17.39a206.22,206.22,0,0,0,40.51-21.35c17.28-11.76,32.19-26.76,43.25-38.51,57.9-61.51,104.64-144.5,135.15-240,7.33-22.91,13.74-46.64,19.94-69.6,6.4-23.7,13-48.21,20.53-71.27,13.25-40.71,30.95-72.77,54.14-98,16.13-17.57,32.9-29.32,49.84-34.91,22.29-7.35,44.85-4,67.08,9.86,15.71,9.81,29.86,22.33,46.29,38.11,14.1,13.55,26,24.36,40.19,30,16.62,6.57,30.95,7.69,41.45,3.25,9.44-4,12.64-15.85,15.73-27.32,1.16-4.28,2.25-8.33,3.66-12,11.77-30.89,26.13-59.17,42.68-84,20.5-30.8,46.61-54.69,71.6-76.53A857.09,857.09,0,0,1,7632,6595c28.19-18.8,52.2-32.39,75.55-42.79,28.81-12.82,56.45-20.64,84.52-23.91l.51,2.39c-63.68,7.42-116.2,37.72-159.18,66.37a854.63,854.63,0,0,0-87.91,67.28c-24.89,21.74-50.89,45.53-71.25,76.12-16.47,24.74-30.76,52.88-42.47,83.63-1.37,3.59-2.45,7.58-3.59,11.81-2.83,10.48-5.74,21.27-13.38,26.72a17.94,17.94,0,0,1-3.52,2c-11,4.66-25.93,3.53-43.13-3.26-14.61-5.77-26.73-16.75-41-30.51-16.3-15.66-30.34-28.08-45.85-37.77-48-30-88.55-3.07-114.13,24.79-23,25-40.54,56.83-53.7,97.24-7.48,23-14.1,47.49-20.49,71.17-6.21,23-12.63,46.73-20,69.69A721,721,0,0,1,7018.39,7184c-23.45,42.57-50.72,80.49-81.05,112.71-10.48,11.13-24.41,25.17-40.55,36.68" transform="translate(-6337.99 -6349.76)"/><path class="cls-3" d="M6896.25,7328.7c-2.17,1.54-4.37,3-6.62,4.45a193.52,193.52,0,0,1-42.52,19.94c-29.18,9.65-62.88,13.34-106,11.61-21.65-.87-44.33-3.12-66.26-5.3-45.57-4.53-92.69-9.22-137.14-2.58-78.12,11.66-80.67,100.62-78.14,138.33l-2.31-.1c-2.43-36.12,2.18-67.63,13.33-91.13,13.4-28.25,35.79-44.9,66.54-49.49,44.72-6.67,92-2,137.68,2.57,21.9,2.18,44.55,4.43,66.13,5.29,42.9,1.73,76.36-1.93,105.29-11.5a191.77,191.77,0,0,0,42.08-19.73c16.77-10.58,31.23-25.12,43.17-37.94,56.12-60.28,100.46-143.24,131.79-246.57,7.35-24.23,13.21-49.64,18.89-74.21,5.48-23.77,11.16-48.35,18.08-71.3,12.5-41.46,30-74.35,53.53-100.56,16.27-18.12,33-30.39,49.72-36.46,22.76-8.27,45.72-5.21,68.26,9.09,14.6,9.26,27.56,22.78,40.09,35.85,14,14.61,28.5,29.72,44.92,38.27,14.14,7.36,26.44,8.88,35.56,4.4,9.8-4.81,14-17.28,18.12-29.34a143.49,143.49,0,0,1,5.21-13.82c13.52-29.21,29.57-62.79,49.11-91.64,19.82-29.28,46.18-52.37,71.47-73.51a749.47,749.47,0,0,1,88.26-63.38c29.9-18.36,53.68-30.79,77.12-40.3,29.52-12,57.68-18.8,86.1-20.84l.41,2.4c-62.89,4.52-115.17,31.91-162.29,60.85a747.84,747.84,0,0,0-88,63.21c-25.18,21.05-51.42,44-71.1,73.09-19.45,28.73-35.46,62.21-48.94,91.35a140.47,140.47,0,0,0-5.12,13.61c-3.79,11.18-7.7,22.71-16.09,28.7a22.13,22.13,0,0,1-3.05,1.82c-9.76,4.79-22.76,3.24-37.59-4.47-16.81-8.75-31.46-24-45.62-38.8-12.42-13-25.26-26.34-39.58-35.43-38.41-24.37-77.15-15.25-115.16,27.1-23.31,26-40.68,58.6-53.09,99.76-6.9,22.88-12.57,47.42-18.05,71.15-5.68,24.61-11.55,50-18.92,74.36-14.64,48.3-32.25,92.54-52.32,131.5-23,44.62-49.89,83.61-79.94,115.89-10.43,11.21-22.78,23.71-36.94,33.81" transform="translate(-6337.99 -6349.76)"/><path class="cls-3" d="M6894,7323.77c-3,2.15-6.13,4.18-9.34,6a177.67,177.67,0,0,1-44.35,17.94c-37.68,9.77-79.07,7.66-110.91,4.74-16.24-1.5-33.1-3.57-49.41-5.58-51.35-6.32-104.44-12.86-154.05-3.92-75.4,13.57-80,93.52-76,140l-2.31-.05c-3.1-36.2,1-67.84,11.89-91.51,13-28.17,35.08-45.26,65.78-50.79,49.93-9,103.19-2.43,154.7,3.91,16.3,2,33.15,4.08,49.35,5.57,31.66,2.91,72.8,5,110.17-4.68a175.5,175.5,0,0,0,43.85-17.74c16.45-9.51,30.42-23.6,43.06-37.41,57.88-63.21,102.13-150.7,128-253,5.49-21.74,10.21-44.24,14.77-66,5.86-28,11.92-56.93,19.59-83.82,12-42.19,29.47-75.78,53.31-102.68,16.59-18.72,33.51-31.61,50.3-38.3,23.39-9.33,46.77-6.83,69.49,7.42,17.17,10.76,32.09,26.87,46.53,42.46l1.81,2c3.09,3.34,6.23,7,9.26,10.5,8.17,9.5,16.62,19.32,26.3,25.78,12.14,8.1,23.31,10.09,31.46,5.62,5.62-3.09,9.12-9.8,12.2-15.72l.73-1.38c5.75-10.95,11.17-21.63,16.12-31.73,3.38-6.91,6.75-14,10-20.83,12.87-27,26.18-54.92,42.82-78.16,20.31-28.36,47.28-51,71-69.92a622.13,622.13,0,0,1,87.68-58.51c22.43-12.39,49.3-26.48,78.47-37.09,30.12-10.95,58.63-16.67,87.17-17.49l.32,2.4c-58.08,1.67-107.84,22.93-164.7,54.34a618.73,618.73,0,0,0-87.4,58.32c-23.58,18.87-50.42,41.36-70.59,69.52-16.53,23.09-29.79,50.92-42.62,77.84-3.27,6.85-6.64,13.93-10,20.85-5,10.12-10.39,20.82-16.15,31.78l-.72,1.38c-3.22,6.17-6.86,13.17-13,16.55-8.89,4.89-20.89,2.83-33.8-5.79-10-6.66-18.57-16.63-26.86-26.27-3.16-3.66-6.13-7.12-9.19-10.42l-1.81-1.95c-14.32-15.46-29.12-31.44-46-42-38.33-24-77.69-13.74-117,30.59-23.63,26.67-40.92,60-52.86,101.86-7.65,26.82-13.7,55.72-19.56,83.66-4.56,21.78-9.28,44.3-14.78,66.09-12.32,48.76-28.8,94.34-49,135.44-22.23,45.29-49,85.15-79.49,118.49-10.31,11.25-21.49,22.69-34.2,31.76" transform="translate(-6337.99 -6349.76)"/><path class="cls-3" d="M6890.23,7317.25a97.9,97.9,0,0,1-11.48,7.1,163,163,0,0,1-45.82,15.42c-34.68,6.48-72,3.61-117.47-2.7-11-1.53-22.45-3.28-33.51-5-57.23-8.81-116.41-17.91-169.27-4.82-29.33,7.26-49.32,21.31-61.11,43-16.4,30.15-14.32,71.8-11.32,100.52H6438c-2.21-21.14-2.66-38.13-1.43-53.44,1.57-19.38,5.82-35.22,13-48.42a80.55,80.55,0,0,1,26.21-28.62c10-6.71,22.17-11.87,36.17-15.34,53.28-13.19,112.68-4.05,170.13,4.78,11.05,1.7,22.47,3.46,33.47,5,45.22,6.27,82.38,9.13,116.77,2.71a161.49,161.49,0,0,0,45.25-15.22c17-8.88,30.86-23.48,42.55-36.46,57.09-63.41,98.81-150.67,124-259.34,4.91-21.16,9.13-43,13.21-64,5.76-29.76,11.72-60.54,19.57-89.08,11.71-42.55,29.18-76.69,53.42-104.39,17-19.4,34.22-33,51.22-40.37,24-10.43,47.92-8.81,71.06,4.84,20.12,11.86,36.55,31.86,52.43,51.19,10.1,12.31,20.55,25,31.68,35.23,10.54,9.66,20.62,12.32,28.38,7.49,14.4-9,21.61-26.58,28.58-43.63,2-4.87,3.87-9.47,5.92-13.9q2.79-6,5.54-12c14.67-32,29.84-65,50.34-91.27,37.5-48.05,88.64-87.15,156.35-119.54,52.76-25.24,105.26-47.82,167.32-47l.23,2.41c-61.6-.83-113.86,21.66-166.39,46.79-67.43,32.25-118.34,71.17-155.65,119-20.35,26.08-35.47,59-50.09,90.86q-2.76,6-5.54,12c-2,4.38-3.9,8.95-5.88,13.8-6.74,16.49-13.7,33.51-27.2,43.14-.71.5-1.43,1-2.18,1.45-8.54,5.31-19.9,2.45-31.15-7.86s-21.79-23.14-31.95-35.52c-15.73-19.15-32-38.95-51.71-50.57-38.82-22.89-79-11-119.51,35.2-24,27.45-41.37,61.32-53,103.55-7.83,28.46-13.78,59.19-19.53,88.91-4.09,21.1-8.31,42.92-13.23,64.13-11.86,51.16-27.42,97.89-46.23,138.91-21.39,46.61-47.72,87.44-78.26,121.36-9.07,10.08-19.46,21.12-31.62,29.79" transform="translate(-6337.99 -6349.76)"/><path class="cls-3" d="M6884.86,7307.82a86.72,86.72,0,0,1-14.55,8.49c-13.84,6.28-30.11,10.41-48.36,12.26-38.94,3.94-81.66-3.63-123-10.94l-.17,0-11.71-2.09c-64.26-11.49-130.72-23.37-188.58-5.26-27.35,8.56-46.89,23.65-58.09,44.83-16.17,30.6-13.75,71.37-9.84,103.46l-2.3,0c-3.95-32.44-6.38-73.68,10.08-104.83,11.46-21.67,31.4-37.09,59.27-45.81,26.11-8.18,56.55-10.95,93.06-8.48,32.19,2.17,64.91,8,96.55,13.68l11.7,2.09.16,0c41.17,7.28,83.73,14.82,122.36,10.91,18-1.83,34.09-5.89,47.72-12.09,17.43-7.91,31.23-22.37,42.8-35.31,56.81-63.52,95.23-147.53,120.91-264.37,4.61-21,8.55-42.58,12.35-63.47,5.62-30.86,11.43-62.78,19.41-92.28,11.42-42.25,29.53-77.81,53.83-105.71,42.49-48.8,84.64-62.6,125.26-41,22.12,11.75,39.35,33.7,56,54.93,9.83,12.53,19.12,24.36,29.36,34.3,10.84,10.53,21.2,13.33,29.16,7.89,15-10.3,22.3-29.39,29.31-47.85,2.19-5.76,4.45-11.73,6.89-17.19,16.36-36.68,34.91-75,59.62-106.44,23.15-29.49,48.06-53.17,74-70.37,26.38-17.48,55.81-29.86,78.51-38.69l1-.39c51.84-20.18,105.45-41,167.27-37.63l.13,2.41c-61.35-3.4-114.75,17.39-166.38,37.49l-1,.39c-22.6,8.79-51.9,21.12-78.13,38.49-25.8,17.08-50.55,40.62-73.57,69.95-24.57,31.3-43.05,69.44-59.36,106-2.41,5.41-4.57,11.08-6.84,17.08-7.13,18.76-14.49,38.15-30.06,48.81-8.78,6-20.46,3-32.06-8.27-10.37-10.06-20.15-22.52-29.61-34.57-16.49-21-33.53-42.73-55.15-54.21-39.57-21-80.82-7.36-122.59,40.62-24.09,27.66-42.06,62.94-53.39,104.87-8,29.41-13.76,61.28-19.37,92.09-3.81,20.92-7.75,42.54-12.36,63.55-11.92,54.19-26.35,100.51-44.13,141.59-21.06,48.68-46.34,89.16-77.27,123.75-8.31,9.29-17.76,19.36-28.91,27.31" transform="translate(-6337.99 -6349.76)"/><path class="cls-3" d="M6877.79,7294.05a79.88,79.88,0,0,1-18.78,10.11c-14.32,5.3-31.6,8.11-51.36,8.35-34.35.42-71-7.45-106.54-15.07-7.41-1.58-15.07-3.23-22.59-4.77-68.64-14.09-139.78-23.93-195.05-.81-26.79,11.21-44.91,27.59-55.41,50.05-14.82,31.71-11.6,72.46-7.14,104.42l-2.29.09c-4.51-32.29-7.75-73.5,7.32-105.74,10.72-23,29.19-39.66,56.46-51.07,26.26-11,57.69-15.46,96.08-13.66,34.51,1.61,70,8.16,100.23,14.36,7.53,1.54,15.2,3.19,22.61,4.78,35.37,7.59,71.94,15.43,106,15,19.52-.24,36.56-3,50.66-8.22,18.33-6.77,32.07-20.79,43.5-33.4,73.2-80.72,103.16-191.2,119.34-267.28,4.6-21.68,8.29-44.08,11.85-65.74,4.76-28.94,9.69-58.87,16.8-86.73,11-43.27,30.28-80.86,57.16-111.73,43.5-50,86.77-65.88,128.63-47.29,15.87,7,32,21,49.33,42.75,4.2,5.27,8.33,10.85,12.33,16.26,7.76,10.49,15.78,21.33,24.91,30.7,10.85,11.12,22.37,13.94,30.8,7.52,15.09-11.46,22.56-31.47,29.79-50.83,2.78-7.46,5.41-14.5,8.46-21.12,21.21-46,41.47-80.91,63.79-109.88,23.18-30.11,47.06-51.95,73-66.77,23.81-13.62,51-22.44,74.42-29.28l14.69-4.34c48.19-14.28,98-29,153.94-23.62l0,2.4c-55.49-5.38-105.13,9.32-153.12,23.55q-7.35,2.18-14.7,4.33c-23.32,6.81-50.35,15.59-74,29.1-25.71,14.69-49.39,36.36-72.41,66.26-22.22,28.85-42.41,63.63-63.55,109.48-3,6.54-5.63,13.55-8.4,21-7.33,19.63-14.91,39.94-30.46,51.75l-.5.37c-9.34,6.66-21.75,3.6-33.33-8.27-9.27-9.5-17.35-20.43-25.16-31-4-5.38-8.1-10.94-12.27-16.17-17.05-21.37-32.85-35.1-48.31-42-40.86-18.15-83.3-2.4-126.14,46.81-26.66,30.62-45.74,67.92-56.7,110.86-7.1,27.77-12,57.65-16.76,86.54-3.57,21.69-7.26,44.11-11.88,65.84-11.86,55.78-25.86,102.65-42.82,143.31-20.81,49.89-46,90.76-77,125-7.35,8.1-15.64,16.78-25.51,23.82" transform="translate(-6337.99 -6349.76)"/><path class="cls-3" d="M6868.5,7274.6a76.78,76.78,0,0,1-23.93,11.81c-15.85,4.45-35.07,5.58-57.14,3.37-27.53-2.77-56.47-9.65-84.44-16.3-15.75-3.74-32-7.62-48-10.73-77.87-15.25-139.05-11.88-187,10.29-23.45,10.83-40.81,28.82-51.59,53.45-14.4,32.91-10.33,74.8-5.17,107.63l-2.29.13c-5.2-33.16-9.3-75.5,5.33-108.95,11-25.11,28.68-43.44,52.59-54.48,26.31-12.16,57.09-18.81,91.49-19.77,29-.81,60.66,2.24,96.85,9.33,16,3.13,32.28,7,48.05,10.75,27.9,6.64,56.76,13.5,84.13,16.25,21.8,2.19,40.76,1.08,56.35-3.3,18.52-5.19,32.77-18.23,44.26-30.3,73.36-77,103.64-189.21,120-266.92,4.5-21.33,8.12-43.36,11.62-64.66,4.87-29.6,9.91-60.22,17.29-88.65,11.25-43.3,30.73-81.13,57.91-112.44,18.83-21.69,37-37,55.7-46.89,25.63-13.55,51.39-15.94,76.54-7.1,17.35,6.09,34.91,19.86,52.19,40.9,4.93,6,9.72,12.49,14.34,18.76,7,9.46,14.2,19.24,22.24,27.86,11.09,11.87,22.67,14.32,31.79,6.71,15.8-13.18,24.23-34.65,32.39-55.41,3.26-8.31,6.34-16.16,9.88-23.55,21.66-45.21,43.5-81.93,66.76-112.25,22.28-29,45.26-48.94,70.26-60.88,22.46-10.72,48.51-16.13,71.17-20.36,28.42-5.3,56.87-10,84.56-13.93,28.75-4.09,54.91-7.16,84-3.22l0,2.39c-28.78-3.9-54.78-.85-83.36,3.22-27.66,3.93-56.08,8.61-84.47,13.91-22.53,4.21-48.42,9.58-70.67,20.2-24.71,11.8-47.45,31.52-69.53,60.3-23.18,30.2-44.94,66.8-66.54,111.88-3.5,7.32-6.57,15.13-9.82,23.4-8.25,21-16.79,42.73-33,56.25-.46.38-.93.74-1.4,1.08-9.77,7-22.18,4-33.53-8.17-8.15-8.73-15.42-18.58-22.45-28.1-4.6-6.24-9.37-12.69-14.25-18.65-17-20.65-34.13-34.13-51-40.07-42.49-14.92-86.2,3-129.93,53.44-27,31.07-46.3,68.61-57.46,111.58-7.36,28.33-12.39,58.89-17.25,88.45-3.51,21.32-7.13,43.38-11.64,64.76-11.89,56.36-25.83,103.37-42.6,143.7-21.08,50.66-46.58,91.31-78,124.25a150.14,150.14,0,0,1-21.24,19" transform="translate(-6337.99 -6349.76)"/><path class="cls-3" d="M6857,7248.27c-8.87,6.34-19.47,11.76-32,13.8-16.1,2.62-35.48,1.92-61-2.2-22.88-3.69-46.7-9.6-69.74-15.31-21.16-5.25-43.05-10.68-64.43-14.46-71.08-12.59-132.45-4.38-177.46,23.72-59.51,37.15-60.49,111.91-50.83,168.08l-2.28.17c-6.41-37.26-6.1-70.2.93-97.9,8.14-32.1,25.25-56.48,50.83-72.46,24.21-15.1,52.95-24.58,85.43-28.16,28.62-3.15,60.08-1.75,93.52,4.17,21.46,3.8,43.39,9.24,64.59,14.5,23,5.7,46.76,11.6,69.54,15.27,25.28,4.08,44.44,4.78,60.3,2.2,20.28-3.29,35.42-15.77,46.34-26.26,76.24-73.28,107.13-184.59,123.73-261.94,4.5-21,8.17-42.61,11.72-63.54,5.08-30,10.34-61,18.05-89.8,11.56-43.1,31.35-81.06,58.81-112.82,44.7-51.71,90.43-72.23,135.93-61,18,4.43,37.29,17.11,53,34.77,6.29,7.08,12.21,14.74,17.94,22.15,6.73,8.72,13.69,17.73,21.31,25.84,11.2,11.93,23.5,13.92,32.89,5.34,16.58-15.16,26.1-37.92,35.32-59.93,3.64-8.71,7.41-17.72,11.52-25.93,23.44-46.89,45.18-82.68,68.41-112.64,21.23-27.39,42.26-44.4,66.15-53.52,20.15-7.7,43.1-10,68.84-12,13.06-1,26.18-2.39,38.86-3.7,41.34-4.27,84.09-8.68,129.07-2.12l-.07,2.38c-44.71-6.52-85.42-2.31-128.52,2.14-12.69,1.31-25.82,2.67-38.91,3.7-25.58,2-48.37,4.31-68.26,11.91-23.54,9-44.29,25.79-65.3,52.89-23.14,29.84-44.81,65.52-68.19,112.29-4.07,8.14-7.66,16.72-11.46,25.8-9.3,22.22-18.92,45.2-35.82,60.65a20.59,20.59,0,0,1-16.54,5.67c-6.63-.74-13.21-4.55-19.56-11.31-7.71-8.21-14.71-17.27-21.48-26-5.7-7.38-11.59-15-17.82-22-15.38-17.27-34.22-29.65-51.69-34-44.65-11-89.68,9.29-133.84,60.37-27.26,31.53-46.89,69.2-58.37,112-7.69,28.66-12.93,59.63-18,89.58-3.55,21-7.22,42.63-11.73,63.65-12,55.8-26.26,102.33-43.65,142.26-21.8,50-48.19,89.53-80.67,120.76a137.44,137.44,0,0,1-15.39,13" transform="translate(-6337.99 -6349.76)"/><path class="cls-3" d="M6844.35,7216.63c-13.72,9.79-27.12,14.88-41.58,15.89-21.29,1.5-44.89-2.49-63.07-6.13s-37.28-8.5-55.62-13.18c-26.5-6.75-53.89-13.74-80.57-17.58-65.64-9.45-123.49,3.75-167.3,38.19-55.91,43.93-55,119.88-44.38,175.85l-2.28.21c-10.73-56.61-11.61-133.45,45.14-178,22.57-17.75,49-30,78.52-36.38,28-6.07,58.42-6.81,90.37-2.21,26.8,3.86,54.26,10.86,80.81,17.62,18.31,4.67,37.25,9.5,55.5,13.15,18,3.62,41.45,7.57,62.48,6.1,17-1.19,31.89-7.84,48.32-21.56,61.19-51.1,102.37-131.59,129.61-253.33,4.61-20.61,8.42-41.88,12.11-62.46,5.41-30.13,11-61.3,19.09-90.13,12-42.8,32.13-80.79,59.78-112.93,19.23-22.36,39.33-39.59,59.75-51.2,26.24-14.94,53.09-20.61,79.8-16.86,19.42,2.73,39.67,13.57,57,30.52,7,6.83,13.63,14.82,20.05,22.54s13,15.58,19.93,22.44c11.85,11.65,24.77,12.81,34.56,3.1,17-16.88,27.7-40.59,38-63.51,4.23-9.42,8.62-19.17,13.34-28.15,19.78-37.67,41.77-77.18,68.49-110.89,20.22-25.5,40.42-40.2,63.58-46.26,19.42-5.09,41.92-4.39,63.68-3.72l1.31,0c18.53.57,36.95.31,54.76.05,36.27-.51,73.78-1.05,112.32,5.63l-.13,2.37c-38.34-6.64-74.07-6.13-111.9-5.59-17.83.26-36.28.52-54.86-.05l-1.31,0c-21.6-.67-43.95-1.36-63.08,3.65-22.71,5.94-42.58,20.42-62.51,45.57-26.62,33.58-48.55,73-68.29,110.56-4.69,8.93-9.06,18.65-13.28,28-10.39,23.1-21.13,47-38.43,64.13-4.83,4.79-10.63,7.26-16.75,7.13-7.07-.14-14.13-3.64-21-10.4-7.07-7-13.71-14.93-20.12-22.65s-13-15.59-19.85-22.32c-16.95-16.56-36.69-27.15-55.59-29.8-58.79-8.26-107.33,32.08-137.69,67.38-27.45,31.91-47.41,69.63-59.34,112.12-8.07,28.73-13.65,59.84-19.05,89.92-3.69,20.6-7.51,41.9-12.13,62.55-12.32,55.07-27.18,100.72-45.42,139.58a387.82,387.82,0,0,1-36.38,62.45,289.29,289.29,0,0,1-48.5,52.46q-4,3.33-7.91,6.13" transform="translate(-6337.99 -6349.76)"/><path class="cls-3" d="M6833.41,7179.9c-1.16.82-2.32,1.64-3.49,2.44-20,13.71-45.2,19-77,16.24-28.24-2.48-59-11-88.72-19.2-29.3-8.1-59.61-16.48-87.53-19.11-62.21-5.84-116.52,12.45-157,52.91-41,40.93-54,104.65-37.54,184.26l-2.26.25c-7.86-38-9.15-72.59-3.85-102.76,5.9-33.57,20-61.68,41.95-83.57,41-40.9,95.85-59.39,158.71-53.48,28.12,2.64,58.52,11.05,87.93,19.18,59.07,16.33,120.16,33.22,163.92,3.22,64.75-44.37,108.32-121.29,137.11-242.06,4.84-20.27,8.91-41.2,12.85-61.44,5.83-30,11.86-61,20.37-89.62,12.6-42.41,33-80.37,60.74-112.85,19.45-22.79,40.33-40.8,62.06-53.53,26.56-15.55,53.77-22.71,80.85-21.27,21.3,1.13,42,9.25,59.7,23.48,9.2,7.38,18,16.56,26.49,25.44,5.44,5.69,11.08,11.58,16.76,16.92,17.67,16.63,32.58,4.25,36.73.06,17.65-17.83,29.17-42,40.31-65.42,4.84-10.17,9.85-20.69,15.23-30.35q3.26-5.85,6.5-11.7c18.39-33.21,37.42-67.54,60.45-95.42,19.09-23.12,38.2-35.43,60.11-38.72,17.83-2.68,38.3.18,58.09,2.94l4.35.6c24.33,3.37,48.25,4.93,71.39,6.45,30.83,2,62.7,4.11,94.87,10.51l-.19,2.36c-32-6.36-63.82-8.45-94.57-10.46-23.17-1.52-47.14-3.1-71.55-6.47l-4.35-.6c-19.64-2.74-39.95-5.57-57.46-2.94-21.39,3.21-40.1,15.29-58.87,38-22.9,27.74-41.88,62-60.23,95.11q-3.24,5.85-6.5,11.7c-5.35,9.61-10.34,20.09-15.17,30.23-11.22,23.56-22.81,47.91-40.7,66-4.5,4.54-20.65,17.94-39.89-.16-5.73-5.4-11.39-11.31-16.87-17-8.43-8.82-17.15-17.93-26.21-25.19-17.58-14.09-37.19-21.8-58.28-22.92-61.69-3.29-110.85,38.48-141.24,74.09-27.52,32.26-47.81,70-60.33,112.09-8.48,28.54-14.5,59.48-20.32,89.4-3.94,20.26-8,41.22-12.86,61.54-12.94,54.28-28.6,98.83-47.87,136.2a335.51,335.51,0,0,1-38.57,59.43,251.94,251.94,0,0,1-48,45.23" transform="translate(-6337.99 -6349.76)"/><path class="cls-3" d="M6828.14,7137.63a210.81,210.81,0,0,1-22.23,13.87c-35.17,19-80.46,10.43-123.84,0-9.12-2.18-18.51-4.56-27.59-6.86-34.56-8.75-70.29-17.81-104.56-19.77-58.44-3.34-109.32,19.9-147.12,67.23-37.48,46.9-48,113.66-30.43,193.07l-2.25.28c-8.49-38.35-10.58-73.87-6.21-105.58,4.76-34.53,17.22-64.62,37-89.43,18.45-23.09,40.24-40.67,64.75-52.25,25.74-12.15,54-17.44,84.1-15.72,34.48,2,70.32,11.05,105,19.83,9.07,2.3,18.45,4.68,27.56,6.86,43,10.29,87.79,18.77,122.32.13,67.82-36.61,115.55-111.4,145.89-228.66,5.17-20,9.61-40.66,13.91-60.64,6.34-29.51,12.9-60,21.84-88.21,13.54-42.73,34.28-80.63,61.65-112.64,19.67-23,41.17-41.58,63.91-55.21,26.49-15.88,54.05-24.58,81.9-25.84,23.57-1.07,45,4.73,65.57,17.74,8.68,5.49,16.84,12.81,24.74,19.89a244.43,244.43,0,0,0,19.6,16.39c18,13,31.37,5.26,39.46-3.48,18-19.47,30.78-44.06,43.11-67.84,5.16-9.93,10.49-20.2,16.08-29.84,4.68-8.06,9.31-16.35,13.79-24.36,15.09-27,30.69-54.93,50-77.37,17.55-20.36,35.37-30.4,56.1-31.59,17.2-1,36.8,3.76,55.75,8.36l5.46,1.32a785,785,0,0,0,79.66,15.12c7.34,1,14.76,1.86,21.93,2.72,20.83,2.51,42.38,5.09,64,9.94l-.25,2.36c-21.52-4.83-43-7.41-63.78-9.9-7.18-.87-14.61-1.76-22-2.73a792.39,792.39,0,0,1-79.9-15.16l-5.47-1.33c-18.78-4.56-38.21-9.27-55.08-8.3-20.13,1.16-37.51,11-54.68,30.9-19.21,22.29-34.77,50.12-49.8,77-4.49,8-9.12,16.31-13.8,24.38-5.57,9.6-10.89,19.85-16,29.76-12.4,23.9-25.22,48.61-43.43,68.29-7.09,7.66-22,18.32-42.38,3.64a245.9,245.9,0,0,1-19.83-16.58c-7.81-7-15.89-14.24-24.38-19.61-20.11-12.73-41.1-18.41-64.17-17.36-65.06,3-114.41,45.33-144.36,80.36-27.19,31.8-47.8,69.45-61.25,111.91-8.9,28.08-15.45,58.54-21.79,88-4.3,20-8.74,40.68-13.93,60.73-13.75,53.14-30.43,96.31-51,132a292,292,0,0,1-41.11,55.79,228.5,228.5,0,0,1-32.57,28.34" transform="translate(-6337.99 -6349.76)"/><path class="cls-3" d="M6821.22,7096.54a199.4,199.4,0,0,1-40.43,22.31c-16.73,6.85-36.65,9.11-60.91,6.89-21.08-1.92-42.52-6.78-66.35-12.46-5.64-1.35-11.42-2.76-17-4.12-37.42-9.12-76.11-18.56-112.74-18.78-56.07-.33-103.78,27.5-138,80.5s-42.12,122.76-23.17,202.08l-2.25.33c-9.24-38.68-12.2-75.27-8.78-108.76,3.63-35.6,14.48-67.61,32.23-95.14,34.58-53.6,82.88-81.76,139.7-81.41,36.89.22,75.72,9.68,113.26,18.84,5.59,1.36,11.37,2.77,17,4.11,41.41,9.87,88.34,21.06,125.93,5.67,72.05-29.51,122.92-99.45,155.53-213.83,5.66-19.84,10.6-40.34,15.37-60.17,6.92-28.71,14.07-58.4,23.39-85.84,14.44-42.51,35.45-80.32,62.44-112.37,40.49-48.09,93.07-78.82,148.06-86.53,25.06-3.51,47.3-.58,68,9,10.57,4.88,21.24,12.23,31.55,19.33,6,4.17,12.29,8.47,18.4,12.19,14.94,9.1,28.86,6.65,42.56-7.49,19.77-20.39,34.16-47.12,48.09-73,4.43-8.22,9-16.73,13.65-24.8,4.27-7.42,8.49-15.06,12.56-22.46,14-25.37,28.46-51.61,47-72.07,16.23-17.89,33.94-26.19,54.16-25.38,16.54.67,35.05,6.83,52.95,12.78,2,.67,4,1.34,6,2,28.48,9.38,53.79,16.24,77.37,21,10.87,2.18,21.83,4.09,32.43,5.93,18.11,3.15,36.83,6.41,55.46,11.11l-.3,2.33c-18.55-4.67-37.23-7.92-55.29-11.06-10.62-1.85-21.59-3.76-32.49-5.94-23.68-4.75-49.08-11.64-77.65-21.05l-6-2c-17.75-5.9-36.09-12-52.31-12.66-19.56-.79-36.75,7.29-52.55,24.72-18.4,20.28-32.81,46.42-46.74,71.69-4.08,7.4-8.3,15.05-12.58,22.49-4.62,8-9.2,16.53-13.63,24.75-14,26-28.46,52.83-48.42,73.42-6.23,6.43-12.38,10.46-18.8,12.31-8.54,2.46-17.45.92-26.48-4.58-6.18-3.76-12.45-8.08-18.52-12.26-10.23-7-20.8-14.32-31.17-19.11-20.25-9.35-42.07-12.22-66.69-8.77-54.49,7.64-106.63,38.12-146.8,85.83-26.82,31.86-47.7,69.44-62.05,111.69-9.29,27.35-16.43,57-23.34,85.65-4.78,19.85-9.72,40.38-15.39,60.27-26.34,92.39-64.59,156-116.28,192.85" transform="translate(-6337.99 -6349.76)"/><path class="cls-3" d="M7740,6419.1c-15.86-4.43-31.94-8-47.49-11.46-13.4-3-27.26-6.05-41.05-9.69-22.34-5.89-47.53-14.54-77-26.42l-5-2c-18.37-7.45-37.37-15.15-54.28-16.63-18.41-1.62-34.31,4.83-48.62,19.72-17.21,17.93-30.23,41.84-42.81,65-3.75,6.87-7.62,14-11.55,20.86-2.72,4.74-5.47,9.62-8.14,14.35-16.18,28.7-32.92,58.38-55,82a54.09,54.09,0,0,1-7.9,7c-14.05,10-30.88,10.2-50.16.49-24.16-12.16-50.05-23.59-75.69-24.91-32.36-1.67-66.08,6.9-103.1,26.17-33.95,17.68-62.63,40.59-85.27,68.11-26.18,31.82-47.26,69.35-62.67,111.53-9.61,26.33-17.37,54.81-24.87,82.35-5.4,19.83-11,40.34-17.29,60.2-15.84,49.9-35.16,89.64-59.07,121.5a233.52,233.52,0,0,1-46.68,47.23,197,197,0,0,1-61.17,30.86c-19.37,5.84-41.72,7.11-68.34,3.9-23.73-2.87-48.75-9-72.95-14.91-38.28-9.35-77.86-19-115.17-16.9-55.67,3.18-99.39,34.19-129.94,92.16C6338,7208,6332.49,7281,6352.9,7360.72l-2.24.37c-20.56-80.29-15-153.9,16.07-212.85,14.43-27.37,32.14-49.11,52.63-64.6,22.89-17.32,49.48-27,79-28.63,37.65-2.15,77.4,7.56,115.85,17,50.18,12.27,97.58,23.86,140.13,11,76.38-23,130.54-87.86,165.58-198.25,6.29-19.81,11.87-40.3,17.27-60.11,7.51-27.58,15.28-56.1,24.92-82.52,15.49-42.41,36.69-80.14,63-112.15,22.81-27.73,51.7-50.81,85.88-68.61,37.35-19.45,71.43-28.08,104.17-26.4,26.08,1.34,52.26,12.9,76.66,25.18,22,11.09,40.7,8.7,55.49-7.11,21.93-23.45,38.6-53,54.73-81.62,2.66-4.73,5.42-9.62,8.14-14.37,3.92-6.85,7.79-13.95,11.53-20.82,12.65-23.24,25.73-47.27,43.13-65.39,14.55-15.15,31.47-22,50.29-20.33,17.26,1.52,36.43,9.29,55,16.8l4.94,2c29.39,11.84,54.49,20.45,76.73,26.32,13.74,3.63,27.58,6.7,41,9.67,15.58,3.46,31.69,7,47.61,11.49Z" transform="translate(-6337.99 -6349.76)"/></g><rect class="cls-1" x="0.5" y="0.5" width="1717.16" height="1689.59"/></svg>