<svg xmlns="http://www.w3.org/2000/svg" xmlns:xlink="http://www.w3.org/1999/xlink" viewBox="0 0 1383.25 1471.78"><defs><style>.cls-1{fill:none;}.cls-2{isolation:isolate;}.cls-3{clip-path:url(#clip-path);}.cls-4{clip-path:url(#clip-path-2);}.cls-5{mix-blend-mode:multiply;}.cls-6{clip-path:url(#clip-path-3);}.cls-7{fill:#f1ebde;}</style><clipPath id="clip-path" transform="translate(-6496.48 -6516.85)"><rect class="cls-1" x="6496.48" y="6516.85" width="1383.25" height="1471.78"/></clipPath><clipPath id="clip-path-2" transform="translate(-6496.48 -6516.85)"><rect class="cls-1" x="6496.48" y="6516.85" width="1383.25" height="1471.78"/></clipPath><clipPath id="clip-path-3" transform="translate(-6496.48 -6516.85)"><rect class="cls-1" x="6258.72" y="6253.49" width="1881.56" height="1892.02"/></clipPath></defs><g class="cls-2"><g id="Layer_1" data-name="Layer 1"><g class="cls-3"><g class="cls-4"><g class="cls-5"><g class="cls-6"><path class="cls-7" d="M7807.34,7319.66a154.94,154.94,0,0,1-23.32,19.72c-24,16.43-49.74,24.54-76.57,24.08-25.48-.44-53.32-10.94-82-22.59-32-13-60.17-14.66-83.85-4.94-30.93,12.7-56.7,35.31-78.81,69.13-22,33.66-37.66,72.35-54.24,113.31q-2.66,6.59-5.33,13.17l-1.35,3.29c-18,44.21-36.6,89.91-60.16,133-38.17,69.82-85.77,150.76-149.47,221.71a489.47,489.47,0,0,1-57.57,54.82,402.61,402.61,0,0,1-68,44.27l-1.05-1.77c44.8-22.95,86.88-56.17,125.07-98.71,63.58-70.83,111.13-151.67,149.25-221.41,23.51-43,42.1-88.66,60.08-132.82l1.34-3.29q2.69-6.59,5.34-13.16c16.61-41.05,32.3-79.81,54.39-113.61a209.36,209.36,0,0,1,34.89-41.44,154.75,154.75,0,0,1,44.67-28.31c24.16-9.92,52.87-8.25,85.34,5,28.47,11.58,56.11,22,81.23,22.44,26.45.45,51.86-7.55,75.53-23.78,21.87-15,40.27-36.4,54.69-63.61,23.81-44.94,37.26-101.1,40-166.92,2.95-71.21-15.15-138-52.33-193.08l1.59-1a305.47,305.47,0,0,1,43.69,99.18,343.94,343.94,0,0,1,9,95.16,484.64,484.64,0,0,1-11.37,88.12c-6.78,29.51-16.48,56.28-28.82,79.56a192.22,192.22,0,0,1-31.89,44.49" transform="translate(-6496.48 -6516.85)"/><path class="cls-7" d="M7799.67,7305.49a142.12,142.12,0,0,1-25.15,20.66c-27,17.32-59.46,21.61-93.75,12.39-13.63-3.66-27.55-10.07-41-16.27-20.17-9.29-41-18.9-60.75-19.06-27.3-.23-50.28,14.38-67.26,27.12-22.21,16.69-41.58,38.08-57.55,63.6-22.88,36.54-39.44,78.43-57,122.77-6.61,16.72-13.44,34-20.61,50.89-22.7,53.42-51.75,108.34-86.34,163.23-27.05,42.93-59.95,92.86-98.85,137.65-42.32,48.73-86.21,85.28-134.19,111.74l-1.1-1.74c107-59,176.08-159.38,232.44-248.82,34.55-54.82,63.55-109.66,86.21-163,7.16-16.85,14-34.13,20.6-50.85,17.56-44.41,34.14-86.37,57.1-123,16.09-25.69,35.59-47.23,58-64,17.19-12.91,40.49-27.7,68.34-27.47,20.17.17,41.23,9.87,61.6,19.25,13.38,6.17,27.21,12.54,40.65,16.15,33.76,9.07,65.67,4.86,92.27-12.19a148.6,148.6,0,0,0,37.12-34.55c25.83-33.39,39.5-77.17,48.53-111.58,12.49-47.61,16.41-91.53,12-134.26a287.73,287.73,0,0,0-17.13-72.22c-8.84-23.34-22.37-45.7-34.31-65.43l1.65-.86c12,19.81,25.57,42.27,34.48,65.79a289.27,289.27,0,0,1,17.26,72.74c4.46,43,.52,87.11-12,134.94-9.07,34.56-22.82,78.55-48.84,112.18a164.11,164.11,0,0,1-12.38,14.28" transform="translate(-6496.48 -6516.85)"/><path class="cls-7" d="M7793.84,7289.53a123.41,123.41,0,0,1-27.65,21.58,92,92,0,0,1-42.3,11.51c-16.23.6-33.16-2.47-50.33-9.11-10.65-4.13-21.27-9.39-31.53-14.47-24.13-11.95-46.92-23.24-70.21-21-27.26,2.6-48.84,19.4-68.61,36.39a281.72,281.72,0,0,0-58,69.16c-21.53,36-37.5,76.53-54.4,119.47-7.06,17.93-14.36,36.47-22.07,54.55-22.77,53.41-51.41,106.66-87.56,162.82-29.12,45.21-61.36,93.18-99.81,137.59-42.49,49.08-86.2,86.3-133.63,113.79l-1.13-1.73c105-60.88,175.29-161.4,232.88-250.84,36.1-56.07,64.7-109.25,87.43-162.57,7.7-18,15-36.58,22.05-54.5,16.93-43,32.92-83.63,54.53-119.72a282.92,282.92,0,0,1,58.31-69.56c20-17.17,41.79-34.15,69.57-36.8,23.86-2.27,46.91,9.15,71.32,21.24,10.22,5.06,20.79,10.29,31.35,14.38,33.23,12.87,65.55,12,91-2.32,13.52-7.63,26-18.55,37.11-32.46,26-32.61,40.33-74.92,50.88-112,13.29-46.7,17.46-89.88,12.75-132A269.87,269.87,0,0,0,7848.3,6963c-8.86-22.21-21.74-43.81-34.33-63.85l1.63-.9c12.65,20.13,25.59,41.84,34.51,64.22a271.51,271.51,0,0,1,17.66,70.46c4.74,42.38.55,85.8-12.8,132.73-10.6,37.25-25,79.75-51.18,112.59q-4.81,6-9.95,11.3" transform="translate(-6496.48 -6516.85)"/><path class="cls-7" d="M7789.41,7272.2a106.17,106.17,0,0,1-30.49,22.27c-12.32,5.86-26.67,8.14-42.65,6.75-15.67-1.36-32.21-6.16-49.14-14.26-7.06-3.38-14.11-7.05-20.93-10.6-28.55-14.84-55.52-28.85-81.79-22.28-28.26,7.07-51,27.23-70.16,45.58a334.81,334.81,0,0,0-58.37,74.36c-18.11,31.41-31.83,66.1-46.36,102.84-4.94,12.48-10,25.39-15.29,38.05-28.94,69.75-63.37,135.28-102.33,194.77-29.66,45.3-62.38,93.34-100.62,137.72-42.61,49.44-86.12,87.37-133,116l-1.16-1.7c103.41-63.05,174.55-163.74,233.11-253.18,38.9-59.41,73.28-124.84,102.18-194.49,5.25-12.65,10.35-25.55,15.28-38,14.55-36.79,28.29-71.55,46.47-103.06a336.22,336.22,0,0,1,58.66-74.72c19.28-18.5,42.25-38.83,70.92-46,27-6.76,54.3,7.44,83.21,22.47,6.8,3.54,13.84,7.19,20.86,10.56,34,16.29,66,18.94,90.11,7.47,13.61-6.48,25.77-16.26,37.19-29.89,26.67-31.86,41.66-74.18,52.8-111.37,13.71-45.76,17.88-88.17,12.74-129.66s-22.22-83.77-52.23-129.56l1.6-.93c30.21,46.08,47.41,88.76,52.58,130.48s1,84.42-12.8,130.42c-11.19,37.36-26.26,79.88-53.12,112-2.39,2.85-4.8,5.53-7.26,8.06" transform="translate(-6496.48 -6516.85)"/><path class="cls-7" d="M7786.67,7253.32c-10.51,10.79-21.7,18.38-34.08,23.14-29,11.14-65.65-3.13-91.29-17.06-3.78-2-7.63-4.2-11.36-6.27-12.86-7.16-26.15-14.57-39.35-19.79-18.82-7.45-37-7.85-54.15-1.19-29.85,11.63-53.37,34-72.43,54.43-24.42,26.12-43.42,51.83-58.11,78.61-16.62,30.29-29.61,63.18-43.37,98-5.42,13.71-11,27.89-16.82,41.8a1156.8,1156.8,0,0,1-103.39,193.62c-30.22,45.5-63.4,93.71-101.32,138-42.67,49.87-85.94,88.56-132.27,118.3l-1.19-1.69c101.64-65.22,170.88-162.15,233.1-255.85a1154.58,1154.58,0,0,0,103.24-193.34c5.8-13.89,11.4-28.06,16.81-41.76,13.78-34.88,26.79-67.81,43.46-98.2,14.75-26.9,33.84-52.72,58.35-78.94,19.2-20.52,42.88-43.09,73-54.85,17.57-6.84,36.27-6.43,55.59,1.22,13.33,5.27,26.69,12.72,39.61,19.91,3.72,2.08,7.57,4.22,11.34,6.27,25.26,13.72,61.31,27.79,89.62,16.91,13.66-5.25,25.86-14,37.32-26.86,27.81-31.14,43.06-73,54.3-109.85,13.78-45.14,17.71-86.76,12-127.24-5.48-39.11-22.66-80-52.53-125.11l1.6-.94c30.06,45.36,47.35,86.57,52.88,126,5.71,40.77,1.75,82.65-12.1,128.05-11.3,37-26.63,79.1-54.66,110.49-1.28,1.43-2.58,2.82-3.88,4.16" transform="translate(-6496.48 -6516.85)"/><path class="cls-7" d="M7785.07,7233.68c-11.71,12-24.14,19.74-38,23.62-12.34,3.44-26.81,2.31-44.23-3.49-13.31-4.42-28.24-11.51-47-22.33-18.37-10.6-35-19.79-51.85-24.8-18.7-5.55-37.77-3.63-56.66,5.7-31,15.33-55.39,40.72-75.12,63.52-25.85,29.87-43.58,55.3-57.5,82.48-14.23,27.77-25.9,57.29-38.26,88.54-6.36,16.1-12.94,32.75-19.86,49-27.67,65-62.73,129.37-104.22,191.23-63.1,94.08-133.09,191.6-233.22,259.33l-1.23-1.66c99.89-67.56,169.76-164.94,232.77-258.89,41.44-61.77,76.45-126,104.07-190.95,6.92-16.26,13.5-32.89,19.85-49,12.37-31.29,24.06-60.85,38.32-88.7,14-27.3,31.79-52.83,57.73-82.8,19.84-22.93,44.34-48.46,75.64-63.92,19.32-9.55,38.85-11.5,58-5.8,17.12,5.08,33.83,14.33,52.33,25,27.54,15.89,62.62,33.16,89.66,25.6,13.65-3.82,25.88-11.47,37.46-23.4,28.76-29.68,44.14-71.06,55.39-107.63,13.6-44.19,17.11-85,10.74-124.77-5.93-37-23.16-76.38-52.69-120.44l1.6-.95c14,20.93,25.51,41.29,34.13,60.52,9.45,21.06,15.81,41.51,18.89,60.78,6.42,40.07,2.89,81.16-10.79,125.63-7.28,23.66-14.28,42.17-22,58.25-9.87,20.43-20.9,36.8-33.74,50.05l-.22.23" transform="translate(-6496.48 -6516.85)"/><path class="cls-7" d="M7784.94,7213.05q-2.05,2.11-4.2,4.12c-11.87,11.11-24.47,17.67-38.51,20.05-25.88,4.37-57.58-13.79-85.55-29.81l-6.16-3.52c-14.3-8.14-33.19-17.91-52.46-21.29-26.48-4.64-48,6-61.81,14.43-26.32,16-51.06,38.68-77.87,71.41-25.52,31.15-42.69,57.44-55.67,85.22-11.75,25.13-21.6,51.43-32,79.26-10.78,28.76-21.92,58.49-35.32,86.75-25.78,54.37-60.26,106.73-93.36,155.71-29.1,43.05-63.4,92.86-102.2,139.24-42.57,50.9-85.17,91.28-130.25,123.47l-1.26-1.64c97.73-69.79,165.52-163.89,232-262.29,33.07-48.92,67.51-101.23,93.24-155.49,13.36-28.19,24.49-57.89,35.26-86.61,10.44-27.87,20.31-54.2,32.08-79.39,13.05-27.91,30.28-54.31,55.89-85.57,26.93-32.88,51.8-55.69,78.29-71.78,14.1-8.56,36-19.4,63.08-14.65,19.6,3.44,38.71,13.32,53.17,21.55l6.16,3.52c27.66,15.84,59,33.8,84.19,29.54,13.69-2.31,26-8.73,37.62-19.61,29.91-28,45.67-70.75,56.07-104.86,13.29-43.63,16.21-83.61,8.91-122.2-6.58-34.83-23.8-72.65-52.64-115.65l1.59-.95c29,43.25,46.35,81.34,53,116.46,7.36,38.91,4.43,79.18-9,123.11-9.95,32.67-24.83,73.25-52.32,101.47" transform="translate(-6496.48 -6516.85)"/><path class="cls-7" d="M7785.47,7192.38a114.61,114.61,0,0,1-8.7,8.07c-11.93,9.95-24.63,15.19-38.83,16-22.35,1.3-47.88-13.4-72.57-27.63-7.07-4.07-13.75-7.92-20.35-11.4-19.83-10.45-38.4-15.88-55.22-16.15-26-.42-48.19,12.4-66.48,25-28.84,19.85-56.14,46.17-81.16,78.22-23.58,30.21-40.13,57.61-52.08,86.23-8.88,21.29-16.87,44.16-24.59,66.27-11.22,32.12-22.82,65.32-37.95,96.45-24.46,50.35-56.88,95.71-91.2,143.73l-4.92,6.88q-6.29,8.79-12.61,17.69c-30.65,43.07-62.35,87.6-97.93,130.13-40.3,48.18-79.87,86.7-121,117.78l-1.3-1.61c91.68-69.32,156.18-159.93,218.56-247.55l12.6-17.69,4.92-6.89c34.28-48,66.67-93.26,91.07-143.49,15.07-31,26.66-64.19,37.86-96.26,7.74-22.14,15.73-45,24.64-66.36,12-28.77,28.62-56.29,52.29-86.62,25.13-32.18,52.56-58.61,81.53-78.56,18.52-12.75,41-25.73,67.52-25.3,17.15.28,36,5.8,56.17,16.4,6.64,3.5,13.33,7.36,20.42,11.45,24.42,14.06,49.67,28.6,71.4,27.33,13.81-.8,26.18-5.91,37.82-15.62,30.85-25.74,46.33-67.89,56.36-101.72,12.65-42.69,14.82-81.79,6.62-119.51-7.07-32.57-23.71-67.76-52.35-110.75l1.6-.94c28.8,43.23,45.54,78.66,52.67,111.49,8.27,38.06,6.09,77.46-6.66,120.46-9.11,30.74-22.69,68.29-48.18,94.46" transform="translate(-6496.48 -6516.85)"/><path class="cls-7" d="M7786.13,7172.2a99.84,99.84,0,0,1-12.88,11.2,61.8,61.8,0,0,1-39.19,11.93c-19.6-.62-41.63-13.24-62.94-25.46-11.21-6.42-21.79-12.49-32.09-17-20.52-8.92-40.41-11.33-60.8-7.35-27.42,5.34-50.85,20.61-70.15,34.84-64.39,47.48-107.27,102.74-131.07,168.93-6.24,17.37-12,35.64-17.57,53.3-11.18,35.5-22.75,72.2-39.51,106.18-24.21,49.11-57.4,92.34-92.53,138.12l-6.15,8c-11.82,15.41-23.89,31.57-35.55,47.19-57.11,76.44-116.15,155.48-195.48,219.1l-1.33-1.58c79.16-63.49,138.14-142.45,195.18-218.81,11.67-15.62,23.74-31.78,35.57-47.2l6.15-8c35.08-45.71,68.22-88.88,92.36-137.85,16.7-33.85,28.24-70.49,39.41-105.93,5.57-17.68,11.34-36,17.59-53.36,23.92-66.52,67-122,131.65-169.71,19.45-14.35,43.08-29.74,70.84-35.15,20.8-4.05,41.07-1.6,62,7.5,10.41,4.53,21.55,10.91,32.31,17.08,21.08,12.08,42.87,24.57,62,25.17a60,60,0,0,0,38.08-11.6c31.69-23.05,46.72-64.68,56.27-98.37,11.82-41.72,13.11-79.86,3.94-116.6-9.61-38.5-32.71-76.78-51.76-105.82l1.61-.93c19.15,29.19,42.37,67.67,52.06,106.49,9.25,37.09,8,75.55-4,117.59-8.23,29.05-20.52,64-44,88.07" transform="translate(-6496.48 -6516.85)"/><path class="cls-7" d="M7786.65,7152.79a84.6,84.6,0,0,1-16.62,13.35,58.43,58.43,0,0,1-39.64,7.95c-15.28-2.19-31.3-10.91-46.79-19.34-18.24-9.93-34.69-18.57-51.36-23.73-25.11-7.77-47.83-2.13-64.81,3.65-30.45,10.37-56.63,28.38-78.23,44.62-65.67,49.41-105.57,103.4-125.58,169.92-4.15,13.83-8.06,28.17-11.84,42-10.46,38.43-21.28,78.17-39.29,114.4-24.42,49.13-60.79,93.23-95.95,135.87l-5.1,6.18c-18.18,22.06-35.74,44.58-54.33,68.43-52.71,67.61-107.22,137.52-176.62,196.67l-1.37-1.55c69.27-59,123.72-128.89,176.39-196.43,18.6-23.85,36.17-46.38,54.35-68.46l5.1-6.19c35.11-42.57,71.41-86.59,95.75-135.55,17.93-36.08,28.73-75.73,39.17-114.08,3.78-13.88,7.69-28.23,11.86-42.08a296.42,296.42,0,0,1,50.9-98.42c19.89-25.55,44.51-49.22,75.27-72.36,21.7-16.33,48-34.43,78.7-44.87,17.25-5.88,40.35-11.6,66-3.66,16.86,5.22,33.42,13.92,51.76,23.91,15.32,8.34,31.16,17,46.06,19.09a56.63,56.63,0,0,0,38.43-7.71c32.27-19.65,46.78-61.08,55.82-95,11.39-42.75,11.57-79,.58-114-11.65-37.16-33.1-73.13-50.48-100.31l1.62-.91c17.46,27.3,39,63.44,50.73,100.85a181.26,181.26,0,0,1,8,60.7c-.59,17.11-3.41,34.9-8.6,54.39-7.41,27.79-18.47,60.6-39.94,82.63" transform="translate(-6496.48 -6516.85)"/><path class="cls-7" d="M7786.51,7134.26a74.27,74.27,0,0,1-19.51,14.51c-11.76,6-25.27,7.42-40.17,4.29-15.34-3.23-31.32-11.4-46.77-19.3-18.42-9.43-37.48-19.17-55.74-20.75-26.1-2.27-50.11,6.79-70.15,15.95-28.67,13.1-57.1,30.27-86.92,52.51-37.65,28.06-64.08,54.93-83.19,84.56-14.93,23.16-26.06,50.69-34,84.17-2.41,10.1-4.72,20.44-7,30.44-9.27,41.45-18.86,84.31-37.9,123.2-24,49.09-61.79,91.58-98.3,132.67L7202,7642c-36.76,41.42-75.28,86.5-114.49,134-33.76,40.91-72,87.27-116.71,128.06l-1.42-1.52c44.59-40.71,82.83-87,116.56-127.88,39.22-47.52,77.76-92.62,114.53-134.05l4.91-5.53c36.43-41,74.1-83.41,98-132.3,19-38.7,28.52-81.46,37.77-122.81,2.24-10,4.56-20.36,7-30.47,8-33.68,19.24-61.38,34.27-84.7,19.22-29.8,45.78-56.81,83.59-85,29.92-22.3,58.45-39.54,87.22-52.69,20.26-9.26,44.54-18.41,71.08-16.11,18.67,1.62,37.92,11.47,56.53,21,15.32,7.83,31.17,15.94,46.23,19.1,14.45,3,27.55,1.65,38.94-4.14,33-16.78,46.75-57.82,55-91.7,9.65-39.46,8.39-77.21-3.74-112.17-11.17-32.21-29.73-64.12-48.11-93.8l1.64-.88c18.45,29.79,37.07,61.82,48.32,94.24a186.84,186.84,0,0,1,10.3,59.61,217.6,217.6,0,0,1-6.5,53.67c-6.52,26.69-16.42,57.78-36.39,78.29" transform="translate(-6496.48 -6516.85)"/><path class="cls-7" d="M7785.51,7116.6a64.66,64.66,0,0,1-21.48,14.78c-11.62,4.88-25.37,5.27-40.85,1.16-11.19-3-22.89-8.5-34.19-13.85-5.42-2.56-11-5.22-16.48-7.54-22.06-9.41-39.93-12.71-57.93-10.71-33.11,3.67-62.09,19.31-90.11,34.44l-2.25,1.21a679.57,679.57,0,0,0-79.54,49.74c-37.26,27.28-61.37,52.55-78.17,81.93-13.18,23.05-22.41,50.64-28.23,84.34-1.65,9.53-3.08,19.41-4.46,29-2,14.16-4.16,28.81-7.06,43A337.67,337.67,0,0,1,7298,7503c-24.15,50-64.05,91.77-102.64,132.21l-2.87,3c-47.59,49.88-83.68,89.61-117,128.84-5.82,6.84-11.75,13.87-17.49,20.67-30.34,36-61.71,73.13-96.78,107.57l-1.46-1.47c35-34.38,66.36-71.53,96.68-107.46,5.74-6.8,11.67-13.83,17.49-20.67,33.36-39.25,69.47-79,117.08-128.92l2.87-3c38.5-40.35,78.31-82.07,102.35-131.79a335.87,335.87,0,0,0,26.66-78.52c2.9-14.12,5-28.74,7.05-42.88,1.38-9.58,2.81-19.48,4.46-29,5.85-33.9,15.16-61.68,28.44-84.91,16.92-29.59,41.16-55,78.62-82.43a681.67,681.67,0,0,1,79.74-49.87l2.24-1.21c28.17-15.21,57.3-30.93,90.76-34.64,18.36-2,36.54,1.32,58.95,10.87,5.51,2.34,11.13,5,16.56,7.58,11.22,5.31,22.82,10.79,33.82,13.71,15.05,4,28.38,3.63,39.63-1.09,34-14.29,47.08-57.44,53.94-88.65a196.56,196.56,0,0,0,4.62-55.34c-1.05-16.44-5.26-34.49-12.51-53.64-11.23-29.64-28-58.71-45.67-88.37l1.65-.84c17.72,29.74,34.56,58.91,45.84,88.71,7.33,19.35,11.59,37.6,12.65,54.24a198.42,198.42,0,0,1-4.66,55.87c-4.93,22.44-10.61,39.31-17.89,53.09a94.11,94.11,0,0,1-15.56,22" transform="translate(-6496.48 -6516.85)"/><path class="cls-7" d="M7783.75,7099a62,62,0,0,1-22.75,15.06c-11,4.15-25.45,3.72-41.76-1.23-9.27-2.82-18.75-6.76-27.92-10.57-8.53-3.54-17.36-7.21-26-10-25.08-8-46-4-63.07,1-34.81,10.14-67.28,27.79-98.68,44.86l-1.92,1c-26.19,14.24-56.85,31.58-85.59,52.26-34.67,24.94-57.48,50.13-71.77,79.28-11.18,22.81-18.32,50.29-21.82,84-.81,7.72-1.48,15.69-2.13,23.38-1.33,15.64-2.7,31.81-5.24,47.4a291.6,291.6,0,0,1-24.2,77.36c-24,50.92-66.05,92-106.71,131.67l-1.07,1c-39,38.1-80.41,79-119.69,123.6-12.63,14.32-25.43,29.33-37.8,43.85-23.59,27.67-48,56.28-74,83.61l-1.5-1.44c26-27.29,50.41-55.89,74-83.54,12.38-14.52,25.18-29.53,37.82-43.87,39.32-44.61,80.73-85.56,119.78-123.68l1.07-1.05c40.55-39.59,82.49-80.54,106.36-131.19a289.67,289.67,0,0,0,24.06-76.89c2.53-15.52,3.9-31.65,5.22-47.25.65-7.71,1.33-15.68,2.13-23.42,3.53-33.93,10.72-61.6,22-84.6,14.41-29.41,37.38-54.79,72.28-79.9,28.82-20.73,59.53-38.1,85.77-52.36l1.92-1.05c31.48-17.11,64-34.8,99-45,17.38-5.06,38.61-9.14,64.21-1,8.74,2.79,17.61,6.48,26.19,10,9.12,3.78,18.55,7.7,27.72,10.49,15.88,4.83,29.89,5.26,40.52,1.26,35-13.21,46.77-55.4,52.57-86a180.2,180.2,0,0,0-7.62-95.17c-9.94-27.9-25.91-55.87-41.37-82.92l-5.91-10.38,1.68-.81c2,3.45,3.94,6.91,5.91,10.37,15.5,27.14,31.53,55.2,41.54,83.28a182.13,182.13,0,0,1,7.7,96.2c-4.4,23.21-12.2,53-30.88,72.19" transform="translate(-6496.48 -6516.85)"/><path class="cls-7" d="M7781.31,7082.3a56.69,56.69,0,0,1-23.57,14.71c-10.73,3.46-24.76,2.57-42.87-2.7-6.06-1.77-12.4-4-18.54-6.06-13.49-4.64-27.44-9.43-40.27-10.58-25.66-2.29-48.84,5.51-70.06,14.29-35.53,14.69-69.36,32.46-105.17,51.29l-2.27,1.19c-28.86,15.17-61.57,32.36-90.65,53.15-31.37,22.43-52.39,47.66-64.27,77.13-9,22.36-13.94,49.59-15.08,83.25-.2,6.17-.34,12.51-.46,18.65-.35,16.79-.72,34.15-2.68,50.85a253.87,253.87,0,0,1-21.55,75.8c-23.79,52-67.6,91.93-110,130.55l-3.52,3.22c-39.67,36.15-80.69,73.53-119,115.18-19.69,21.43-38.46,43.51-58.33,66.88-16.49,19.41-33.55,39.47-51.1,59l-1.53-1.4c17.54-19.54,34.59-39.6,51.07-59,19.88-23.39,38.66-45.48,58.38-66.93,38.33-41.7,79.38-79.11,119.07-115.29l3.53-3.21c42.24-38.51,85.93-78.33,109.57-130a251.92,251.92,0,0,0,21.41-75.27c1.95-16.61,2.31-33.93,2.66-50.67.13-6.14.26-12.49.47-18.68,1.15-33.87,6.12-61.3,15.21-83.86a155.26,155.26,0,0,1,27.27-44.3c10.29-11.86,22.57-22.84,37.56-33.56,29.18-20.86,61.94-38.08,90.85-53.27l2.27-1.19c35.85-18.84,69.71-36.64,105.31-51.36,21.44-8.86,44.86-16.74,70.93-14.41,13.08,1.17,27.16,6,40.77,10.69,6.11,2.1,12.43,4.27,18.44,6,17.72,5.16,31.37,6,41.74,2.71,26.9-8.66,43.55-36.05,50.89-83.74,4.66-30.2-.51-64.53-14.94-99.29-8.83-21.29-20.62-42.95-32-63.89-2.9-5.32-5.89-10.82-8.77-16.2l1.71-.76c2.87,5.37,5.87,10.87,8.76,16.19,11.43,21,23.24,42.7,32.13,64.1,14.57,35.11,19.79,69.81,15.08,100.37-5,32.65-14.43,55.95-28.48,70.38" transform="translate(-6496.48 -6516.85)"/><path class="cls-7" d="M7777.61,7066.18a52.56,52.56,0,0,1-23.48,14.08c-13.61,3.92-30.81.41-44.27-3.08-3.89-1-7.86-2.12-11.69-3.18-14.92-4.16-30.35-8.45-44.47-8-29,.83-54.39,13.15-78.94,25.06l-7.88,3.8c-28.79,13.78-57.23,27.92-87.35,42.9q-13,6.44-26.05,12.93l-7,3.45c-29.72,14.69-60.45,29.88-87.55,49.59-28.2,20.51-46.53,45.28-56.05,75.75-6.91,22.12-9.53,48.23-8.25,82.18.18,4.81.41,9.72.63,14.48.82,17.73,1.67,36.06.42,53.69-1.79,25.32-8,49.58-18.85,74.19-23.5,53.06-70.56,93.22-112.08,128.65q-7,6-14.12,12c-37.22,31.66-75.72,64.4-111.24,101.29-27.24,28.28-52.52,58.59-79.28,90.67-9.05,10.85-18.4,22.07-27.77,33.11l-1.56-1.36c9.36-11,18.71-22.25,27.76-33.1,26.78-32.11,52.08-62.43,79.36-90.76,35.58-36.95,74.1-69.71,111.36-101.4l14.12-12c41.38-35.32,88.29-75.35,111.64-128.06,10.81-24.42,16.93-48.49,18.7-73.59,1.24-17.52.4-35.8-.42-53.47-.22-4.76-.45-9.68-.63-14.5-1.3-34.17,1.35-60.48,8.32-82.79a141.73,141.73,0,0,1,22.61-43.8,163.91,163.91,0,0,1,34.05-32.81c27.22-19.79,58-35,87.8-49.73l7-3.45,26-12.94c30.13-15,58.58-29.12,87.38-42.9,2.61-1.25,5.23-2.53,7.87-3.8,24.71-12,50.27-24.4,79.67-25.24,14.43-.41,30,3.92,45.07,8.11,3.83,1.07,7.79,2.17,11.66,3.17,13.22,3.43,30.08,6.89,43.25,3.1,35.6-10.25,45.36-52.48,47.28-86.1a185.44,185.44,0,0,0-13-80.55c-8.53-21.54-19.76-43.42-30.62-64.57-3.53-6.88-7.19-14-10.67-21l1.74-.7c3.48,6.94,7.13,14.06,10.66,20.94,10.88,21.2,22.14,43.12,30.71,64.76a187.46,187.46,0,0,1,13.12,81.41c-1.44,25.28-7.29,55.36-25,73.57" transform="translate(-6496.48 -6516.85)"/><path class="cls-7" d="M7771.71,7051.08A48,48,0,0,1,7750,7064c-13.69,3.84-31.6.47-46-2.25-3.55-.66-7.21-1.5-10.75-2.31a151.31,151.31,0,0,0-19.56-3.6c-13.39-1.21-25.46,1.36-33.37,3.4-28.3,7.29-54.64,20.76-80.11,33.78-4.92,2.52-10,5.12-15,7.64-40.89,20.48-82.84,40-118.49,56.39l-9,4.13c-30.22,13.82-61.47,28.1-87.84,48.28-24.31,18.6-40.78,44.61-47.63,75.21-4.84,21.6-5.3,46.55-1.51,80.89.4,3.66.84,7.4,1.25,11,2.13,18.4,4.34,37.43,3.93,55.75-.54,24.54-5.82,48.27-16.13,72.56-10,23.56-25.91,46.35-48.61,69.67a.8.8,0,0,0-.13.13c-19.43,19.92-41.12,37.66-65.42,57.14-7.26,5.81-14.73,11.74-21.95,17.47-35.64,28.29-72.49,57.53-106.24,90.88-35.52,35.1-67.25,74.62-100.84,116.46l-3.83,4.78-1.59-1.33,3.83-4.78c33.62-41.88,65.38-81.43,101-116.59,33.82-33.42,70.7-62.69,106.38-91,7.22-5.73,14.69-11.66,21.94-17.48,42.68-34.2,91-73,113.68-126.29,10.22-24.07,15.45-47.59,16-71.89.4-18.19-1.79-37.15-3.92-55.48-.42-3.62-.85-7.37-1.25-11-3.82-34.56-3.34-59.69,1.54-81.5,6.94-31,23.63-57.35,48.25-76.19,26.51-20.28,57.85-34.61,88.16-48.46l9-4.14c35.64-16.38,77.58-35.89,118.44-56.37,5-2.51,10.1-5.11,15-7.63,25.55-13.06,52-26.57,80.47-33.91,8-2.08,20.32-4.69,34-3.45a155,155,0,0,1,19.83,3.64c3.52.81,7.17,1.64,10.67,2.3,14.18,2.68,31.83,6,45.11,2.27,27.3-7.67,41.61-36.2,43.75-87.23,1-23.26-3.56-46.68-13.85-71.61-7.57-18.34-16.53-36.95-25.2-54.95-4.43-9.18-9-18.68-13.31-28l1.77-.64c4.3,9.27,8.87,18.76,13.29,27.94,8.69,18,17.66,36.66,25.26,55.07,10.4,25.21,15,48.92,14,72.47-.95,22.72-4.16,40.53-9.8,54.46a65.52,65.52,0,0,1-13.49,21.46" transform="translate(-6496.48 -6516.85)"/><path class="cls-7" d="M7762.13,7034.65a40.94,40.94,0,0,1-17.18,10.77c-11.9,3.77-27.13,1.77-41.87-.17-2.26-.3-4.59-.6-6.87-.88-27.38-3.36-50.73,4.93-70.46,13-24.77,10.08-48.16,22.15-72.92,34.93-10.27,5.3-20.89,10.78-31.51,16-37.49,18.59-76,35.07-122.48,54.69-3.79,1.6-7.7,3.23-11.49,4.8-30.54,12.71-62.13,25.85-86,46.93-21.76,19.25-35.42,45.3-39.51,75.34-3.62,26.59.45,55.11,4.9,79.5q.81,4.41,1.63,8.83c3.48,18.63,7.07,37.89,7.59,56.53.67,23.86-3.73,47-13.46,70.87s-25.8,46.6-49.18,69.68c-21.4,21.12-46.71,40.29-67,55.69-9.66,7.32-19.68,14.74-29.36,21.93-34.12,25.31-69.4,51.48-101.56,81.64-35.23,33.05-66.36,71.24-102.26,118.41l-1.62-1.29c36-47.24,67.14-85.49,102.45-118.62,32.23-30.23,67.55-56.43,101.71-81.76,9.67-7.18,19.68-14.61,29.34-21.92,44-33.29,93.8-71,115.69-124.68,9.63-23.59,14-46.53,13.33-70.12-.52-18.49-4.1-37.67-7.56-56.22-.55-2.95-1.1-5.9-1.63-8.84-4.48-24.54-8.57-53.25-4.92-80.11,4.15-30.46,18-56.87,40.07-76.39,24-21.27,55.76-34.46,86.43-47.22,3.78-1.58,7.69-3.2,11.48-4.8,46.44-19.6,84.94-36.07,122.39-54.64,10.61-5.26,21.22-10.74,31.48-16,24.8-12.8,48.22-24.89,73.06-35,19.95-8.12,43.56-16.5,71.39-13.09,2.29.28,4.63.59,6.89.89,14.53,1.91,29.55,3.88,41.06.23,13.16-4.17,23.14-15,30.5-33.16a145.21,145.21,0,0,0,10.54-50.63c1-34.14-17.38-73.65-35.13-111.87-5.16-11.1-10.49-22.57-15.13-33.51l1.8-.58c4.62,10.91,9.95,22.36,15.09,33.44,17.86,38.44,36.33,78.19,35.33,112.81a147.05,147.05,0,0,1-10.66,51.25c-4,9.84-8.76,17.6-14.38,23.36" transform="translate(-6496.48 -6516.85)"/><path class="cls-7" d="M7757.62,7012.27a55.68,55.68,0,0,1-19.06,12.82c-9.55,3.88-21.33,4.35-32.72,4.81-6.32.26-12.85.52-18.91,1.37-27,3.75-50.67,14.63-76.63,27.4-16,7.87-32.27,16.34-48,24.54-21.54,11.2-43.83,22.79-66.7,33.59-37.67,17.77-77,33.37-118.54,49.89l-9.81,3.9c-3.35,1.33-6.79,2.68-10.12,4-29.91,11.72-60.83,23.83-82.93,45.8-19.44,19.31-30.54,45.24-32.16,75-1.4,25.82,4.36,52.81,10.8,78.14.61,2.43,1.24,4.87,1.86,7.3,4.79,18.62,9.74,37.87,11.22,56.66,1.83,23.24-1.73,45.85-10.88,69.13-9.44,24-25.67,46.76-49.64,69.59-21.87,20.82-47.8,39.41-68.64,54.35-11.35,8.15-23.2,16.36-34.65,24.31-33.21,23.05-67.55,46.88-98.75,74.65-32,28.46-62.78,64.06-99.82,115.43l-1.64-1.26c37.12-51.47,68-87.15,100.06-115.7,31.28-27.83,65.66-51.69,98.91-74.77,11.44-7.94,23.28-16.16,34.63-24.29,43-30.82,96.45-69.16,117.7-123.2,9.05-23,12.57-45.37,10.76-68.32-1.47-18.62-6.39-37.78-11.16-56.31l-1.87-7.3c-6.47-25.48-12.27-52.66-10.85-78.75,1.64-30.2,12.93-56.52,32.65-76.13,22.34-22.21,53.43-34.39,83.5-46.17,3.33-1.31,6.77-2.65,10.12-4l9.8-3.9c41.56-16.51,80.82-32.1,118.45-49.85,22.84-10.78,45.11-22.36,66.64-33.56,15.76-8.2,32.06-16.68,48.06-24.55,26.1-12.84,49.91-23.78,77.17-27.57,6.15-.86,12.73-1.13,19.09-1.38,11.23-.46,22.85-.93,32.11-4.69,25.3-10.27,39.33-37.45,39.52-76.52.09-19.19-7.5-40.12-14.94-58.06-3.14-7.58-6.37-15.27-9.49-22.7-8-18.94-16.19-38.52-23.52-57.65l1.83-.51c7.32,19.11,15.54,38.67,23.49,57.59,3.12,7.43,6.35,15.12,9.5,22.71,7.52,18.13,15.19,39.31,15.1,58.86-.14,28.65-7.64,51.05-21.51,65.29" transform="translate(-6496.48 -6516.85)"/><path class="cls-7" d="M7209,7564.22q-3.37,3.46-7,6.92c-24.21,23-51.62,42.61-75.24,58.7-12.74,8.68-26.09,17.37-39,25.77-32.49,21.15-66.08,43-96.58,68.76-33.14,28-64.05,63.68-97.3,112.39l-1.67-1.22c33.34-48.85,64.35-84.66,97.6-112.73,30.58-25.8,64.22-47.7,96.75-68.87,12.9-8.4,26.24-17.09,39-25.76,23.56-16.05,50.9-35.56,75-58.53,21.76-20.73,36.39-41.42,44.72-63.26,8.56-22.45,11.31-44.2,8.39-66.5-2.39-18.32-8.48-37-14.37-55.08q-1.17-3.6-2.33-7.17c-8.1-25.12-15.66-51.89-16.12-77.47-.55-30.36,8.47-56.79,26.08-76.42,22.59-25.21,55.77-37.66,87.86-49.7l.46-.17c12.86-4.83,25.89-9.59,38.49-14.19,32.77-12,63.73-23.27,93.69-36.29,44.63-19.39,86.57-42,123.58-61.9l2.29-1.23c26.2-14.12,53.3-28.71,82-38.5a239.46,239.46,0,0,1,24.38-6.4c10.49-2.37,21.33-4.82,30.58-8.84,25.27-11,39.3-36.43,38.51-69.8-.4-16.85-7.33-35.41-15-54.53-10.21-25.42-20.95-52.72-30.26-80l1.85-.43c9.29,27.25,20,54.52,30.23,79.92,7.75,19.3,14.75,38.05,15.16,55.24.57,24.12-6.46,44.2-19.79,57.88a61.83,61.83,0,0,1-19.73,13.55c-9.4,4.09-20.33,6.56-30.9,8.94a235.82,235.82,0,0,0-24.2,6.36c-28.52,9.73-55.55,24.29-81.7,38.38l-2.29,1.23c-37,19.94-79,42.54-123.71,62-30,13-61,24.35-93.78,36.32-12.6,4.6-25.62,9.36-38.47,14.18l-.47.18c-31.89,12-64.87,24.35-87.2,49.24-17.32,19.32-26.18,45.33-25.64,75.22.45,25.32,8,51.91,16,76.88q1.15,3.59,2.32,7.17c5.92,18.16,12,36.94,14.46,55.45,3,22.62.18,44.67-8.49,67.4-7.49,19.65-20,38.36-38.12,57" transform="translate(-6496.48 -6516.85)"/><path class="cls-7" d="M7201.45,7564q-6.31,6.49-13.58,12.93c-22.49,20-48.59,37-71.62,51.95-14,9.13-28.83,18.2-43.13,27-31.7,19.41-64.47,39.49-94.2,63.33-33.65,27-64.62,62.77-94.68,109.41l-1.69-1.19c30.16-46.79,61.25-82.71,95-109.8,29.81-23.91,62.63-44,94.36-63.45,14.3-8.76,29.08-17.82,43.1-26.94,45.33-29.51,101.74-66.24,121.81-120.45,8.12-21.94,10.17-43.1,6.25-64.69-3.23-17.84-10.24-35.83-17-53.23-1-2.62-2-5.23-3-7.84-12.57-32.67-19.2-60.18-20.24-84.1a121.42,121.42,0,0,1,3.75-37.42,88.33,88.33,0,0,1,16.45-32.32c20.5-25.38,52.54-38.69,80.95-49.18,20.58-7.59,41.63-14.56,62-21.31,25.59-8.47,49.76-16.47,73.4-25.7a1064.16,1064.16,0,0,0,117.4-54.39c13.74-7.4,27.31-15.18,40.44-22.7,22.33-12.8,43.42-24.89,65.72-35.57,9.31-4.46,19.17-8.4,28.7-12.21,10.18-4.08,20.7-8.28,30.29-13,26-12.89,39.59-35.74,38.27-64.33-.72-15.56-7.36-32.83-13.78-49.54l-1.21-3.15c-11-28.6-20-54.82-27.48-80.16l1.88-.34c7.52,25.28,16.49,51.45,27.42,80l1.22,3.16c6.48,16.86,13.18,34.29,13.91,50.18.71,15.28-2.7,28.93-10.13,40.59-6.77,10.63-16.55,19.17-29.07,25.38-9.65,4.78-20.2,9-30.41,13.09-9.51,3.8-19.34,7.73-28.6,12.17-22.24,10.65-43.31,22.73-65.61,35.51-13.14,7.52-26.72,15.31-40.47,22.72a1066.54,1066.54,0,0,1-117.59,54.47c-23.69,9.25-49,17.63-73.5,25.74-20.34,6.74-41.38,13.7-61.92,21.29-28.21,10.4-60,23.61-80.24,48.66-26.53,32.85-26.44,82.57.28,152q1.52,3.91,3,7.83c6.82,17.5,13.86,35.59,17.13,53.62,4,21.94,1.91,43.43-6.33,65.68-7.25,19.59-19.51,38.17-37.26,56.39" transform="translate(-6496.48 -6516.85)"/><path class="cls-7" d="M7194.26,7561.64q-7.44,7.63-16.24,15.17c-22.72,19.47-49.41,36.14-73,50.85-15,9.39-31,18.61-46.38,27.52-31,17.94-63.06,36.49-92.15,58.71-34.22,26.14-64.29,61-91.92,106.57l-1.71-1.15c27.74-45.75,57.94-80.76,92.32-107,29.18-22.29,61.29-40.87,92.33-58.83,15.4-8.91,31.32-18.12,46.34-27.5,48.87-30.51,104.27-65.1,123.91-119.07,7.8-21.42,9.25-42,4.43-63-3.93-17.17-11.57-34.31-19-50.9-1.35-3-2.75-6.18-4.1-9.26-30.61-69.9-33.19-120.64-7.9-155.12,18.21-24.83,48.52-38.64,75.77-48.87,25.07-9.41,51.23-17.17,76.53-24.67,19-5.65,38.75-11.49,57.34-17.88a902.43,902.43,0,0,0,125.15-53.49c25.42-13.31,49.73-27.83,73.25-41.88,13.2-7.89,26.85-16,40.28-23.72,11-6.29,22.33-12.33,33.3-18.17,9.92-5.28,20.17-10.75,29.9-16.25,27.73-15.7,40.38-35.78,38.69-61.39-.92-14-6.61-29.53-12.12-44.55-.92-2.49-1.86-5.07-2.76-7.58-9.6-26.77-17.89-53.9-24.65-80.65l1.9-.27c6.74,26.69,15,53.76,24.59,80.46.9,2.5,1.84,5.07,2.75,7.56,5.56,15.17,11.31,30.85,12.26,45.14,1.18,17.94-4.44,33.22-17.1,46.22a99.72,99.72,0,0,1-22.44,16.79c-9.75,5.52-20,11-29.95,16.27-10.95,5.84-22.28,11.87-33.25,18.15-13.42,7.67-27.06,15.82-40.26,23.7-23.53,14.06-47.86,28.6-73.32,41.93A904.68,904.68,0,0,1,7411.73,7139c-18.63,6.4-38.35,12.25-57.42,17.9-25.26,7.5-51.39,15.25-76.4,24.64-27,10.14-57.06,23.81-75,48.29-24.88,33.92-22.25,84.05,8.06,153.25,1.34,3.08,2.74,6.21,4.09,9.25,7.43,16.68,15.11,33.92,19.1,51.29,4.9,21.37,3.43,42.32-4.49,64.08-6.83,18.77-18.48,36.54-35.39,53.9" transform="translate(-6496.48 -6516.85)"/><path class="cls-7" d="M7186.05,7558.86a239.37,239.37,0,0,1-18.78,17.23c-23.05,19.13-50.19,35.44-74.13,49.83l-.12.07c-15.8,9.5-32.6,18.72-48.85,27.64-30.37,16.66-61.76,33.89-90.24,54.71-34.44,25.18-63.54,59.18-89,104l-1.74-1.11c25.55-45,54.8-79.16,89.43-104.48,28.57-20.88,60-38.13,90.42-54.82,16.24-8.91,33-18.12,48.8-27.61l.12-.07c49.83-29.95,106.3-63.9,125.94-117.53,7.64-20.86,8.63-41,3-61.53-4.48-16.41-12.45-32.68-20.15-48.41-1.81-3.7-3.68-7.51-5.46-11.25-33-69.19-37.5-122.41-13.33-158.18,15.75-23.32,44.05-36.39,69.34-46.81,27.88-11.49,58.29-19.41,87.71-27.07,14.47-3.76,29.43-7.66,43.63-11.88,48.59-14.43,93.05-31.57,132.15-50.91,41.32-20.45,79-44.22,115.52-67.21l5-3.17c10.66-6.72,21.43-13.46,31.84-20,11.82-7.39,24.05-15,35.83-22.48,22-13.92,42.08-30.92,39.55-60.86-1.11-13.16-6.15-27.71-11-41.78-1.23-3.55-2.51-7.23-3.68-10.79a724.88,724.88,0,0,1-21.74-81.43l1.92-.18a721.37,721.37,0,0,0,21.68,81.2c1.17,3.55,2.44,7.21,3.67,10.76,4.92,14.2,10,28.87,11.14,42.28a52.39,52.39,0,0,1-11.38,38.27c-8.09,10.34-19.17,18-28.95,24.22-11.78,7.44-24,15.09-35.83,22.49-10.41,6.51-21.18,13.25-31.84,20l-5,3.17c-36.52,23-74.28,46.81-115.68,67.29-39.19,19.39-83.74,36.56-132.43,51-14.22,4.22-29.2,8.12-43.68,11.89-29.36,7.65-59.72,15.55-87.49,27-25.06,10.33-53.1,23.27-68.59,46.21-23.79,35.21-19.28,87.79,13.41,156.29,1.78,3.73,3.65,7.54,5.45,11.23,7.75,15.82,15.77,32.19,20.3,48.8,5.72,20.95,4.72,41.45-3.05,62.69-6.55,17.88-17.67,34.82-33.74,51.32" transform="translate(-6496.48 -6516.85)"/><path class="cls-7" d="M7179.26,7550.7c-6.17,6.34-12.62,12.18-18.88,17.59-21.25,18.39-46.79,36-80.37,55.54-16.28,9.46-33.65,18.54-50.45,27.32-29.76,15.57-60.53,31.66-88.42,51.3-34.4,24.22-62.47,57.47-85.83,101.67l-1.76-1.07a331.33,331.33,0,0,1,37.79-57.14,253.41,253.41,0,0,1,48.54-45.11c28-19.7,58.81-35.82,88.62-51.4,16.78-8.78,34.13-17.85,50.38-27.29,33.49-19.45,58.95-37,80.11-55.36,18.46-16,38.6-35.66,48.08-60.72,7.67-20.28,8.37-40,2.14-60.29-4.81-15.65-12.84-31.12-20.6-46.08-2.32-4.47-4.72-9.09-7-13.62-15.66-31.41-25.41-60.54-29-86.6-4.12-30.28.28-55.79,13.1-75.83,13.62-21.28,36.58-32.45,63-43.86,30.52-13.18,64-21.06,96.41-28.67,9.95-2.34,20.24-4.76,30.18-7.27,53.39-13.52,98.57-28.87,138.11-46.93,48.37-22.09,91.38-49.16,127.07-72.73,17.23-11.39,34.2-23.14,50.61-34.5,7.15-4.94,14.53-10.06,21.75-15,19.66-13.48,44.13-30.26,40.69-62.21-1.36-12.71-5.84-26.59-10.17-40-1.47-4.56-3-9.28-4.35-13.83a632.93,632.93,0,0,1-18.64-82.37l1.94-.08a632.07,632.07,0,0,0,18.58,82.1c1.35,4.53,2.87,9.23,4.34,13.79,4.36,13.52,8.87,27.51,10.26,40.43,1.56,14.51-2.31,27.25-11.83,38.95-8.5,10.43-20.19,18.45-29.58,24.9-7.22,4.95-14.6,10.06-21.74,15-16.42,11.37-33.4,23.12-50.65,34.52-35.75,23.6-78.82,50.72-127.3,72.86-39.63,18.1-84.91,33.49-138.41,47-10,2.52-20.24,4.94-30.2,7.28-32.32,7.6-65.74,15.45-96.12,28.57-26.14,11.3-48.87,22.35-62.24,43.24-29.8,46.58-7.79,113,15.91,160.54,2.25,4.51,4.65,9.13,7,13.59,7.8,15,15.87,30.6,20.74,46.45,6.37,20.72,5.66,40.84-2.16,61.53-6.38,16.85-17.48,31.28-29.66,43.79" transform="translate(-6496.48 -6516.85)"/><path class="cls-7" d="M7168.93,7546.46c-7.1,7.28-14.63,13.93-21.9,20-21.87,18.39-47.67,35.73-81.17,54.58-16.39,9.22-33.92,18-50.87,26.5-29.26,14.66-59.52,29.82-86.87,48.53-34.09,23.33-61.07,56-82.47,99.79l-1.78-1a292.47,292.47,0,0,1,35.63-56.55,225.73,225.73,0,0,1,47.39-43.88c27.44-18.78,57.75-34,87.06-48.65,16.93-8.49,34.44-17.26,50.8-26.47,33.41-18.8,59.12-36.08,80.91-54.39,18.9-15.89,39.55-35.44,49.43-60,7.93-19.74,8.54-39.17,1.87-59.41-4.93-15-12.74-29.75-20.3-44.05-2.85-5.39-5.8-11-8.53-16.43-15.56-31.21-25.58-61.87-29-88.66-3.93-31.13.73-57.38,13.85-78,13.22-20.8,35-32.46,56.6-42,32.92-14.5,69.49-22.12,104.87-29.49,4.93-1,10-2.09,15-3.15,58.24-12.38,103.59-25.66,142.71-41.79,42.72-17.61,84.93-40.75,132.86-72.81,21.35-14.28,41.86-29.45,61.71-44.12,5.09-3.77,10.35-7.66,15.51-11.45l1.74-1.27c19.57-14.35,43.93-32.2,40.24-63.78-1.46-12.42-5.46-25.94-9.34-39-1.64-5.53-3.33-11.26-4.79-16.76a568.76,568.76,0,0,1-15.5-83.43h2a566.39,566.39,0,0,0,15.45,83.14c1.45,5.46,3.14,11.17,4.77,16.69,3.9,13.16,7.93,26.77,9.41,39.36,2.32,19.81-5.92,34.3-17.22,45.89-7.3,7.5-15.87,13.78-23.69,19.51l-1.74,1.28c-5.16,3.78-10.42,7.67-15.51,11.44-19.86,14.68-40.39,29.86-61.77,44.17-48,32.12-90.33,55.31-133.15,73-39.23,16.18-84.67,29.49-143,41.89-5,1.06-10.1,2.12-15,3.15-35.28,7.35-71.77,14.95-104.52,29.38-21.34,9.4-42.88,20.91-55.86,41.34-32.68,51.43-4.54,125.33,15.15,164.81,2.72,5.44,5.66,11,8.5,16.39,7.61,14.38,15.47,29.25,20.45,44.38,6.82,20.7,6.2,40.57-1.9,60.73-6.19,15.4-16.51,28.83-28,40.62" transform="translate(-6496.48 -6516.85)"/><path class="cls-7" d="M7156.46,7542a294.78,294.78,0,0,1-24.56,22.14c-22,18-48.65,35.52-81.45,53.44-16.12,8.8-33.37,17.13-50.06,25.19-28.86,13.93-58.71,28.34-85.55,46.41-33.51,22.57-59.3,54.77-78.85,98.44l-1.81-1a266.64,266.64,0,0,1,33.39-56.13,203.68,203.68,0,0,1,46.05-43c26.93-18.14,56.83-32.58,85.75-46.54,16.67-8,33.91-16.36,50-25.15,32.71-17.86,59.27-35.28,81.19-53.26,19.08-15.63,40-34.89,50.8-59.23,8.56-19.35,9.45-38.68,2.7-59.09-4.8-14.51-12.23-28.93-19.41-42.87-3.27-6.33-6.64-12.88-9.69-19.3-15-31.55-24.25-63.14-26.75-91.34-2.77-31.4,2.54-58.27,15.79-79.86,12.14-19.8,32.33-31.13,50.47-39.6,33.85-15.8,70.47-23,111.39-30.13,45.12-7.87,97.71-18.27,145.71-35.74,45.65-16.6,90.68-39.75,137.67-70.75,28.45-18.77,54.91-39.38,80.5-59.32l1.64-1.27,3.51-2.72c20.54-15.87,43.81-33.85,39.8-66.36-1.51-12.29-5-25.42-8.44-38.12-1.79-6.65-3.63-13.52-5.15-20.14a514.49,514.49,0,0,1-12.19-84.53l2,.12a511.61,511.61,0,0,0,12.15,84.19c1.5,6.58,3.34,13.44,5.12,20.07,3.43,12.76,7,26,8.5,38.39,1.85,15-1.77,28.29-11.05,40.72-8.06,10.78-19.39,19.54-29.39,27.26l-3.5,2.72-1.64,1.27c-25.61,20-52.1,40.58-80.61,59.39-47.1,31.08-92.24,54.28-138,70.93-48.13,17.51-100.82,27.93-146,35.82-40.79,7.11-77.29,14.28-110.94,30-17.92,8.37-37.85,19.54-49.77,39-24.89,40.58-20.87,102.31,11,169.38,3,6.38,6.41,12.92,9.67,19.24,7.22,14,14.69,28.51,19.54,43.18,6.91,20.89,6,40.67-2.75,60.46-6.28,14.2-15.95,26.67-26.7,37.7" transform="translate(-6496.48 -6516.85)"/><path class="cls-7" d="M7137.1,7544.9a228.84,228.84,0,0,1-25.68,22.46c-24,18.23-51.69,33.2-75.73,45.8-15.57,8.16-32.26,15.84-48.39,23.26-29.14,13.4-59.27,27.26-86,45.23-32.7,22-57.21,53.92-74.95,97.71l-1.84-.91c8.58-21.17,19-40,31-55.94a185.07,185.07,0,0,1,44.54-42.52c26.86-18.05,57-31.94,86.25-45.37,16.11-7.41,32.78-15.08,48.31-23.22,54-28.28,108.45-60,129.9-109.84,8.24-19.13,9.24-38.74,3-60-4.25-14.57-10.72-29.22-17-43.38-3.27-7.39-6.65-15-9.64-22.52-13.09-32.75-20.12-64.23-20.89-93.58-.83-31.23,5.53-58.42,18.92-80.8,9.08-15.18,22.8-26.62,44.49-37.09,28.08-13.55,61.28-22.81,101.51-28.3,51.14-7,100.85-14.44,146.9-28.82,48.12-15,94.32-36.87,141.25-66.78,32.82-20.92,62.4-44.33,87-64.47,1.29-1.07,2.61-2.14,3.94-3.21,21.13-17.14,45.07-36.56,40.64-70.86-1.56-12.07-4.61-24.79-7.57-37.09-1.94-8.08-3.95-16.43-5.5-24.48a425.89,425.89,0,0,1-8.09-85.6l2,.26a424,424,0,0,0,8.06,85.19c1.54,8,3.54,16.33,5.48,24.39,3,12.36,6,25.13,7.61,37.31,4.55,35.3-19.78,55-41.24,72.45l-3.94,3.21c-24.65,20.17-54.29,43.62-87.18,64.58-47.06,30-93.39,51.9-141.66,67-46.19,14.43-96,21.9-147.19,28.89-40,5.46-73.07,14.67-101,28.14-21.38,10.33-34.88,21.57-43.78,36.45-25.88,43.28-25.15,104.61,2.07,172.71,3,7.45,6.34,15.07,9.6,22.45,6.28,14.22,12.78,28.93,17.08,43.65,6.32,21.66,5.31,41.69-3.11,61.23-6.39,14.83-16,28.85-29.24,42.4" transform="translate(-6496.48 -6516.85)"/><path class="cls-7" d="M7121,7541.77c-26.92,27.64-64.57,48.31-99.75,66.16-15.55,7.89-32.36,15.13-48.62,22.13-29.05,12.51-59.09,25.45-85.15,43.24-31.67,21.62-54.83,53.58-70.81,97.71l-1.86-.85c7.69-21.24,17.31-40.08,28.59-56a170.29,170.29,0,0,1,42.85-42.52c26.19-17.88,56.31-30.85,85.43-43.4,16.23-7,33-14.21,48.53-22.08,50.65-25.69,106.45-57.27,127.47-106.95,8.05-19,9.29-39.19,3.78-61.63-3.48-14.19-8.64-28.58-13.62-42.5-3.32-9.27-6.75-18.84-9.61-28.17-11.44-37.28-15.9-71.71-13.27-102.32,2.46-28.62,10-54.3,21.73-74.24,9-15.21,22.48-27.18,41.33-36.59,29.19-14.58,63.29-21.22,89.74-25.36,13.57-2.13,27.66-3.42,41.28-4.66,10.07-.91,20.47-1.86,30.48-3.14a605,605,0,0,0,74.14-13.94c49.59-12.81,96.47-32.79,143.33-61.1,29.92-18.06,59.91-40,91.69-67.1l3.53-3c14.74-12.49,30-25.41,38.29-42.62,4.34-9,5.61-20.17,3.88-34.19-1.6-12.94-4.53-26.61-7.37-39.82-2.34-10.92-4.76-22.21-6.39-32.94-3.63-23.89-4.37-49-2.33-79l2,.36c-2,29.87-1.3,54.84,2.31,78.59,1.62,10.66,4,21.92,6.37,32.81,2.85,13.26,5.79,27,7.4,40,1.77,14.39.45,25.91-4,35.21-8.47,17.53-23.84,30.56-38.71,43.17l-3.53,3c-31.85,27.14-61.91,49.15-91.9,67.26-47,28.4-94,48.44-143.8,61.29a606.7,606.7,0,0,1-74.36,14c-10,1.29-20.47,2.24-30.55,3.15-13.59,1.24-27.64,2.52-41.15,4.64-26.33,4.13-60.26,10.73-89.24,25.2-18.55,9.26-31.84,21-40.63,35.95-11.63,19.73-19.06,45.14-21.5,73.5-2.61,30.36,1.82,64.53,13.18,101.56,2.85,9.28,6.27,18.84,9.58,28.08,5,14,10.18,28.42,13.69,42.71,5.61,22.87,4.34,43.41-3.87,62.81-6.56,15.52-16.46,29.27-28.5,41.63" transform="translate(-6496.48 -6516.85)"/><path class="cls-7" d="M7105.79,7536.55a205.11,205.11,0,0,1-20.32,18.1c-20.69,16.23-45.67,31.27-78.62,47.32-15.38,7.5-32.2,14.14-48.47,20.56-29.27,11.55-59.53,23.49-85,41.49-30.53,21.59-52.88,54.76-66.44,98.58l-1.88-.77c6.61-21.36,15.31-40.34,25.88-56.41a159.68,159.68,0,0,1,41.18-43.05c25.6-18.1,56-30.09,85.32-41.68,16.24-6.4,33-13,48.35-20.5,32.84-16,57.72-31,78.32-47.13,23-18.05,38.3-36.65,46.76-56.87,14-33.44,3.74-72.08-6.17-109.45-2.7-10.16-5.48-20.67-7.74-30.91-8.27-37.5-10-72.24-5.26-103.25,4.54-29.4,12.89-54.47,24.84-74.54,8.86-14.89,22-27,39.17-35.9,24.46-12.75,53.74-18.42,79.16-22.27,21.07-3.2,42.83-4.88,63.89-6.5,26.38-2,53.65-4.15,78.77-9.27,49.15-10,97.4-28.23,143.41-54.11a566.13,566.13,0,0,0,96-68.4l2.71-2.38c15.71-13.78,32-28,40.5-47,4.21-9.33,5.28-21,3.38-36.86-1.46-12.12-3.82-24.72-6.09-36.91-2.5-13.39-5.09-27.24-6.46-40.32-2.48-23.79-1.93-48,1.8-78.51l1.95.46c-3.71,30.36-4.26,54.44-1.79,78.07,1.36,13,3.94,26.81,6.43,40.16,2.28,12.22,4.64,24.86,6.11,37,1.94,16.18.83,28.2-3.52,37.84-8.69,19.27-25.08,33.63-40.92,47.53l-2.71,2.37a568.14,568.14,0,0,1-96.26,68.61,519,519,0,0,1-67.66,32,480.44,480.44,0,0,1-76.25,22.32c-25.23,5.15-52.57,7.26-79,9.3-21,1.62-42.75,3.3-63.75,6.48-25.27,3.84-54.38,9.46-78.6,22.1-16.86,8.79-29.82,20.66-38.52,35.28-11.83,19.88-20.11,44.74-24.61,73.91-4.75,30.78-3,65.28,5.22,102.53,2.25,10.21,5,20.69,7.72,30.83,10,37.69,20.33,76.65,6.1,110.67-5.77,13.79-14.66,26.82-26.94,39.43" transform="translate(-6496.48 -6516.85)"/><path class="cls-7" d="M7647.55,6966.67c-6.11,6.26-12.65,12.17-19.12,18l-2,1.76a468.32,468.32,0,0,1-100,68.55c-45.24,23.23-92.71,38.42-141.09,45.14-21.08,2.93-43.58,3.94-65.34,4.91-23.41,1-47.61,2.12-70.72,5.57-31.23,4.66-53.33,11-71.65,20.47-16.1,8.35-28.78,20-37.68,34.61-11.94,19.59-21.27,44.83-27.75,75-6.83,31.87-7.81,66.07-2.9,101.66,1.63,11.8,4,24.12,6.21,36,7.45,39.45,15.15,80.24.73,114.86-8.54,20.51-23.7,39.36-45,56-20.27,15.82-45.25,30.44-78.62,46-15.32,7.15-31.85,13.64-47.83,19.92-28.82,11.33-58.61,23-84.4,39.59-29.8,19.13-50.42,51.63-63.05,99.35l-1.9-.7c12.74-48.15,33.59-81,63.75-100.33,25.93-16.65,55.81-28.39,84.7-39.74,16-6.27,32.46-12.75,47.74-19.88,33.24-15.53,58.12-30.09,78.3-45.83,21.11-16.47,36.09-35.09,44.52-55.34,14.21-34.11,6.56-74.62-.83-113.79-2.26-11.93-4.59-24.26-6.22-36.11-4.95-35.82-4-70.25,2.92-102.33,6.52-30.38,15.92-55.8,28-75.55,9.06-14.88,22-26.73,38.33-35.22,18.5-9.59,40.77-16,72.2-20.65,23.21-3.46,47.46-4.54,70.91-5.59,21.72-1,44.18-2,65.17-4.89,48.18-6.7,95.46-21.83,140.53-45a466.54,466.54,0,0,0,99.69-68.3l2-1.76c16.64-15,33.85-30.52,42.31-51.24,5.13-12.55,4.34-27.32,2.89-40.11-1.26-11.19-3.34-22.77-5.34-34-2.81-15.67-5.71-31.87-6.37-47-1.05-24.21,1.07-49.08,6.68-78.25l1.93.58c-5.58,29-7.69,53.76-6.64,77.82.65,15,3.54,31.11,6.33,46.72,2,11.23,4.09,22.84,5.37,34.1,1.47,13,2.26,28.08-3,41s-13.88,23.86-23.61,33.85" transform="translate(-6496.48 -6516.85)"/><path class="cls-7" d="M7631.72,6973.06c-5.72,5.86-11.65,11.33-17.26,16.5-28.38,26.17-63.05,48.73-103,67.06A390.86,390.86,0,0,1,7374,7091.81c-15,1-30.57,1.39-45.63,1.79-27.44.73-55.82,1.48-82.84,5.71-19.54,3.06-44.73,8-66.18,18.76a91.06,91.06,0,0,0-36.38,33.11c-12.42,19.56-22.22,43.92-30.85,76.64a328.59,328.59,0,0,0-10.58,100c.69,14.17,2.4,29.16,4.05,43.67,4.59,40.35,9.33,82.07-5.46,116.74-9.18,21.52-24,40.27-44.15,55.73-19.72,15.17-44.34,29.08-77.46,43.77-14.46,6.42-30,12.24-45.07,17.86-29.4,11-59.8,22.36-85.68,39.3-29.78,19.5-49.45,52.44-60.15,100.69l-1.92-.63c10.8-48.71,30.71-82,60.87-101.73,26-17,56.52-28.45,86-39.47,15-5.62,30.56-11.43,45-17.82,33-14.64,57.5-28.49,77.11-43.57,19.89-15.29,34.57-33.82,43.64-55.07,14.6-34.23,9.89-75.7,5.33-115.81-1.66-14.53-3.37-29.56-4.07-43.8a330.69,330.69,0,0,1,10.65-100.57c8.67-32.9,18.54-57.41,31.05-77.12a92.87,92.87,0,0,1,37-33.7c21.67-10.91,47-15.85,66.71-18.93,27.14-4.25,55.58-5,83.08-5.73,15-.39,30.59-.8,45.56-1.79a388.92,388.92,0,0,0,136.78-35c39.83-18.25,74.35-40.71,102.61-66.77,26.41-24.35,56.35-51.95,46.26-99-7.69-35.78-10.81-62-10.14-85.15.73-24.94,4.76-50.55,12.33-78.31l1.9.72c-7.53,27.61-11.55,53.09-12.27,77.87-.66,23,2.45,49.07,10.09,84.68,4.61,21.43,1.45,40.82-9.63,59.28-5.47,9.09-12.48,17.33-19.86,24.91" transform="translate(-6496.48 -6516.85)"/><path class="cls-7" d="M7619,6976c-5.3,5.43-10.78,10.56-16.06,15.49l-.62.59c-27.7,25.89-63,47.46-105,64.12-41.36,16.41-86,24.84-132.72,25.05-43.81.2-83.17.84-121.12,6.65-37.33,5.72-74.86,15.5-96.49,48-16.45,24.7-26.77,54.95-33.91,78.55-10.35,34.17-16,66.73-17.29,99.54-.64,16.38,0,33.86.64,50.75,1.51,40.3,3.06,82-11.85,117a137.48,137.48,0,0,1-44.62,56.87c-19,14.22-42.91,27.15-75.21,40.69-13.54,5.67-28.08,10.81-42.13,15.79-30.06,10.64-61.15,21.64-87.12,39.12-30,20.16-48.82,53.78-57.61,102.77l-1.94-.55c4.13-23,10.65-43,19.36-59.52,9.88-18.69,23-33.62,39-44.37,26.16-17.59,57.35-28.63,87.51-39.31,14-5,28.54-10.1,42-15.75,32.18-13.48,56-26.35,74.86-40.49a135.7,135.7,0,0,0,44.08-56.19c14.77-34.66,13.22-76.12,11.72-116.21-.63-16.94-1.29-34.45-.64-50.9,1.29-33,7-65.68,17.36-100,7.18-23.71,17.55-54.12,34.12-79,9.86-14.81,23.58-25.95,41.93-34.06,14.63-6.47,31.82-11,55.72-14.65,38.08-5.84,77.51-6.48,121.4-6.68,46.48-.21,90.91-8.6,132.05-24.92,41.78-16.58,76.93-38.05,104.48-63.79l.62-.59c17.39-16.25,37.11-34.68,44.32-59,4-13.65,1-28.89-2.49-42-7.7-28.87-9.76-58.86-6.31-91.68,2.72-25.82,8.82-51.55,18.66-78.65l1.86.85c-9.79,27-15.86,52.55-18.56,78.22-3.43,32.58-1.39,62.34,6.25,91,3.57,13.38,6.65,29,2.48,43.05-5.14,17.32-16.41,31.62-28.72,44.26" transform="translate(-6496.48 -6516.85)"/><path class="cls-7" d="M7605.16,6979.06c-4.73,4.85-9.62,9.46-14.34,13.91l-.57.54c-27,25.42-62.65,45.61-106.09,60-42.13,14-87.8,16.17-126.92,16.48s-77.35,1-114.42,6.37c-33,4.75-69.63,13.67-91,43.79-16.83,23.72-27.69,52.71-36.92,80.5-11.56,34.81-19.08,67.56-23,100.15-2.17,18-2.94,37.27-3.68,55.93-1.6,40.07-3.26,81.5-18.31,116.82-10.44,24.52-25.72,44.23-45.4,58.57-18.55,13.53-41.07,25.15-73,37.69-12.52,4.92-25.81,9.4-38.66,13.74-30.67,10.35-62.38,21.06-89.22,39.11-29.78,20-48.42,55.57-55.39,105.65l-1.95-.49c7.05-50.58,25.93-86.53,56.11-106.83,27-18.17,58.86-28.91,89.63-39.3,12.83-4.33,26.1-8.81,38.58-13.71,31.8-12.49,54.21-24.05,72.64-37.48,19.43-14.17,34.52-33.65,44.85-57.89,14.92-35,16.57-76.28,18.17-116.18.74-18.7,1.51-38,3.68-56.08,3.94-32.71,11.48-65.59,23.08-100.5,9.27-27.92,20.18-57.05,37.14-80.95,21.75-30.63,58.79-39.67,92.16-44.48,37.19-5.36,75.46-6.08,114.68-6.39,39-.31,84.46-2.5,126.35-16.39,43.2-14.32,78.69-34.39,105.46-59.64l.58-.54c17.34-16.35,37-34.88,42.33-59.74,2.24-10.45-1.29-22.42-5-35.09-.54-1.83-1.1-3.73-1.63-5.61-10.13-35.47-5.69-69-.73-97.69a322.08,322.08,0,0,1,25.6-81.58l1.8,1a320,320,0,0,0-25.46,81.14c-4.92,28.46-9.33,61.75.67,96.82.53,1.86,1.09,3.76,1.63,5.59,3.81,12.92,7.41,25.13,5.07,36-4,18.55-15.65,33.54-28.48,46.71" transform="translate(-6496.48 -6516.85)"/><path class="cls-7" d="M7588.11,6983.88c-3.94,4-8.09,8-12.31,11.93-26,24.18-62.79,42.83-106.45,53.92-38.78,9.85-82.07,10.14-127.9,10.44-32.65.22-66.4.45-98.45,4.45-16.17,2-33.23,4.67-48.48,10.39-14.08,5.28-26.7,15.13-37.5,29.27-38.78,50.75-56.49,124.94-67.59,183.89-3.5,18.57-5.86,38.47-8.14,57.71-4.76,40.1-9.68,81.56-25.11,117.57-11.2,26.15-25.49,45.42-43.69,58.91s-41,24.9-73.69,36.83c-11.36,4.14-23.31,8-34.87,11.66-31.88,10.21-64.84,20.75-92.44,39.89-29.91,20.73-47.72,57.35-53,108.86l-1.95-.42c2.42-23.83,7.67-44.87,15.61-62.54,9.16-20.4,22-36.4,38.06-47.55,27.81-19.28,60.89-29.87,92.89-40.11,11.54-3.69,23.47-7.51,34.8-11.64,32.53-11.87,55.12-23.16,73.26-36.6,18-13.32,32.08-32.36,43.16-58.23,15.32-35.77,20.23-77.11,25-117.08,2.29-19.28,4.66-39.21,8.16-57.83,7.54-40,15.47-71.65,24.95-99.51,11.94-35.06,26-62.9,43-85.11,11-14.39,23.86-24.42,38.25-29.81,15.42-5.79,32.6-8.47,48.88-10.5,32.16-4,66-4.23,98.68-4.45,45.71-.31,88.88-.6,127.45-10.39,43.39-11,79.94-29.53,105.71-53.52,18.41-17.15,35.33-34.57,40-59.09,1.53-8-2.06-18.25-5.54-28.14-1.57-4.46-3.06-8.69-4.11-12.75-10.07-38.85-3.11-75.93,5-107.08,7.32-28,18.56-55,34.37-82.36l1.73,1.12c-15.73,27.25-26.91,54.05-34.19,81.94-8.07,30.91-15,67.7-5,106.11,1,4,2.5,8.15,4.06,12.57,3.56,10.14,7.25,20.62,5.62,29.17-3.68,19.35-14.75,34.28-28.19,48.08" transform="translate(-6496.48 -6516.85)"/><path class="cls-7" d="M7571.52,6987c-4.21,4.33-8.62,8.37-12.94,12.21-24.9,22.11-61.12,37.59-104.76,44.77-27.41,4.51-58.25,4.52-88.07,4.54-7.76,0-15.78,0-23.63.09-31.39.33-65.05,1.05-98.47,4-16.13,1.43-30.55,3-43.62,7.37s-25.43,13.75-37.73,28.57c-40,48.19-58.14,122.16-74.18,187.43-4.35,17.73-8.1,36.58-11.73,54.8-8.1,40.72-16.47,82.82-32.75,120.39-12.58,29-26.93,48.74-45.16,62-22.63,16.44-50.18,26.84-71.65,34.06-8.5,2.86-17.31,5.64-25.82,8.33-35,11-71.1,22.45-101.27,43.66-30.52,21.47-47.65,59-50.9,111.6l-2-.34c3.28-53.15,20.65-91.13,51.61-112.9,30.38-21.37,66.65-32.82,101.73-43.89,8.51-2.69,17.31-5.46,25.79-8.32,21.36-7.18,48.75-17.52,71.19-33.83,18-13.07,32.17-32.55,44.63-61.31,16.2-37.4,24.55-79.41,32.63-120,3.63-18.25,7.38-37.11,11.75-54.88,16.08-65.45,34.31-139.62,74.52-188.11,12.5-15.07,25.09-24.58,38.49-29.08,13.25-4.46,27.78-6,44-7.46,33.48-3,67.19-3.7,98.62-4,7.86-.08,15.89-.09,23.65-.09,29.74,0,60.5,0,87.77-4.52,43.31-7.12,79.23-22.46,103.89-44.36,16.43-14.59,34.2-32.22,37-56.85.88-7.61-2.67-17.33-6.1-26.73a122.34,122.34,0,0,1-5.22-16.55c-4.07-19.85-4.28-40.22-.64-62.27,3.18-19.27,8.91-37.41,14.64-54.15a339.86,339.86,0,0,1,41.38-83.07l1.66,1.23a338.48,338.48,0,0,0-41.18,82.66c-11.37,33.25-22.77,72.33-13.94,115.43a120.22,120.22,0,0,0,5.14,16.25c3.51,9.62,7.15,19.57,6.21,27.65-2.16,18.69-12.61,33.36-24.66,45.72" transform="translate(-6496.48 -6516.85)"/><path class="cls-7" d="M7554.38,6989a126.13,126.13,0,0,1-14.7,12.77c-13,9.72-28.52,17.53-46.23,23.22a243.12,243.12,0,0,1-55.85,10.44c-36.91,2.79-74.7,3.13-114.71,3.49-25.71.23-52.3.47-78.46,1.43l-2.38.08c-12.59.45-25.61.92-37.06,4.3-15.52,4.59-27.13,16.62-37.69,28.55-22.56,25.48-36.36,58.71-47.92,90.83-12.73,35.39-23.62,72.06-31.69,100-3.43,11.91-6.84,24.23-10.13,36.14-12.57,45.45-25.57,92.45-45,136.28-10.62,23.93-23.47,48.3-45.29,64.44-19.94,14.75-44.95,24.13-71,33.22-7.94,2.77-16.17,5.51-24.13,8.16-35.77,11.89-72.76,24.2-103.59,45.76s-47.1,59-49.33,114l-2-.31c1.05-26,5-47.45,12.08-65.61,8.24-21.16,21-37.9,38-49.75,31-21.71,68.14-34.05,104-46,8-2.64,16.18-5.38,24.11-8.15,25.9-9,50.79-18.37,70.54-33,21.51-15.91,34.23-40.06,44.76-63.78,19.41-43.71,32.4-90.65,44.95-136,3.29-11.92,6.7-24.24,10.14-36.16,8.07-28,19-64.72,31.72-100.16,11.62-32.27,25.5-65.68,48.24-91.37,10.72-12.11,22.52-24.32,38.47-29,11.67-3.45,24.81-3.92,37.52-4.37l2.38-.09c26.19-1,52.79-1.2,78.51-1.43,40-.36,77.74-.7,114.59-3.48,41.27-3.13,76.24-14.65,101.15-33.33,22.18-16.63,33.12-34,33.43-53,.14-8.24-3-17.91-6.09-27.26-2.29-7-4.66-14.21-5.65-20.84-7-46.67,6.72-84.81,22.64-123,13.45-32.27,30.19-60.81,49.78-84.82l1.58,1.34c-19.48,23.89-36.15,52.29-49.53,84.41-15.82,37.95-29.44,75.83-22.53,122,1,6.45,3.31,13.59,5.57,20.49,3.12,9.52,6.34,19.35,6.2,27.93-.25,14.75-6.63,28.48-19.4,41.59" transform="translate(-6496.48 -6516.85)"/><path class="cls-7" d="M7534.86,6989.17a85.84,85.84,0,0,1-15.33,12.26c-28.22,18-64.21,22.48-98.89,24.66-52.55,3.29-111.65,3.83-175.65,1.62l-3.72-.14c-11.5-.43-22.36-.84-32.34,1.69-16,4.06-27.49,17.19-37.61,28.78l-.21.24c-37.26,42.63-55.63,103.35-73.4,162.06-3.2,10.57-6.5,21.5-9.88,32.18l-.25.81c-17.84,56.52-36.29,115-64.11,169.11-11.81,23-25.19,49-47.74,65.94-20.15,15.13-45.8,25.52-68.25,34.08-11,4.17-22.48,8.15-33.62,12-33.09,11.44-67.3,23.27-96.13,43-32.36,22.1-48.59,61.15-48.24,116.06l-2-.22c-.34-55.53,16.13-95.07,49-117.5,29-19.82,63.35-31.68,96.54-43.16,11.13-3.84,22.63-7.82,33.56-12,22.35-8.52,47.87-18.86,67.85-33.86,22.24-16.7,35.53-42.56,47.26-65.37,27.75-54,46.18-112.38,64-168.84l.25-.81c3.37-10.67,6.68-21.59,9.88-32.16,8.92-29.49,18.15-60,29.61-87.75,12.86-31.16,27.29-55.67,44.12-74.93l.21-.24c10.29-11.77,21.94-25.11,38.48-29.3,10.23-2.6,21.74-2.16,32.87-1.74l3.71.13c63.94,2.21,123,1.67,175.46-1.62,34.44-2.16,70.16-6.6,98.05-24.39,20.62-13.15,30.53-29.23,29.44-47.8-.51-8.63-3.26-18-5.92-27.06-2.42-8.26-4.93-16.8-5.77-24.85-2.41-23.13,0-46.15,7.43-70.39,6.64-21.72,16.3-41.47,24.82-58.9,17-34.77,36.11-63.05,58.38-86.45l1.5,1.44c-22.15,23.27-41.15,51.41-58.09,86-17.56,35.9-37.47,76.59-32.09,128.29.82,7.87,3.3,16.32,5.7,24.49,2.7,9.17,5.48,18.65,6,27.52a45.8,45.8,0,0,1-8.6,29.58,61.73,61.73,0,0,1-6.28,7.53" transform="translate(-6496.48 -6516.85)"/><path class="cls-7" d="M7513.45,6986.83a61.45,61.45,0,0,1-15.19,11.1c-27.29,14.47-63.3,17.47-94.91,19.14-50.09,2.66-103.58,4.67-158.31-2.22l-2.63-.33c-11-1.41-21.36-2.73-30.93-.67-15.76,3.4-26.91,16.51-36.76,28.08l-1.5,1.77c-36.64,42.94-54.26,99.57-72.92,159.52-3.87,12.44-7.87,25.31-12,37.95-17.15,52.08-39.06,113-71.64,169.7l-.85,1.47c-10.86,18.93-22,38.39-37.22,54a114.83,114.83,0,0,1-11,10c-20.4,16.13-45.59,27.26-67.54,36-13.37,5.34-27.61,10.21-41.39,14.92-31.33,10.72-63.73,21.8-91.3,39.87-33.69,22.09-49.7,61.71-47.6,117.74l-2-.15c-2.12-56.7,14.15-96.83,48.36-119.26,27.75-18.19,60.25-29.31,91.69-40.06,13.75-4.7,28-9.57,41.3-14.89,21.84-8.72,46.89-19.79,67.12-35.78,20.87-16.5,34.58-40.39,47.84-63.49l.84-1.46c32.51-56.61,54.39-117.39,71.5-169.39,4.16-12.62,8.16-25.49,12-37.93,18.71-60.12,36.38-116.91,73.25-160.11l1.5-1.76c10-11.77,21.36-25.12,37.69-28.64,9.88-2.13,20.41-.78,31.57.65l2.63.33c54.56,6.87,107.95,4.86,158,2.21,31.41-1.67,67.19-4.64,94.16-18.94,13.21-7,28.37-20.15,25.66-43.05-.95-8-3.29-16.45-5.55-24.62-2.61-9.47-5.32-19.27-5.91-28.47-1.66-26,5.45-48.66,12.88-69.69a424.31,424.31,0,0,1,29.7-65.14c20.31-36.54,42.24-65.26,67-87.8l1.41,1.51c-24.66,22.42-46.48,51-66.7,87.39a422.38,422.38,0,0,0-29.59,64.88c-7.36,20.85-14.42,43.34-12.78,69,.57,9,3.25,18.69,5.84,28.06,2.29,8.25,4.64,16.78,5.61,24.92,1.77,14.92-3.68,25.84-11.34,33.71" transform="translate(-6496.48 -6516.85)"/><path class="cls-7" d="M7490.13,6982.29a52.35,52.35,0,0,1-14.93,10.26c-24.89,12-56.38,14.36-89.17,15.84l-3.54.16c-42.31,1.92-90.26,4.1-138.15-6.78l-.1,0c-11.61-2.64-22.58-5.13-32.51-3-16,3.47-27.24,17.15-37.15,29.23l-1.35,1.63c-21.39,26-37.85,56.15-50.3,92.2-6.67,19.3-12.86,39.58-18.85,59.2-4.91,16.06-10,32.68-15.38,49-23,69.45-47.48,123.94-77.13,171.49L7010,7404c-13.79,22.15-28.05,45-48.25,61.68-16.88,13.92-38.55,26-68.18,38-15.34,6.21-31.92,11.58-48,16.77-30.34,9.83-61.72,20-88.44,36.73-35.16,22-51.05,62.1-47.24,119.09l-2-.1c-1.79-26.75.83-50.19,7.79-69.67,7.88-22.06,21.42-39.22,40.24-51,26.89-16.85,58.37-27.05,88.81-36.91,16-5.18,32.56-10.54,47.85-16.73,29.46-11.92,51-23.91,67.74-37.72,20-16.47,34.17-39.25,47.89-61.27l1.55-2.48c29.57-47.44,54-101.82,77-171.14,5.39-16.29,10.46-32.89,15.36-48.95,6-19.63,12.2-39.93,18.87-59.26,12.52-36.24,29.07-66.57,50.6-92.71l1.34-1.64c10.08-12.28,21.51-26.2,38.11-29.8,10.34-2.24,21.51.3,33.35,3l.1,0c47.62,10.82,95.43,8.65,137.61,6.74l3.55-.17c32.59-1.47,63.87-3.77,88.46-15.66,18.11-8.76,25.43-21.19,22.37-38-1.15-6.27-2.69-12.7-4.19-18.92-2.85-11.83-5.79-24.06-6-35.37-.44-27.71,9.41-51.1,18.09-71.73a474.76,474.76,0,0,1,35.25-67.49c23.87-38.31,48.6-67.35,75.61-88.77l1.33,1.58c-26.86,21.31-51.47,50.21-75.24,88.36a474,474,0,0,0-35.12,67.25c-8.62,20.47-18.39,43.67-18,71,.17,11.09,3.09,23.21,5.91,34.93,1.5,6.25,3,12.71,4.21,19,1.76,9.67.19,18.15-4.68,25.19a34.51,34.51,0,0,1-3.67,4.45" transform="translate(-6496.48 -6516.85)"/><path class="cls-7" d="M7463.68,6978.12a41.28,41.28,0,0,1-12.82,8.6c-23.12,10.36-51.94,12.24-81.91,13.37-38.55,1.47-82.24,3.12-126.31-11.57-12.91-4.3-22.81-6.56-32.25-4.55-16.81,3.57-28.39,18.12-38.61,31l-1.06,1.33c-21.26,26.66-37.23,56.91-48.82,92.48-5.9,18.09-11.35,37.07-16.63,55.43-5.17,18-10.53,36.65-16.41,54.88-22.23,68.92-48.72,126.16-81,175l-.51.77c-11.93,18.05-24.18,36.6-39.33,52.16a153.69,153.69,0,0,1-11.45,10.64c-17.55,14.62-40,27.27-68.55,38.66-17,6.78-35.55,12.28-53.5,17.61-29.88,8.86-60.77,18-87.26,33.59-36.14,21.23-52.4,62.78-47,120.17l-2,0c-2.54-27.21-.33-51,6.57-70.78,7.82-22.39,21.71-39.57,41.28-51.07,26.67-15.67,57.67-24.86,87.64-33.75,17.91-5.32,36.44-10.82,53.36-17.56,28.4-11.32,50.68-23.88,68.09-38.4,20.51-17.1,35.74-40.14,50.46-62.43l.51-.78c32.17-48.71,58.6-105.82,80.78-174.58,5.87-18.2,11.23-36.82,16.4-54.83,5.28-18.37,10.73-37.36,16.64-55.49,11.65-35.76,27.72-66.19,49.11-93l1.05-1.32c10.4-13.06,22.18-27.86,39.59-31.56,10.94-2.33,22.92,1.16,33.29,4.62,43.71,14.57,87.21,12.92,125.59,11.47,29.78-1.13,58.41-3,81.24-13.23,15.59-7,22.09-18.66,19.32-34.7-.8-4.64-1.76-9.45-2.7-14.11-2.78-13.89-5.66-28.25-4.88-41.06,1.72-28,13-51.34,23-71.93a540.06,540.06,0,0,1,41.17-70.28c27.79-40.42,54.47-68.78,84-89.27l1.24,1.65c-29.32,20.37-55.86,48.6-83.54,88.85a538.47,538.47,0,0,0-41,70.06c-9.91,20.45-21.13,43.63-22.83,71.27-.77,12.55,2.09,26.78,4.85,40.55.93,4.67,1.9,9.5,2.71,14.16,2,11.51-.53,20.89-7.47,28" transform="translate(-6496.48 -6516.85)"/><path class="cls-7" d="M7436.14,6973.86a31.92,31.92,0,0,1-10.14,6.81c-21,9.3-46.82,10.76-73.66,11.53-20.51.59-44.41.87-68.39-3.22-13.12-2.24-27.57-6.75-44.19-13.76-13.64-5.77-24.19-7.48-33.18-5.37-18.63,4.35-31.22,20.73-41.33,33.89-17.7,23-32.1,51.6-42.81,85-6.6,20.57-12.48,42.39-18.17,63.5-5,18.43-10.11,37.48-15.81,56.09-21.71,70.89-49,129.73-83.31,179.88-16.31,23.82-32.67,46.61-53.48,63.7-18.06,14.84-41.15,27.68-68.61,38.18-18.37,7-38.6,12.35-58.17,17.49-29.86,7.86-60.75,16-87.4,30.53-47.6,26-51.8,80.15-46.94,121h-1.95c-4.93-41.41-.63-96.31,47.8-122.76,26.83-14.65,57.82-22.79,87.79-30.67,19.52-5.14,39.71-10.45,58-17.44,27.29-10.43,50.22-23.19,68.14-37.91,20.64-17,36.92-39.64,53.16-63.35,34.25-50,61.43-108.71,83.1-179.43,5.69-18.58,10.82-37.62,15.79-56,5.69-21.13,11.58-43,18.19-63.58,10.77-33.55,25.26-62.31,43.07-85.48,10.28-13.36,23.07-30,42.29-34.49,9.42-2.2,20.35-.46,34.42,5.48,16.46,7,30.76,11.41,43.72,13.63,23.8,4.06,47.58,3.78,68,3.19,26.65-.76,52.28-2.21,73-11.38,13.21-5.85,18.39-16.58,15.83-32.82-3-18.91-5.69-38.84-3.26-56.45,3.85-27.89,16.9-51.59,28.41-72.5a605.56,605.56,0,0,1,46.3-71.32c14.65-19.51,28.43-35.65,42.12-49.34,16.28-16.28,32.57-29.31,49.8-39.83l1.17,1.7c-31.68,19.34-59.89,46.72-91.47,88.76a603.44,603.44,0,0,0-46.17,71.12c-11.44,20.78-24.41,44.33-28.21,71.9-2.4,17.35.29,37.12,3.25,55.88,1.91,12.12-.28,21.35-6.67,27.9" transform="translate(-6496.48 -6516.85)"/><path class="cls-7" d="M6964.66,7431.89a189.52,189.52,0,0,1-15.67,14.44c-19,15.56-42.79,28.5-70.59,38.46-19.56,7-41.22,11.86-62.16,16.57-30.2,6.79-61.44,13.8-88.53,27.47-49.49,24.95-52.78,79.94-46.83,121.68l-1.95.05c-4-28.05-2.58-52.52,4.22-72.74,7.73-23,22.37-40.1,43.52-50.76,27.28-13.76,58.62-20.8,88.93-27.61,20.89-4.7,42.49-9.55,61.95-16.52,27.62-9.89,51.2-22.73,70.09-38.17,21.9-17.9,39.19-41.58,53.69-62.37,35.74-51.26,63.22-111.9,84-185.38,5.9-20.86,11-42.29,15.92-63,4.61-19.38,9.37-39.41,14.68-58.43,9.87-35.33,22.52-63,38.67-84.67,10.77-14.43,24.5-30,44.61-36.25,10.1-3.12,23.24-1.15,37,5.56l3.71,1.82c11.48,5.63,23.35,11.45,35,14.74,21.16,6,42.7,6.21,61.23,6,22.37-.31,45.75-1.32,64.25-9.87,10.8-5,14.93-15.36,12.63-31.7a167,167,0,0,1,1.85-58.87c6.17-27.77,20.14-50.52,33.65-72.52a670.43,670.43,0,0,1,50.93-71.72c23.63-29.08,56.29-65.41,99.37-88.45l1.08,1.76c-42.82,22.89-75.33,59.06-98.87,88a669.59,669.59,0,0,0-50.8,71.55c-13.44,21.88-27.33,44.51-33.44,72-4,18.06-4.65,38.18-1.83,58.19,1.82,12.89-.22,22.28-6.21,28.43a24.64,24.64,0,0,1-7.37,5.11c-18.81,8.69-42.42,9.72-65,10-18.67.25-40.39,0-61.81-6-11.84-3.34-23.81-9.21-35.38-14.88l-3.7-1.82c-13.27-6.47-25.88-8.4-35.52-5.42-19.64,6.07-33.14,21.43-43.76,35.66-16,21.47-28.58,49-38.39,84.1-5.3,19-10.06,39-14.66,58.36-4.93,20.75-10,42.19-15.94,63.09-20.85,73.66-48.41,134.47-84.26,185.89-10.92,15.67-23.43,33-38.32,48.26" transform="translate(-6496.48 -6516.85)"/><path class="cls-7" d="M6964.4,7425.88a198.73,198.73,0,0,1-18.49,16.84c-19.82,15.77-44.08,28.41-72.11,37.58-20.53,6.71-43.31,10.9-65.34,14.95-30.87,5.68-62.8,11.55-90.57,24.47-40.22,18.72-56.8,62.12-46.68,122.22l-1.93.1c-4.78-28.35-3.77-53.12,3-73.61,7.7-23.32,22.71-40.31,44.61-50.5,28-13,60-18.91,91-24.61,22-4,44.69-8.22,65.1-14.89,27.85-9.1,51.93-21.65,71.59-37.3,22.6-18,40.38-41.53,54.8-62.17,36.87-52.81,64.22-115.68,83.62-192.19,6.26-24.68,11.22-50.11,16-74.69,3.11-15.93,6.33-32.41,9.82-48.23,7.38-33.45,18.67-60.64,34.52-83.11,10.92-15.48,22.41-26.67,34.17-33.26,17.06-9.55,34.86-9.66,52.9-.33,4.42,2.28,8.9,4.82,13.24,7.27,8.41,4.76,17.11,9.68,25.69,13,17.54,6.71,35.21,7.87,51.69,8.13,18.54.3,39.64-.48,55.58-8.44,11.33-5.66,11.27-19.15,10.32-31.35-1.54-19.95.84-40.74,7.08-61.79,7.55-25.49,20-50.48,38-76.39,15.85-22.82,33.84-43.37,51.23-63.25l4.11-4.69c27.26-31.2,61.19-66,106.13-87l1,1.79c-44.66,20.93-78.44,55.52-105.59,86.6l-4.11,4.7c-33.78,38.6-72.07,82.36-88.86,139-6.17,20.84-8.53,41.4-7,61.12.82,10.58,1,22.11-6,29.23a19.35,19.35,0,0,1-5.28,3.81c-16.28,8.14-37.66,8.93-56.42,8.63-16.67-.26-34.56-1.45-52.4-8.27-8.73-3.35-17.51-8.31-26-13.11-4.32-2.44-8.78-5-13.16-7.23-29.82-15.41-58.32-4.27-84.69,33.13-15.72,22.28-26.92,49.27-34.25,82.49-3.49,15.8-6.7,32.26-9.81,48.19-4.8,24.6-9.77,50.05-16,74.78a695.6,695.6,0,0,1-33.1,99.85,509.67,509.67,0,0,1-50.78,92.9c-10.31,14.77-22.34,31-36.63,45.68" transform="translate(-6496.48 -6516.85)"/><path class="cls-7" d="M6964.25,7421.17a196.39,196.39,0,0,1-22.1,19.56c-20.18,15.3-44.79,27.3-73.17,35.68-21.52,6.35-45.43,9.75-68.55,13-31.51,4.47-64.09,9.1-92.56,21.23-56,23.87-53.07,87.14-46.31,122.72l-1.93.15c-5.45-28.72-4.86-53.76,1.75-74.43,7.59-23.7,22.91-40.61,45.55-50.26,28.68-12.22,61.38-16.86,93-21.35,23.06-3.27,46.91-6.66,68.3-13,28.17-8.32,52.6-20.23,72.62-35.4a197.05,197.05,0,0,0,27.75-25.64,364.15,364.15,0,0,0,28.71-37c37.38-54.4,65-121.58,82-199.65,4.89-22.43,8.16-45.8,11.32-68.39,2.56-18.24,5.2-37.09,8.63-54.86,6.24-32.22,17.23-60.21,32.69-83.18,7.44-11.05,19.69-26.11,35.82-35.08,17.85-9.93,36.37-10.27,55.06-1a208.26,208.26,0,0,1,19.43,11.52c6,3.86,12.23,7.86,18.5,11.05,13.3,6.79,27.95,10.47,46.1,11.59,20.59,1.26,36.12-1,47.49-6.95,8.9-4.64,8.84-15.58,8.79-26.15,0-1.77,0-3.59,0-5.36.4-21.6,4.49-43,12.49-65.49,20.87-58.62,62.95-103.79,100.08-143.66l.45-.48c29-31.14,65-65.57,112.07-84.84l.92,1.83c-46.76,19.14-82.6,53.42-111.48,84.43l-.45.48c-37,39.75-79,84.79-99.73,143.08-7.94,22.28-12,43.51-12.38,64.91,0,1.75,0,3.56,0,5.32.06,11.1.12,22.57-9.68,27.69-11.67,6.09-27.51,8.43-48.45,7.14-18.44-1.13-33.36-4.89-46.94-11.81-6.36-3.25-12.63-7.28-18.69-11.17a207.08,207.08,0,0,0-19.21-11.4c-42.13-20.89-73.54,13.31-88.51,35.57-15.33,22.78-26.24,50.55-32.42,82.54-3.43,17.72-6.07,36.55-8.62,54.77-3.17,22.63-6.45,46-11.35,68.53-17.07,78.29-44.74,145.67-82.25,200.25a365,365,0,0,1-28.84,37.18q-2.88,3.21-5.88,6.29" transform="translate(-6496.48 -6516.85)"/><path class="cls-7" d="M6965.13,7416.07a181.18,181.18,0,0,1-26.22,22.22c-20.84,14.52-46.93,25.76-77.55,33.39-24.29,6.06-51.5,10.69-83.21,14.16l-.79.09c-27,3-55,6-79.75,15.69-57.61,22.51-53.37,86.87-45.71,123.23l-1.92.18c-6-28.62-5.87-54.62.45-75.18,7.41-24.12,23-41,46.28-50.07,24.95-9.75,53-12.83,80.22-15.8l.79-.09c31.62-3.46,58.75-8.07,83-14.11,30.41-7.58,56.31-18.73,77-33.14a179.27,179.27,0,0,0,27.38-23.47c9.54-10,18.73-21.86,29.8-38.4,38.17-57,64.79-126.87,79.11-207.55,3.8-21.38,6.13-43.55,8.39-65,2-18.82,4-38.28,7-56.7,5.59-34.23,15.73-62.28,31-85.75,16.74-25.72,46.24-53,91.77-36.92,10.48,3.71,20.27,10.26,29.74,16.61,3.23,2.16,6.57,4.39,9.86,6.47a104.17,104.17,0,0,0,41.83,15.46c16.49,2.21,30.43.38,40.3-5.28,7.62-4.37,7.95-14.46,8.27-24.21.09-2.84.19-5.78.47-8.47a264.57,264.57,0,0,1,17.41-69.66c10.55-26.62,25.77-49,45.37-74.33a769.83,769.83,0,0,1,60.64-69.08c30.27-30.71,67.84-64.45,117-81.89l.84,1.86c-48.86,17.32-86.26,50.91-116.39,81.48a766.41,766.41,0,0,0-60.51,68.94c-19.52,25.25-34.67,47.48-45.14,73.92a262.72,262.72,0,0,0-17.3,69.18c-.27,2.63-.36,5.4-.46,8.34-.28,8.73-.58,17.71-5.89,23.16a14.42,14.42,0,0,1-3.22,2.48c-10.21,5.86-24.54,7.76-41.46,5.5a106.31,106.31,0,0,1-42.69-15.78c-3.33-2.09-6.68-4.34-9.92-6.51-9.35-6.26-19-12.74-29.24-16.35-44.37-15.68-73.22,11.07-89.62,36.28-15.14,23.26-25.2,51.09-30.75,85.08-3,18.37-5,37.8-7,56.59-2.25,21.48-4.59,43.68-8.4,65.13A628.13,628.13,0,0,1,7047,7275.89c-13.59,36.7-30.57,70.38-50.45,100.1-11.12,16.62-20.37,28.53-30,38.62l-1.41,1.46" transform="translate(-6496.48 -6516.85)"/><path class="cls-7" d="M6965.77,7411.09c-.71.73-1.43,1.46-2.15,2.17a172.72,172.72,0,0,1-30.22,23.64c-21.67,13.42-48,23-80.5,29.34-23.14,4.51-47.82,7.33-71.68,10.06l-12.27,1.41-9.84,1.12c-24.38,2.74-49.58,5.58-72.09,13.68-43.07,15.5-59.39,60.62-44.78,123.79l-1.91.23c-6.68-28.9-7-55.14-1-75.88,7.16-24.57,22.91-41.39,46.81-50,22.7-8.17,48-11,72.5-13.77l9.83-1.12c4.09-.48,8.19-1,12.27-1.41,23.83-2.73,48.47-5.55,71.54-10,32.29-6.29,58.43-15.81,79.92-29.11a171.25,171.25,0,0,0,29.93-23.42c12.37-12.16,22.33-26.61,29.62-37.84,38.21-58.78,64.12-133.45,74.94-215.94,2.59-19.79,4.33-40.12,6-59.78,1.73-20.3,3.52-41.3,6.24-61.24,4.81-35.19,14.54-64,29.74-88,10.58-16.73,22.54-28.79,35.55-35.86,17.11-9.29,36-9.92,56.23-1.86,14.28,5.69,27.69,13.83,43.43,24.29,13.52,9,24.85,16.05,37.25,18.52,14.54,2.91,26.41,1.71,34.33-3.46,7.11-4.65,8-14.81,8.81-24.64a103.54,103.54,0,0,1,1.21-10.36,352.51,352.51,0,0,1,22.44-74.93c12.19-28.19,30-51.55,47.18-73.07a710.93,710.93,0,0,1,62-68.08c20.24-19.51,37.84-34.16,55.38-46.09,21.62-14.73,43.05-25.2,65.48-32l.77,1.88c-50.9,15.46-89.32,48-120.19,77.7a710,710,0,0,0-61.85,67.92c-17.12,21.43-34.84,44.7-46.95,72.69a351,351,0,0,0-22.33,74.56c-.59,3.13-.88,6.56-1.19,10.18-.76,9-1.54,18.22-7,23.8a15.84,15.84,0,0,1-2.59,2.12c-8.31,5.43-20.66,6.72-35.7,3.71-12.78-2.55-24.3-9.73-38-18.85-15.63-10.38-28.92-18.45-43-24.07-43.61-17.4-72.77,10.56-89.55,37.09-15.06,23.83-24.71,52.4-29.48,87.34-2.72,19.89-4.5,40.86-6.23,61.14-1.68,19.68-3.41,40-6,59.86A598.5,598.5,0,0,1,7043,7271.14c-12.86,38.22-29.53,73.21-49.54,104-6.91,10.64-16.21,24.15-27.7,35.94" transform="translate(-6496.48 -6516.85)"/><path class="cls-7" d="M6964.64,7407.35q-2.31,2.37-4.75,4.61a160.18,160.18,0,0,1-31.77,22.56c-22.41,12.2-49.39,20.18-84.89,25.14-17.81,2.49-36.66,4-54.89,5.46-37.89,3-77.06,6.16-112.37,18.14-62.08,21.06-51,94.08-43.39,124.51l-1.9.26c-7.31-29.14-8.2-55.56-2.57-76.39,6.77-25.05,22.6-42,47-50.24,35.53-12,74.82-15.19,112.81-18.23,18.21-1.46,37-3,54.79-5.45,35.28-4.93,62.07-12.85,84.29-24.94a159.1,159.1,0,0,0,31.44-22.33c12.14-11.11,21.8-25.12,29.65-37.35,36.93-57.52,60.89-131.81,71.22-220.82,2.42-20.88,3.46-42.49,4.46-63.39,1-20.22,2-41.13,4.24-60.9,4.09-35.7,13.53-65.15,28.87-90,10.6-17.2,22.45-29.69,35.21-37.12,17.37-10.11,36.57-11,57.09-2.66,13.29,5.41,25.87,14.54,38,23.36,13.6,9.86,27.66,20.06,42.34,24.62,12.63,3.92,22.9,3.34,29.69-1.66,7.29-5.38,8.9-16.18,10.46-26.63a118.23,118.23,0,0,1,2.21-12.06c6.73-25.85,14.88-55.64,26.57-82.09,11.87-26.84,30-49.58,47.52-70.58a621,621,0,0,1,62.71-64.8c21.7-19.4,39.29-33.06,57-44.29,22.33-14.15,44.32-23.87,67.23-29.74l.69,1.9c-50.69,13-89.34,43.07-123.55,73.66a620.56,620.56,0,0,0-62.54,64.62c-17.46,20.91-35.5,43.55-47.27,70.19-11.64,26.33-19.77,56-26.48,81.82a115.77,115.77,0,0,0-2.17,11.87c-1.45,9.7-2.94,19.69-8.91,25.81a17.94,17.94,0,0,1-2.22,1.94c-7.26,5.35-18.1,6-31.35,1.9-15-4.66-29.24-15-43-24.95-12.05-8.74-24.51-17.78-37.56-23.09-35-14.22-65.25-1.06-90,39.14-15.2,24.65-24.56,53.86-28.62,89.31-2.25,19.7-3.26,40.58-4.23,60.77-1,20.93-2,42.58-4.47,63.51-4.83,41.61-12.67,80.34-23.31,115.12-12.18,39.83-28.39,75.64-48.17,106.45-6.86,10.68-15.1,22.72-25.17,33.06" transform="translate(-6496.48 -6516.85)"/><path class="cls-7" d="M6962,7403.66c-2.15,2.21-4.39,4.32-6.73,6.3a147.09,147.09,0,0,1-33.58,21.2c-29.32,13.55-63.43,17.94-89.87,20.25-13.47,1.18-27.55,2-41.17,2.74-42.86,2.42-87.19,4.93-126.38,19.55-59.57,22.22-51.51,88.18-41.4,125.53l-1.89.29c-7.88-29.1-9.19-55.55-3.8-76.48,6.42-24.92,22-42.14,46.22-51.19,39.45-14.71,83.91-17.22,126.91-19.65,13.6-.77,27.67-1.56,41.12-2.74,26.29-2.3,60.19-6.66,89.27-20.09a146.15,146.15,0,0,0,33.2-21c12-10.19,21.35-23.77,29.64-36.91,37.93-60.17,61.15-138.15,67.15-225.53,1.27-18.56,1.8-37.63,2.31-56.07.65-23.72,1.33-48.24,3.62-71.34,3.59-36.23,12.87-66.23,28.37-91.72,10.79-17.74,22.7-30.76,35.42-38.71,17.73-11.07,37.19-12.48,57.85-4.2,15.61,6.25,30.17,17.21,44.26,27.8l1.77,1.33c3,2.27,6.12,4.78,9.11,7.21,8.08,6.55,16.43,13.32,25.29,17.17,11.1,4.82,20.52,4.8,26.52-.06,4.13-3.36,6-9.35,7.64-14.64.13-.41.26-.83.39-1.23,3.08-9.79,5.93-19.31,8.48-28.3,1.74-6.14,3.45-12.42,5.1-18.49,6.53-23.95,13.27-48.71,23.43-70.14,12.39-26.17,31.08-48.61,47.62-67.58a515.77,515.77,0,0,1,63-60.73c16.49-13.43,36.35-28.91,58.6-41.88,23-13.39,45.42-22.27,68.6-27.16l.62,1.92c-47.18,9.94-84.68,34.65-126.47,68.69a513.94,513.94,0,0,0-62.76,60.53c-16.47,18.9-35.07,41.23-47.38,67.21-10.09,21.29-16.81,46-23.32,69.86-1.65,6.07-3.36,12.35-5.1,18.5-2.56,9-5.42,18.54-8.5,28.34-.13.41-.26.82-.38,1.24-1.72,5.51-3.66,11.76-8.19,15.43-6.54,5.3-16.65,5.4-28.46.27-9.14-4-17.62-10.84-25.82-17.49-3.11-2.53-6.05-4.91-9-7.16l-1.77-1.32c-14-10.51-28.41-21.37-43.74-27.51-34.86-14-65.48.24-91,42.25-15.36,25.27-24.56,55-28.12,91-2.29,23-3,47.52-3.62,71.2-.51,18.46-1,37.55-2.31,56.15-2.86,41.65-9.59,81.3-20,117.85-11.47,40.26-27.42,76.76-47.42,108.49-6.75,10.71-14.2,21.71-23.24,31" transform="translate(-6496.48 -6516.85)"/><path class="cls-7" d="M6958,7398.89a83.34,83.34,0,0,1-8.33,7.49,135.65,135.65,0,0,1-35.14,19.36c-27.37,10.41-58.3,13.58-96.33,15.14-9.23.38-18.82.63-28.1.88-48,1.26-97.71,2.57-139,21.06-22.88,10.26-37.12,24.69-43.55,44.11-9,27-1.09,60.75,5.6,83.76l-1.89.33c-4.92-16.94-7.8-30.74-9.05-43.43-1.59-16.06-.45-29.62,3.47-41.46a66.94,66.94,0,0,1,17.18-27.25c7.18-6.95,16.35-13,27.27-17.86,41.56-18.64,91.42-20,139.64-21.22,9.27-.24,18.86-.5,28.07-.87,37.85-1.56,68.62-4.71,95.76-15a133.78,133.78,0,0,0,34.7-19.12c12.54-9.75,21.73-23.72,29.36-36.05,37.26-60.21,58.45-137.63,63-230.09.88-18,1.11-36.44,1.33-54.25.31-25.16.63-51.17,2.83-75.64,3.27-36.47,12.5-66.94,28.21-93.13,11-18.35,23.07-32,35.86-40.53,18.07-12.07,37.83-14.27,58.75-6.55,18.18,6.72,34.55,20.62,50.37,34.07,10.07,8.55,20.48,17.4,31.08,24.09,10,6.33,18.65,7,24.28,1.92,10.43-9.44,13.72-24.9,16.89-39.85.91-4.27,1.77-8.3,2.79-12.22q1.38-5.31,2.74-10.64c7.26-28.26,14.77-57.49,27.64-82,23.52-44.77,59.51-84.25,110-120.7,39.36-28.4,78.89-54.6,129.69-63.09l.54,1.94c-50.42,8.42-89.78,34.5-129,62.78-50.29,36.3-86.12,75.59-109.53,120.14-12.77,24.3-20.25,53.43-27.49,81.59q-1.36,5.32-2.75,10.64c-1,3.88-1.86,7.9-2.76,12.14-3.07,14.46-6.24,29.39-15.84,39.25-.51.52-1,1-1.57,1.51-6.19,5.6-15.89,4.94-26.6-1.82S7227,6912.64,7216.9,6904c-15.67-13.31-31.88-27.08-49.69-33.66-35.08-13-66.17,2.65-92.4,46.39-15.57,26-24.72,56.19-28,92.39-2.19,24.4-2.51,50.37-2.82,75.49-.22,17.83-.45,36.28-1.34,54.32-2.13,43.53-7.93,84-17.24,120.26-10.58,41.23-26,78.46-46,110.67-5.92,9.57-12.78,20.12-21.42,29" transform="translate(-6496.48 -6516.85)"/><path class="cls-7" d="M6952.26,7392a71.68,71.68,0,0,1-10.63,9.08c-10.37,7.17-23.05,12.95-37.69,17.15-31.21,9-67.21,9.1-102,9.23h-.15l-9.86,0c-54.18.11-110.2.22-154.78,23.55-21.07,11-34.8,26.24-40.82,45.19-8.69,27.38-.69,60.31,7.25,85.95l-1.88.37c-8-25.91-16.09-59.23-7.25-87.1,6.16-19.39,20.17-34.92,41.64-46.16,20.11-10.54,44.56-17.3,74.75-20.67,26.6-3,54.18-3,80.86-3.08l9.86,0h.14c34.69-.13,70.56-.26,101.53-9.16,14.45-4.15,27-9.84,37.19-16.91,13.06-9,22.2-22.89,29.73-35.16,37-60.27,56-134.54,59.7-233.75.67-17.81.69-36,.71-53.65,0-26,.07-53,2.23-78.23,3.09-36.18,12.63-67.9,28.35-94.27,27.49-46.13,59.87-63.62,96.23-52,19.8,6.33,37.11,21.72,53.85,36.59,9.88,8.78,19.21,17.07,29,23.67,10.41,7,19.28,7.76,25,2.14,10.76-10.63,13.87-27.29,16.87-43.4.93-5,1.9-10.24,3.08-15.06,7.95-32.37,17.45-66.37,33-95.72,14.55-27.51,31.4-50.52,50.07-68.41,19-18.16,41.17-32.62,58.39-43.18l.77-.47c39.35-24.14,80.05-49.09,131-55.43l.46,1.95c-50.6,6.28-91.14,31.14-130.34,55.18l-.76.47c-17.16,10.52-39.26,24.91-58.12,43-18.55,17.76-35.28,40.63-49.75,68-15.44,29.19-24.9,63.07-32.82,95.33-1.18,4.77-2.1,9.72-3.07,15-3.05,16.37-6.19,33.29-17.34,44.3-6.28,6.19-16.27,5.46-27.4-2-10-6.69-19.78-15.42-29.29-23.87-16.56-14.71-33.69-29.93-53-36.12-35.42-11.32-67.08,5.93-94.11,51.28-15.59,26.14-25.05,57.61-28.12,93.52-2.15,25.19-2.18,52.07-2.21,78.07,0,17.64-.05,35.88-.72,53.72-1.72,46-6.67,86-15.12,122.14-10,42.86-24.68,79.65-44.83,112.47-5.41,8.81-11.65,18.43-19.57,26.57" transform="translate(-6496.48 -6516.85)"/><path class="cls-7" d="M6944.45,7381.78a66.69,66.69,0,0,1-13.84,11c-10.91,6.44-24.61,11.28-40.71,14.4-28,5.42-59.13,4.41-89.24,3.43-6.28-.2-12.78-.41-19.15-.56-58.13-1.37-117.68,1.1-159.4,28.14-20.22,13.11-32.6,29.16-37.86,49.06-7.42,28.08,1.23,60.88,9.6,86.32l-1.86.41c-8.45-25.7-17.19-58.87-9.64-87.43,5.37-20.33,18-36.69,38.56-50,19.83-12.85,44.83-21.14,76.45-25.35,28.42-3.78,58.39-3.67,84-3.07,6.38.15,12.88.36,19.17.56,30,1,61,2,88.81-3.39,15.9-3.08,29.41-7.86,40.16-14.2,14-8.24,23.11-21.71,30.59-33.7,47.85-76.73,56-171.37,58-235.89.56-18.38.27-37.22,0-55.43-.39-24.34-.79-49.51.91-73.31,2.63-37,12.78-70.51,30.17-99.69,28.15-47.22,61.14-66.61,98.07-57.61,14,3.41,29.23,12.45,46.59,27.63,4.21,3.68,8.41,7.63,12.47,11.45,7.89,7.42,16,15.1,24.88,21.4,10.5,7.48,20.33,8.08,26.27,1.59,10.62-11.58,13.77-29,16.81-45.91,1.17-6.5,2.28-12.64,3.8-18.49,10.52-40.69,21.92-72.2,35.86-99.16,14.49-28,30.76-49.37,49.75-65.3,17.44-14.64,38.32-25.86,56.45-34.91,3.79-1.89,7.58-3.8,11.36-5.7,37.24-18.78,75.76-38.2,122.22-42l.39,1.95c-46.11,3.8-84.47,23.14-121.57,41.85q-5.67,2.86-11.36,5.71c-18,9-38.82,20.16-56.12,34.68-18.83,15.8-35,37-49.35,64.81-13.89,26.84-25.24,58.23-35.73,98.79-1.49,5.79-2.6,11.9-3.76,18.36-3.09,17.12-6.28,34.82-17.24,46.76-.11.13-.23.25-.35.38-6.64,6.82-17.23,6.15-28.44-1.84-9-6.39-17.18-14.11-25.13-21.59-4-3.81-8.22-7.74-12.4-11.4-17.08-14.93-32-23.81-45.65-27.13-36.05-8.78-68.38,10.35-96.1,56.85-17.25,28.95-27.32,62.23-29.93,98.91-1.69,23.72-1.29,48.85-.91,73.15.29,18.23.59,37.09,0,55.52-1.45,47.3-6,87.65-13.81,123.35-9.63,43.81-24.17,80.91-44.44,113.42-4.8,7.7-10.29,16-17.31,23.22" transform="translate(-6496.48 -6516.85)"/><path class="cls-7" d="M6934,7367.27a64,64,0,0,1-17.79,13.18c-12.29,6-27.82,9.73-46.18,11.18-22.89,1.81-47.53.46-71.36-.84-13.41-.73-27.28-1.49-40.74-1.68-65.85-.95-115.31,10.83-151.22,36-17.55,12.31-29.07,29.56-34.23,51.27-6.9,29,2.61,62.61,11.66,88.66l-1.85.44c-9.14-26.3-18.74-60.28-11.73-89.76,5.26-22.12,17-39.7,34.9-52.25,19.69-13.82,43.84-23.79,71.79-29.65,23.55-4.94,49.87-7.13,80.47-6.69,13.51.2,27.4,1,40.83,1.69,23.77,1.3,48.34,2.64,71.1.84,18.13-1.43,33.45-5.13,45.54-11,14.35-7,24.06-19.73,31.66-31.28,48.54-73.72,56.69-169.83,58.6-235.7.53-18.09.23-36.61,0-54.52-.4-24.9-.81-50.64,1-74.95,2.78-37,13.11-70.79,30.68-100.38,12.17-20.49,24.79-35.7,38.56-46.51,18.93-14.85,39.61-20.61,61.46-17.1,15.07,2.41,31.44,11.06,48.66,25.69,4.91,4.18,9.78,8.77,14.48,13.2,7.1,6.7,14.44,13.62,22.28,19.47,10.8,8.06,20.63,8.35,26.95.79,10.95-13.1,14.67-31.88,18.26-50,1.44-7.27,2.8-14.13,4.6-20.69,11-40.12,23.42-73.33,37.94-101.52,13.91-27,29.73-46.65,48.38-60.09,16.76-12.08,37.24-20.34,55.11-27.14,22.43-8.53,45-16.56,67-23.86,22.86-7.59,43.77-14,68.08-15l.32,2c-24.07,1.06-44.85,7.39-67.59,14.93-22,7.3-44.53,15.32-66.94,23.84-17.77,6.76-38.12,15-54.72,26.93-18.44,13.28-34.1,32.75-47.88,59.51-14.47,28.09-26.83,61.19-37.81,101.19-1.79,6.49-3.14,13.33-4.57,20.56-3.64,18.37-7.4,37.37-18.62,50.8-.32.38-.65.75-1,1.1-6.95,7.13-17.52,6.53-28.59-1.72-7.94-5.93-15.33-12.9-22.48-19.64-4.68-4.41-9.52-9-14.39-13.12-16.9-14.36-32.91-22.84-47.58-25.19-36.89-5.92-69.93,15.22-98.21,62.82-17.43,29.36-27.68,62.87-30.45,99.61-1.82,24.23-1.41,49.92-1,74.77.29,17.94.58,36.48.06,54.61-1.39,47.78-5.83,88.23-13.57,123.64-9.73,44.49-24.55,81.44-45.32,113a124.7,124.7,0,0,1-14.53,18.68" transform="translate(-6496.48 -6516.85)"/><path class="cls-7" d="M6920.74,7347.46a63.11,63.11,0,0,1-24.12,16c-12.76,4.51-28.7,6.8-50.14,7.21-19.23.36-39.56-.94-59.21-2.2-18.06-1.17-36.74-2.37-54.76-2.3-59.9.22-108.8,16-141.41,45.57-43.11,39.13-32.87,100.33-16.69,144.77l-1.84.48c-10.73-29.48-15.34-56.43-13.69-80.09,1.91-27.42,12.27-49.85,30.81-66.67,17.53-15.92,39.6-27.9,65.6-35.62,22.91-6.79,48.81-10.29,77-10.4,18.08-.07,36.79,1.14,54.89,2.3,19.61,1.26,39.89,2.57,59,2.2,21.24-.4,37-2.66,49.57-7.11,16.07-5.68,26.59-18.1,34-28.29,51.44-71.09,60.23-166.55,62.36-232.17.58-17.79.38-36,.19-53.63-.28-25.25-.57-51.36,1.48-76,3.08-36.91,13.63-70.83,31.36-100.82,28.87-48.83,63.19-72.34,102-69.89,15.33,1,33,8.47,48.43,20.57,6.19,4.85,12.15,10.23,17.93,15.44,6.78,6.12,13.79,12.45,21.21,18,10.91,8.09,21.25,7.9,27.65-.5,11.3-14.82,15.72-34.81,20-54.15,1.69-7.65,3.44-15.57,5.58-22.87,12.22-41.76,24.69-74.2,39.23-102.09,13.3-25.51,28-42.5,46.12-53.48,15.32-9.26,33.72-14.53,54.44-20,10.52-2.78,21-5.82,31.19-8.76,33.13-9.59,67.38-19.51,105.08-20.8l.3,2c-37.47,1.28-70.09,10.72-104.64,20.72-10.17,2.95-20.69,6-31.23,8.77-20.58,5.43-38.86,10.67-54,19.81-17.9,10.81-32.36,27.6-45.51,52.83-14.49,27.79-26.92,60.13-39.11,101.77-2.12,7.25-3.78,14.78-5.55,22.76-4.31,19.52-8.77,39.7-20.3,54.82a17.08,17.08,0,0,1-12.66,7.07c-5.53.38-11.47-1.76-17.65-6.35-7.51-5.56-14.56-11.93-21.39-18.09-5.74-5.18-11.67-10.54-17.79-15.33-15.11-11.83-32.32-19.16-47.23-20.1-38.09-2.41-71.87,20.83-100.39,69.06-17.6,29.77-28.07,63.44-31.12,100.08-2,24.53-1.76,50.6-1.48,75.81.2,17.64.4,35.88-.18,53.71-1.54,47.34-6.33,87.45-14.64,122.62-10.41,44.08-26.13,80.23-48.05,110.53a114.24,114.24,0,0,1-10.64,12.88" transform="translate(-6496.48 -6516.85)"/><path class="cls-7" d="M6905.71,7323.49c-9.76,10-19.95,16.16-31.61,19.12-17.16,4.36-37,4.59-52.41,4.31s-31.7-1.44-47.37-2.55c-22.63-1.6-46-3.26-68.39-2.46-55,2-100.29,21.3-131,55.89-39.17,44.13-27.21,106-10.28,150.16l-1.82.51c-17.13-44.64-29.19-107.26,10.56-152.06,15.81-17.83,35.58-31.72,58.75-41.3,22-9.1,46.71-14.19,73.48-15.16,22.45-.8,45.91.86,68.59,2.46,15.65,1.11,31.82,2.26,47.27,2.55,15.26.28,35,.06,51.92-4.25,13.69-3.48,24.88-11.11,36.27-24.74,42.43-50.76,64.17-122.58,68.43-226,.73-17.51.7-35.45.68-52.79,0-25.41-.08-51.68,2.28-76.43,3.49-36.72,14.3-70.72,32.13-101,12.41-21.1,26.28-38.13,41.23-50.63,19.23-16.07,40.32-24.67,62.69-25.55,16.26-.64,34.4,5.22,51.06,16.5a246.76,246.76,0,0,1,19.7,15.45c6.34,5.31,12.88,10.81,19.59,15.38,11.4,7.77,22.12,6.81,28.68-2.57,11.42-16.3,16.63-37.24,21.66-57.48,2.07-8.32,4.21-16.92,6.74-25,10.59-33.68,22.71-69.19,39.56-100.67,12.74-23.81,27.07-38.8,45.08-47.17,15.12-7,33.59-9.77,51.46-12.44l1.07-.16c15.22-2.27,30.23-5.2,44.74-8,29.54-5.78,60.08-11.75,92.54-12l.25,2c-32.29.24-61.39,5.93-92.2,12-14.53,2.84-29.56,5.78-44.82,8l-1.07.16c-17.74,2.65-36.09,5.38-51,12.3-17.68,8.21-31.76,23-44.32,46.45-16.78,31.35-28.87,66.77-39.44,100.37-2.51,8-4.65,16.56-6.71,24.86-5.07,20.39-10.32,41.48-21.91,58a19,19,0,0,1-12.63,8.3c-5.79.92-12.08-.89-18.68-5.39-6.8-4.64-13.4-10.18-19.78-15.53a244.1,244.1,0,0,0-19.51-15.3c-16.28-11-34-16.75-49.79-16.12-49.23,1.93-82.91,42.05-102.49,75.35-17.7,30.12-28.44,63.87-31.91,100.33-2.34,24.65-2.3,50.88-2.27,76.25,0,17.36.05,35.32-.67,52.87-1.93,46.78-7.32,86.26-16.48,120.69a322.38,322.38,0,0,1-20.49,56.37,239.35,239.35,0,0,1-31.86,50q-2.76,3.3-5.55,6.17" transform="translate(-6496.48 -6516.85)"/><path class="cls-7" d="M6891.35,7295.11c-.82.85-1.65,1.68-2.49,2.51-14.32,14.16-34.1,22.21-60.47,24.63-23.42,2.15-49.78-.25-75.28-2.58-25.13-2.29-51.11-4.65-74.3-2.67-51.67,4.41-93.32,27.37-120.44,66.39-27.45,39.49-28.64,93.43-3.44,156l-1.82.54c-12-29.89-18.19-57.93-18.31-83.35-.14-28.28,7.23-53.33,21.91-74.44,27.42-39.45,69.51-62.66,121.71-67.12,23.35-2,49.43.39,74.64,2.68,50.65,4.62,103,9.39,134.34-21.57,46.32-45.79,70.55-115,76.22-217.92,1-17.27,1.19-35,1.42-52.07.33-25.34.68-51.55,3.4-76.2a255.09,255.09,0,0,1,32.94-101.12c12.51-21.49,26.91-39.28,42.77-52.88,19.4-16.63,40.56-26.49,62.89-29.31,17.56-2.22,35.62,1.36,52.22,10.36,8.6,4.66,17.13,10.86,25.38,16.86,5.29,3.85,10.76,7.82,16.19,11.35,16.89,11,27.24-1.35,30-5.38,11.78-17.16,17.61-38.62,23.25-59.38,2.46-9,5-18.35,8-27q1.8-5.25,3.58-10.52c10.12-29.83,20.58-60.67,35.27-86.85,12.18-21.7,26-34.57,43.38-40.49,14.16-4.82,31.3-5.51,47.87-6.18l3.64-.15c20.36-.85,40.13-3.1,59.25-5.27,25.47-2.91,51.81-5.9,79-5.43l.2,1.95c-27.09-.46-53.36,2.53-78.77,5.42-19.16,2.18-39,4.44-59.39,5.29l-3.65.15c-16.44.66-33.44,1.35-47.35,6.08-17,5.78-30.49,18.41-42.46,39.74-14.61,26-25.05,56.8-35.14,86.56q-1.78,5.27-3.58,10.52c-2.95,8.63-5.48,17.93-7.93,26.92-5.68,20.9-11.55,42.5-23.49,59.9-3,4.37-14.21,17.69-32.6,5.75-5.48-3.56-11-7.55-16.29-11.41-8.19-6-16.66-12.11-25.13-16.71-16.43-8.9-33.58-12.31-51-10.11-50.86,6.43-84.85,47.8-104.4,81.37a253.38,253.38,0,0,0-32.72,100.44c-2.71,24.56-3.05,50.72-3.39,76-.23,17.13-.46,34.85-1.42,52.15-2.55,46.24-8.75,84.94-19,118.3a278.83,278.83,0,0,1-22.72,54.23,208.87,208.87,0,0,1-32.54,44" transform="translate(-6496.48 -6516.85)"/><path class="cls-7" d="M6880.8,7261.37a174.29,174.29,0,0,1-16.1,14.61c-25.92,20.7-64.17,20.4-101.12,18.32-7.78-.43-15.8-1-23.55-1.53-29.51-2-60-4.16-88.3-.7-48.22,5.9-86.34,32.4-110.22,76.63-23.68,43.83-22.41,99.91,3.66,162.15l-1.8.57c-12.59-30.06-19.54-58.76-20.66-85.3-1.21-28.91,4.52-55.32,17-78.5,11.66-21.59,26.86-39.16,45.17-52.24,19.22-13.72,41.54-22.22,66.35-25.25,28.45-3.48,59.06-1.36,88.67.69,7.74.54,15.75,1.09,23.52,1.53,36.6,2.06,74.46,2.37,99.91-18,50-39.92,77.9-108,85.37-208.28,1.27-17.1,1.85-34.63,2.4-51.57.83-25,1.68-50.93,4.81-75.26,4.75-36.9,16.09-70.91,33.72-101.09,12.66-21.69,27.48-40,44-54.52,19.29-16.89,40.51-28.06,63.07-33.21,19.08-4.35,37.45-2.78,56.16,4.81,7.9,3.2,15.65,8,23.14,12.59a203.16,203.16,0,0,0,18.43,10.49c16.58,7.93,26.4-.34,31.71-8.67,11.84-18.56,18.63-40.52,25.19-61.76,2.75-8.88,5.58-18.05,8.73-26.75,2.63-7.27,5.18-14.72,7.65-21.92,8.34-24.29,17-49.4,29.44-70.58,11.33-19.22,24.4-30.05,41.15-34.08,13.9-3.36,30.61-2.36,46.76-1.41l4.66.28a652.39,652.39,0,0,0,67.29.58c6.13-.29,12.32-.66,18.31-1,17.38-1,35.35-2.11,53.74-1.34l.15,2c-18.29-.77-36.22.3-53.55,1.33-6,.36-12.19.73-18.33,1a653.56,653.56,0,0,1-67.49-.59l-4.66-.27c-16-.95-32.58-1.93-46.21,1.35-16.27,3.93-29,14.51-40.09,33.31-12.4,21-21,46.07-29.3,70.27-2.47,7.21-5,14.66-7.67,21.95-3.13,8.66-6,17.81-8.69,26.67-6.6,21.35-13.42,43.42-25.39,62.18-4.66,7.3-15.28,18.21-34.07,9.23a203.09,203.09,0,0,1-18.64-10.61c-7.42-4.56-15.08-9.29-22.81-12.42-18.3-7.42-36.28-9-55-4.69-52.68,12-86.73,53.91-106,86.93-17.51,30-28.77,63.78-33.49,100.44-3.12,24.25-4,50.09-4.79,75.08-.56,17-1.14,34.51-2.42,51.65-3.38,45.43-10.62,83.14-22.14,115.3a242.29,242.29,0,0,1-25.33,51.63,189.08,189.08,0,0,1-22.42,27.95" transform="translate(-6496.48 -6516.85)"/><path class="cls-7" d="M6869.09,7228.84a166,166,0,0,1-29.72,24.19c-12.65,8.07-28.59,12.85-48.73,14.62-17.5,1.54-35.72.74-56-.38-4.81-.27-9.74-.56-14.5-.85-31.91-1.92-64.9-3.91-94.84,1.32-45.84,8-80.69,37.78-100.78,86.1s-16.28,106.48,10.91,168.45l-1.78.61c-13.26-30.23-21.08-59.68-23.23-87.53-2.3-29.61,1.83-57.35,12.27-82.45,20.32-48.88,55.61-79,102.05-87.11,30.17-5.27,63.27-3.28,95.28-1.34,4.77.28,9.7.58,14.5.84,35.27,1.95,75.25,4.16,103.68-14,54.48-34.73,85.69-99.36,95.43-197.58,1.69-17,2.69-34.51,3.67-51.4,1.4-24.47,2.86-49.77,6.42-73.56,5.52-36.85,17.09-70.83,34.39-101,26-45.25,64.37-78.1,108.14-92.52,19.94-6.57,38.54-7.46,56.84-2.71,9.35,2.42,19.15,6.85,28.62,11.12,5.55,2.51,11.28,5.1,16.82,7.24,13.55,5.22,24.55,1.16,33.65-12.4,13.13-19.57,20.94-43.53,28.5-66.69,2.4-7.37,4.89-15,7.49-22.27,2.39-6.69,4.7-13.56,6.94-20.2,7.68-22.79,15.62-46.35,27.75-65.8,10.61-17,23.85-26.4,40.48-28.72,13.6-1.9,29.63.4,45.13,2.62l5.19.74a553.84,553.84,0,0,0,66.28,5.7c9.2.17,18.43.11,27.36.05,15.25-.1,31-.2,46.93.88l.1,1.95c-15.84-1.07-31.57-1-46.79-.87-8.94.06-18.18.12-27.4-.05a558.19,558.19,0,0,1-66.53-5.72l-5.2-.74c-15.36-2.2-31.24-4.48-44.58-2.62-16.09,2.25-28.94,11.39-39.27,27.95-12,19.28-19.93,42.75-27.58,65.45-2.24,6.64-4.56,13.52-6.95,20.22-2.59,7.25-5.07,14.86-7.48,22.23-7.59,23.27-15.44,47.34-28.69,67.1-4.15,6.18-8.57,10.37-13.54,12.84-6.61,3.27-14.11,3.32-22.3.17-5.6-2.16-11.37-4.77-16.94-7.29-9.39-4.24-19.09-8.62-28.27-11-17.92-4.65-36.16-3.77-55.76,2.69-43.37,14.28-81.44,46.87-107.2,91.77-17.2,30-28.7,63.74-34.19,100.37-3.54,23.71-5,49-6.4,73.39-1,16.92-2,34.41-3.67,51.49-7.87,79.34-29.72,136.92-66.48,174.66" transform="translate(-6496.48 -6516.85)"/><path class="cls-7" d="M7519.34,6540c-13.61-1.28-27.26-1.82-40.47-2.34-11.39-.46-23.16-.92-35-1.86-19.11-1.51-41-4.85-66.79-10.2l-4.34-.9c-16.1-3.37-32.75-6.85-46.78-5.57-15.28,1.39-27.31,9-36.79,23.29-11.41,17.18-18.51,38.62-25.38,59.36-2,6.17-4.15,12.55-6.35,18.74-1.51,4.27-3,8.67-4.52,12.93-9,25.83-18.26,52.54-32.82,75.1a44,44,0,0,1-5.42,6.86c-10,10.26-23.7,12.9-40.88,7.82-21.53-6.37-44.36-11.88-65.5-9.17-26.66,3.42-52.94,15.39-80.33,36.6-25.11,19.44-45.15,42.39-59.57,68.2-16.68,29.86-28.35,63.62-34.7,100.34-4,22.92-6.1,47.32-8.15,70.92-1.49,17-3,34.57-5.24,51.72-5.56,43.08-15.47,78.39-30.29,107.94a193.82,193.82,0,0,1-31.15,45.46,163.39,163.39,0,0,1-45.39,34.24c-15,7.63-33,12-55.24,13.27-19.8,1.16-41.14-.14-61.77-1.4-32.64-2-66.4-4-96.55,3.21-45,10.81-76.11,42.59-92.51,94.45-16.52,52.27-10.23,112.71,18.2,174.77l-1.77.64c-28.65-62.54-35-123.46-18.31-176.2,7.75-24.48,19-44.85,33.44-60.52,16.14-17.53,36.43-29.32,60.28-35,30.43-7.31,64.32-5.25,97.11-3.25,42.79,2.6,83.21,5.07,116.07-11.69,59-30.07,93.63-91,105.94-186.34,2.21-17.12,3.74-34.67,5.22-51.65,2.06-23.63,4.19-48.07,8.17-71.07,6.38-36.92,18.12-70.86,34.9-100.89,14.53-26,34.72-49.12,60-68.7,27.63-21.4,54.18-33.49,81.17-36.95,21.5-2.75,44.58,2.82,66.32,9.24,19.63,5.81,34.52,1.1,44.26-14,14.45-22.39,23.7-49,32.64-74.74,1.48-4.26,3-8.66,4.53-12.93,2.19-6.19,4.3-12.55,6.34-18.71,6.9-20.85,14-42.4,25.57-59.77,9.65-14.52,22.45-22.61,38.07-24,14.31-1.31,31.12,2.2,47.36,5.6l4.34.91c25.75,5.33,47.51,8.65,66.54,10.16,11.76.93,23.51,1.4,34.88,1.85,13.23.53,26.92,1.07,40.58,2.35Z" transform="translate(-6496.48 -6516.85)"/></g></g></g></g></g></g></svg>